<svg width="51" height="49" viewBox="0 0 51 49" fill="none" xmlns="http://www.w3.org/2000/svg">
<g filter="url(#filter0_n_2341_3399)">
<path d="M32.8082 5.79664C32.8935 6.17841 32.9789 6.56041 33.0643 6.94242C33.3523 8.7038 33.3326 8.73844 32.1026 8.61984C33.5517 9.82336 33.5616 9.95495 32.3877 11.3151C31.9936 11.7714 31.9246 12.1886 32.5327 12.5708C33.1012 12.928 33.3398 13.4467 33.0384 14.1159C32.9554 14.2193 32.8519 14.2956 32.7297 14.3464C32.5671 14.5593 32.1776 13.8869 32.0725 14.5612C31.9794 15.1575 32.0016 15.7767 31.7966 16.3538C31.6722 16.7043 31.5556 17.0984 31.0918 17.1174C30.7047 17.1332 30.5163 16.8547 30.411 16.5229C30.2734 16.0892 29.9368 15.7866 29.7093 15.4084C29.9864 16.0334 30.5265 16.5516 30.4925 17.2889C30.4651 17.8874 30.3908 18.3676 29.4995 18.1828C28.3583 17.9463 27.3157 18.7986 26.1374 18.6839C25.9339 18.6642 25.8954 19.1477 25.7513 19.3839C25.3361 20.0147 24.8237 20.0707 24.4499 19.4253C23.8793 18.4402 22.9563 17.7775 22.2996 16.8802C21.7092 15.8895 22.4882 14.9978 22.5468 14.0512C22.5687 13.6973 23.0939 13.3418 23.4528 13.9663C23.7049 14.4048 24.1427 14.6742 24.4285 15.2444C24.435 14.4616 23.8685 14.0072 23.9137 13.3699C23.9474 12.8948 23.958 12.3872 24.5348 12.2465C25.1466 12.0971 25.1574 12.6543 25.3301 13.0072C25.504 13.3622 25.5991 13.7604 25.8791 14.0728C26.0407 13.2061 25.9828 12.5734 25.1557 11.9254C24.2955 11.2513 25.6763 10.8751 25.7749 10.1368C25.0809 10.1945 24.4107 9.96265 23.7448 9.95759C22.7881 9.95014 22.4754 9.59267 22.7304 8.70332C22.9823 7.82504 23.5276 7.67565 24.3231 8.03216C24.3561 7.93906 24.1651 7.87387 24.1119 7.87772C22.9801 7.9559 22.5897 7.70475 22.5312 6.32731C22.4898 5.35353 21.9649 4.66505 23.415 4.28568C22.6392 4.25874 22.3085 4.81179 21.9291 5.11874C21.5367 5.43628 21.2322 6.01266 21.7477 6.57533C22.5964 7.50124 22.5043 8.66964 22.5683 9.79979C22.5993 10.3459 22.3688 10.7495 21.8579 10.8513C21.2399 10.9744 21.3542 10.3593 21.1463 10.0399C20.7188 9.38265 20.0277 8.61311 19.9897 8.04491C19.9026 6.74637 19.1906 7.6605 18.7843 7.32347C18.8559 7.66555 19.0116 7.68624 19.1225 7.76009C19.4179 7.95687 19.9344 8.04058 19.8475 8.48561C19.7573 8.94869 19.2639 8.82071 18.9043 8.84645C17.363 8.95663 17.0241 9.40743 17.3635 10.8849C17.6065 11.9424 17.44 12.2172 16.4071 12.4625C16.0178 12.0226 16.4932 11.5034 16.2757 11.0481C16.2755 10.9167 16.275 10.7856 16.2747 10.6543C16.4588 10.1977 16.4162 9.73267 16.3248 9.26599C16.3101 9.12911 16.3221 8.99488 16.358 8.86233C16.7823 8.34681 16.6563 7.6997 16.7727 7.11009C16.8694 6.74949 17.0472 6.46539 17.4521 6.39996C17.8122 5.83224 18.1725 5.26452 18.5326 4.6968C18.4566 3.6826 19.1913 3.34365 19.9353 3.0124C20.9625 2.17141 21.9897 1.33042 23.0169 0.489421C23.2611 -0.0653089 23.6195 -0.144458 24.0876 0.231536C24.5324 1.0848 24.9269 1.9501 25.5187 2.73913C26.0677 3.47139 26.2584 3.32129 26.5805 2.6482C26.7559 2.28207 27.0104 1.95394 27.2291 1.60874C27.244 1.25007 27.5146 1.15048 27.7898 1.05546C28.1449 0.854349 28.3997 0.468973 28.8647 0.469695C30.0841 0.188481 30.2654 1.06146 30.4677 1.91112C30.7466 2.29409 30.8433 2.8291 31.3754 3.0011C31.8175 3.28929 32.2363 3.59913 32.431 4.12114C32.602 4.6689 32.9316 5.18225 32.8082 5.79664Z" fill="#E24E4E"/>
<path d="M49.3659 22.9045C49.0676 23.4465 48.7693 23.9882 48.4707 24.5302C48.2427 25.027 48.0305 25.5411 47.3557 25.5495C47.0803 25.5095 46.7767 25.5093 46.5369 25.396C44.9121 24.6274 43.392 24.8992 41.9054 25.7749C41.6078 25.95 41.2631 26.3231 40.9193 25.9344C40.5951 25.5678 40.8188 25.1393 40.9939 24.7568C41.1373 24.4439 41.3954 24.2221 41.7122 24.1304C42.8481 23.8023 42.5443 22.8468 42.5551 22.0958C42.5628 21.56 41.4981 21.319 41.1459 21.834C40.5352 22.7272 39.7558 22.8487 38.8298 22.6399C38.2195 22.5023 37.7302 22.6774 37.3121 23.1052C36.7709 23.6592 36.1851 23.6895 35.5496 23.2856C35.3078 23.0392 35.1757 22.7527 35.2291 22.4025C35.7769 22.1427 35.0762 21.9586 35.1832 21.7231C35.2003 21.6296 35.2366 21.477 35.2869 21.4782C36.8847 21.5151 35.9946 19.6137 37.0427 19.1997C37.1219 19.1684 36.9025 19.1951 36.826 19.1674C36.5972 19.0845 36.3035 18.9618 36.4281 18.7128C36.9143 17.7416 36.2624 16.9165 36.1555 16.025C36.087 15.4532 36.0826 14.8059 36.6275 14.5201C37.4854 14.0702 37.5046 13.3226 37.5693 12.5489C37.6465 12.44 37.7391 12.3459 37.8457 12.2655C38.037 12.235 38.2284 12.2045 38.4197 12.1737C38.8751 12.0871 39.3297 12.0704 39.7832 12.1862C40.7238 12.3019 41.6644 12.4173 42.6049 12.533C44.1936 12.6384 45.7252 12.8811 46.7868 14.2617C47.1982 14.9134 48.4469 14.5068 48.4972 15.6149C48.6932 16.4775 48.0029 16.9574 47.6254 17.5559C47.2064 18.2208 47.1421 18.5377 48.0923 18.7265C49.0724 18.9214 50.2752 18.9841 50.4895 20.3734C50.4854 20.4706 50.4813 20.5675 50.4772 20.6647C50.5456 21.6293 50.0868 22.332 49.3659 22.9045Z" fill="#DC5555"/>
<path d="M37.8123 12.4621C37.8515 13.5506 37.8435 13.5436 36.7245 14.8085C36.0699 15.5485 36.468 16.3587 36.7935 17.02C37.1413 17.727 37.4072 18.2771 36.2934 18.8311C36.9414 18.9435 37.2465 18.9966 37.6338 19.0638C37.4904 19.1674 37.3954 19.2264 37.3114 19.2981C36.9674 19.5918 36.5469 19.8679 36.6732 20.4034C36.7576 20.7611 37.6499 20.6702 37.2818 21.2653C36.9951 21.7291 36.5077 21.0919 36.1255 21.2755C35.8399 21.4126 35.5837 21.6113 35.3143 21.7823C34.4543 21.6721 34.4538 21.0669 34.614 20.4549C34.7511 19.9312 34.6828 19.5451 34.1786 19.2422C34.0756 19.1301 33.9349 19.3827 34.0663 19.2497C34.0747 19.241 34.0915 19.2858 34.1459 19.3057C34.4377 19.4135 34.6138 19.6144 34.6364 19.9228C34.6857 20.5944 34.1396 20.5672 33.7427 20.6656C34.6068 20.8973 34.704 21.867 35.3143 22.3438C35.4076 22.6238 35.5012 22.9038 35.5948 23.1838C35.4733 23.3604 35.2977 23.4561 35.0997 23.5184C33.7492 23.7032 33.6657 22.7053 33.4993 21.7604C33.5351 21.6098 33.2154 21.7664 33.4021 21.7563C33.4889 21.7515 33.4988 21.7871 33.48 21.8735C33.2354 22.9938 32.5811 22.4046 32.0237 22.2271C31.5495 21.3361 30.9097 21.2218 30.1165 21.8218C29.4675 21.4248 29.7781 20.8502 29.8459 20.3257C29.9397 19.6009 29.6948 19.1489 28.9075 19.109C27.7576 18.8542 26.6645 19.4085 25.5295 19.3404C25.6145 18.6113 25.5449 17.8727 26.7756 18.2485C27.2613 18.3969 28.0973 18.3955 28.6188 17.6849C29.2036 16.8881 29.429 18.108 29.984 18.0224C30.3997 17.3351 30.3183 16.612 29.6989 16.1051C28.7482 15.3271 29.2358 14.999 30.219 14.56C29.6628 15.6038 30.7627 15.9488 30.8743 16.7633C30.9313 17.1792 31.2758 16.6981 31.4425 16.4272C31.8286 15.8006 31.5488 15.0943 31.7773 14.4106C32.1009 13.4433 32.4242 14.0736 32.8093 14.3464C32.2079 15.4299 32.6564 16.7823 32.3756 18.0399C32.6994 17.3488 32.9522 15.4032 32.8093 14.3464C33.0191 13.623 32.9371 13.1652 32.3376 12.8155C31.5106 12.3331 31.4913 11.484 32.2159 10.8753C32.4916 10.6439 33.2368 10.8489 33.021 10.1842C32.8392 9.62396 32.4586 9.12119 31.8445 8.92033C31.5931 8.83806 31.3128 8.84383 30.7805 8.77527C31.6232 8.0228 33.7105 9.01294 33.0643 6.94148C33.2563 7.68313 33.4483 8.42477 33.64 9.16641C33.9284 10.344 33.5916 11.5901 34.0369 12.744C34.3068 13.3666 34.6999 12.9822 35.0417 12.8479C35.6208 12.6204 36.1348 12.1857 36.8221 12.3204C37.1392 12.4628 37.4976 12.3081 37.8123 12.4621Z" fill="#E05050"/>
<path d="M26.1535 40.5397C25.441 39.448 24.5661 38.4442 24.2959 37.1127C24.1432 36.8408 24.3811 36.5724 24.2545 36.1211C23.4393 37.8108 21.9943 36.6041 20.8783 37.0037C20.6178 37.097 20.4797 36.5676 20.4046 36.2517C20.3517 35.8093 20.0077 35.5478 19.7602 35.2255C19.4939 34.691 19.8634 34.1384 19.7099 33.5995C19.738 32.7025 20.326 32.7732 20.9401 32.8882C21.0481 32.9707 21.1078 33.0792 21.1138 33.2158C21.1013 33.4896 21.0068 33.7521 20.9827 34.1687C21.357 33.8298 21.3034 33.174 21.81 33.1964C22.5141 33.2276 22.624 33.9803 23.1102 34.3924C23.1665 33.7737 23.4215 33.2447 23.7092 32.7285C23.8088 32.6397 23.9243 32.5851 24.0573 32.568C24.2182 32.4526 24.7104 33.1083 24.5916 32.3318C24.5151 31.8334 24.5615 31.3917 25.2305 31.3809C25.5668 31.4059 25.8766 31.517 26.1725 31.6736C26.7285 32.0265 26.6476 32.612 26.7015 33.0217C27.3241 32.421 27.5774 31.2825 28.8312 31.2841C29.0162 31.2844 29.2043 31.2805 29.377 31.211C31.0843 30.5225 31.6123 30.6548 32.8627 32.0905C32.4314 32.74 32.7504 33.4586 32.6794 34.1437C32.551 34.4653 32.3604 34.7297 32.0249 34.8608C31.0638 34.9727 30.1906 34.8497 29.7138 34.1009C29.7932 35.5308 31.6128 37.0874 29.71 38.7174C29.46 38.8502 29.2069 38.8649 28.951 38.7345C28.8066 37.7836 28.4364 37.105 27.2926 37.3667C27.0397 37.3881 26.6775 37.2695 26.6113 37.6075C26.5464 37.9392 26.9257 37.7728 27.0881 37.8695C27.5704 38.0085 27.9238 38.27 27.9953 38.8043C28.5493 41.0198 28.4372 41.1254 26.1535 40.5397Z" fill="#CC4545"/>
<path d="M28.8658 38.6078C29.147 38.6049 29.4283 38.6022 29.7092 38.5993C30.2835 38.2517 30.7521 37.7191 31.4562 37.6003C31.5743 37.6207 31.6816 37.6691 31.7771 37.7413C32.0046 37.978 32.1978 38.2563 32.5158 38.3915C32.6739 38.4437 32.8353 38.4658 33.0027 38.4502C33.551 38.4059 34.0985 38.3896 34.6479 38.385C35.4745 38.6578 35.6133 39.4119 35.8514 40.0973C35.7494 40.6092 35.9313 41.0376 36.251 41.4254C35.9198 42.6237 36.5368 42.6694 37.4225 42.3884C38.3776 42.9814 38.3949 43.7307 37.6126 44.418C37.142 44.8313 37.214 45.0514 37.6171 45.3692C37.3434 46.1671 36.6417 45.9458 36.0658 46.0252C35.7696 45.4163 34.755 45.5594 34.6838 44.7115C34.8048 44.2325 35.8267 43.8577 34.8144 43.2445C34.08 42.7997 33.8623 43.2371 33.6799 43.8101C34.0126 45.0307 33.9623 45.1067 32.7518 44.8796C32.3655 44.8072 32.0241 44.7586 31.69 44.9874C31.4562 45.1849 31.3556 45.493 31.1139 45.6838C30.7614 45.7336 30.5276 45.4995 30.2664 45.3309C28.2928 44.251 27.313 42.3181 26.1535 40.5397C27.5317 40.1998 27.5964 40.1324 27.7439 38.8878C28.0282 38.4355 28.4819 38.6616 28.8658 38.6078Z" fill="#DE5757"/>
<path d="M3.38386 15.9117C4.06489 15.9476 4.0567 15.6423 3.70092 15.2235C3.48153 14.9653 3.11659 14.8234 3.0935 14.4176C3.01868 14.356 2.95134 14.2829 2.95134 14.1977C2.95206 13.4118 2.38747 12.426 3.20777 11.9052C3.97396 11.4185 4.88422 11.7998 5.62683 12.3043C5.69058 12.3618 5.74952 12.4132 5.79402 12.4491C5.75168 12.4063 5.70814 12.3406 5.6569 12.2417C5.51377 11.6901 5.5691 11.1975 6.00715 10.7998C6.12334 10.7274 6.25109 10.6968 6.38701 10.7014C7.74256 10.7741 7.77166 12.076 8.22223 12.8739C8.61121 13.5631 8.0346 14.3153 7.35117 14.7125C6.57296 15.1648 6.7529 15.5696 7.2001 16.1518C7.65091 16.7383 8.12119 17.3163 8.521 17.943C8.55396 18.069 8.55589 18.1965 8.52943 18.325C8.4397 18.6067 8.04158 18.7029 8.0921 19.0652C8.17316 19.3457 8.28959 19.619 8.23522 19.9211C8.15103 20.3014 8.00453 20.6474 7.70262 20.9103C6.13562 21.8227 5.09472 21.6668 3.84117 20.2329C3.5638 19.9156 3.32613 19.6291 2.93955 19.4265C1.99103 18.9295 2.01557 18.211 2.95639 17.5944C3.04492 17.5364 3.2477 17.4804 3.22413 17.4732C2.13993 17.1441 2.71968 16.6305 3.0644 16.1431C3.1676 16.0618 3.27417 15.9848 3.38386 15.9117Z" fill="#C53E3E"/>
<path d="M3.32036 16.107C3.30328 16.4873 2.73074 16.7171 2.9333 17.0899C3.16111 17.509 3.59723 17.0772 4.04732 17.1207C3.71318 17.9685 2.39828 17.8119 2.4719 18.9526C3.49668 18.8836 4.14715 19.7077 4.64992 20.3741C5.62034 21.6601 6.53807 21.1415 7.55804 20.6627C8.1058 21.3507 9.0779 20.3216 9.58813 21.1638C9.62614 21.2865 9.62469 21.409 9.58668 21.5304C9.48468 22.3965 10.0957 23.4412 8.96123 24.0522C8.01367 24.0647 7.51739 23.758 7.97541 22.8292C6.70742 23.3748 7.8229 24.6163 7.3615 25.4686C6.98503 25.9344 6.25734 26.1778 6.1486 25.6098C5.94557 24.5497 5.19743 24.4441 4.48922 24.0741C3.75383 23.6902 3.93185 22.7428 3.84645 22.1511C3.70259 21.1556 3.18107 21.3086 2.41393 21.2687C2.89096 21.7186 3.38794 21.9704 3.67421 22.4258C3.92102 22.8184 4.2773 23.2047 3.82865 23.6596C3.4096 24.0847 2.97588 23.8932 2.57799 23.5976C2.3918 23.4592 2.19189 23.338 2.02013 23.1797C1.38673 22.0265 0.66265 20.9098 0.561134 19.5432C0.297962 19.1999 0.445901 18.7695 0.318886 18.3971C-0.28564 16.8653 -0.0941418 16.5446 1.44472 16.4361C1.70933 16.4173 1.96529 16.2744 2.22533 16.1888C2.57053 15.8989 2.94075 15.9396 3.32036 16.107Z" fill="#CC4444"/>
<path d="M8.39714 18.1383C7.74113 17.3791 7.03653 16.6555 6.44644 15.8479C6.05625 15.3139 6.32231 14.8164 6.88305 14.5152C8.22104 13.7972 8.35262 13.3158 7.31437 12.1407C6.95401 11.7329 7.44956 10.7678 6.43801 10.8477C6.36175 10.7904 6.34082 10.7416 6.37546 10.7014C6.40601 10.6656 6.43705 10.6475 6.46905 10.6475C7.19289 10.6677 7.91649 10.6882 8.64034 10.7084C9.04784 10.5018 9.43491 10.5244 9.79863 10.8114C9.98555 10.8198 10.1727 10.8282 10.3596 10.8366C11.0402 10.6194 11.5749 10.9008 12.0649 11.3338C10.872 11.9502 11.4672 13.9095 9.73536 14.2963C10.2968 14.4642 10.8588 14.2376 11.2008 14.6668C11.547 15.101 11.4289 15.5254 11.1631 15.9437C10.8229 16.3235 10.693 16.7902 10.6201 17.2802C10.585 17.4005 10.5319 17.5119 10.4616 17.6156C9.84 18.051 9.12844 18.1337 8.39714 18.1383Z" fill="#D03D3E"/>
<path d="M44.5833 38.0215C44.6487 38.0436 44.7161 38.0569 44.7849 38.061C45.1202 38.309 44.9321 38.6686 44.9807 38.9775C45.0976 39.1262 44.628 39.1678 44.9176 39.346C45.0309 39.3542 45.0906 39.4131 45.1019 39.5212C45.1204 40.1533 45.139 40.7858 45.1577 41.418C45.3211 41.8803 45.322 42.3427 45.157 42.805C44.9412 44.3629 44.9412 44.3629 42.6203 44.1481C42.3896 43.5217 41.7432 43.5844 41.2886 43.3237C40.5205 42.883 40.4314 42.4079 41.3723 42.0389C42.0049 41.9472 41.8135 41.5945 41.6099 41.2563C41.0191 40.2741 41.4139 39.7341 42.5145 39.4548C41.8038 39.0679 41.227 38.7552 40.7567 39.6477C40.5969 39.9508 40.239 40.0059 39.9179 40.0617C39.3552 40.0492 39.2797 40.5784 39.0047 40.8866C38.8774 40.9426 38.7502 40.9409 38.6215 40.8909C37.7653 39.7521 38.6828 39.0376 39.2517 38.2392C39.3557 38.0898 39.5051 37.9688 39.5852 37.8069C40.2198 36.5243 40.2171 36.5231 41.4019 37.2967C41.4471 37.2738 41.495 37.392 41.5496 37.2972C41.4707 37.2597 41.4134 37.199 41.3759 37.1079C41.3684 36.9758 41.3922 36.8579 41.4493 36.7429C42.578 35.8615 42.8484 35.9272 43.2489 37.1844C43.3321 37.4454 43.368 37.7237 43.5515 37.9414C43.87 38.2905 44.2304 38.1124 44.5833 38.0215Z" fill="#E05959"/>
<path d="M2.23494 41.4445C1.6321 41.1859 1.26549 40.9285 1.62152 40.1134C2.21137 38.7632 1.61911 37.1154 2.59385 35.8281C3.61719 35.7839 4.23856 36.2248 4.36918 37.2797C4.38674 37.4223 4.25011 37.7896 4.67975 37.5014C5.50631 36.947 5.89987 37.6335 6.33239 38.1582C6.45556 38.3776 6.5614 38.6063 6.6901 38.8226C7.54938 39.5962 7.88303 40.4668 7.18733 41.5265C6.9268 42.0564 6.55322 42.4036 7.48274 42.9001C8.21212 43.2898 8.06297 44.2797 7.15318 44.7875C6.76107 44.9136 6.38675 44.9381 6.08461 44.5876C6.02327 44.1457 5.53662 43.8739 5.59531 43.3812C5.58425 43.2828 5.57342 43.1844 5.56235 43.0863C5.60348 42.6129 5.7358 42.158 5.84718 41.699C5.88543 41.4923 5.73676 41.4281 5.59026 41.3622C4.71511 40.2794 4.22677 40.2811 3.32997 41.3704L3.35594 41.4827C2.97922 41.5631 2.60203 41.6552 2.23494 41.4445Z" fill="#EF6868"/>
<path d="M6.15632 38.3292C5.42598 37.2082 4.7512 37.4843 4.0175 38.5414C4.52291 37.0109 3.70935 36.3314 2.59387 35.8281C3.14114 35.1399 3.10313 34.1091 3.91285 33.5743C4.14235 33.7468 4.21019 34.0049 4.28115 34.2618C4.3704 34.575 4.43656 34.8933 4.47 35.2173C4.50344 35.8339 5.05071 35.9693 5.43777 36.2565C5.75074 36.4887 6.07981 36.6075 6.44426 36.3999C7.08944 36.0321 6.21789 35.8822 6.3134 35.5654C6.36921 35.3804 6.42286 35.2337 6.59294 35.1415C7.14911 35.3528 7.90133 34.1762 8.32159 35.3806C8.38005 35.5334 8.34132 35.8089 8.57394 35.7757C8.80367 35.7427 8.85756 35.4261 9.04616 35.2936C9.68749 34.843 10.4092 34.8315 10.993 35.2666C11.6367 35.7468 11.0195 36.2517 10.8164 36.7295C10.4479 37.1942 10.4236 37.7685 10.3175 38.3157C10.2545 38.5859 10.2684 38.8603 10.2538 39.1348C10.2124 39.9085 9.96437 40.4538 9.07406 39.888C8.74016 39.6758 8.706 39.9135 8.60809 40.1089C8.18976 40.7004 8.05313 41.4396 7.59101 42.0054C7.14526 42.0557 6.91649 41.8873 6.99395 41.412C7.6004 40.3944 6.75987 39.6994 6.43175 38.8902C6.81713 38.4757 7.35094 38.3715 7.87415 38.2164C7.27588 38.047 6.74545 38.602 6.15632 38.3292Z" fill="#E86060"/>
<path d="M7.84624 28.2882C7.18567 27.9955 6.42839 27.9115 5.88016 27.377C6.03387 26.5069 6.79861 26.9168 7.26914 26.7104C7.39255 26.6859 7.51812 26.6779 7.6437 26.6784C7.82532 26.6921 8.00382 26.7332 8.18231 26.7587C8.91241 26.6851 8.78274 25.759 9.37427 25.5514C9.84577 25.2079 10.4474 25.3486 10.9516 25.1229C11.3146 25.0231 11.675 24.8694 12.0548 25.0573C12.3769 25.3657 12.5186 25.8035 12.8225 26.1261C13.0103 26.2615 12.8237 26.7744 13.2848 26.6168C13.9639 26.3844 14.651 26.1246 14.9444 27.097C15.2509 28.1131 13.9846 27.4999 13.8655 28.0999C13.4859 28.4915 13.2129 29.0116 12.6112 29.1326C12.0207 28.0866 11.1992 29.4049 10.5533 28.9315C10.7274 31.2296 8.58813 30.689 7.48974 31.4285C7.34564 31.4102 7.23282 31.3433 7.15343 31.2204C6.98528 30.612 7.31774 30.1283 7.54964 29.6193C7.73824 29.4275 7.92707 29.2358 8.11567 29.0438C8.51235 28.6183 8.16931 28.4566 7.84624 28.2882Z" fill="#D85151"/>
<path d="M43.4438 38.327C43.1301 38.1721 42.8837 37.9387 42.9037 37.5755C42.9843 36.1203 42.3853 36.1997 41.4803 36.9243C40.9092 36.8105 40.3882 36.358 39.7485 36.924C39.4464 37.1915 38.9859 36.7383 38.5823 36.6421C38.5281 36.4773 38.3646 36.8728 38.4834 36.7285C38.8981 37.0843 38.9633 37.402 38.3826 37.6513C38.2474 37.6659 38.1144 37.6568 37.9818 37.6284C36.7158 36.9365 36.4882 36.2204 37.188 35.091C37.3824 34.7773 37.6176 34.4903 37.8529 34.2052C38.0297 33.9972 38.2554 33.861 38.5087 33.7679C38.633 33.7297 38.7605 33.7258 38.8885 33.7489C39.1863 33.9053 39.4141 34.0977 39.2501 34.479C39.2075 35.1093 39.5084 34.5803 39.6229 34.5683C39.7413 34.556 39.8517 34.4506 39.9636 34.3919C40.0119 34.282 40.4372 34.2933 40.1493 34.1088C39.3564 33.6002 39.5912 33.2524 40.2732 32.9777C40.7192 32.798 41.0586 32.5167 41.3617 32.1651C41.4724 32.0847 41.5963 32.0561 41.731 32.07C42.0216 32.3267 42.3915 32.5216 42.4363 32.9707C41.7235 34.6317 43.2025 35.1877 44.0076 36.0835C44.1657 36.4595 44.3237 36.8353 44.482 37.211C44.2073 37.6488 44.0637 38.2094 43.4438 38.327Z" fill="#DA5353"/>
<path d="M7.55589 26.8302C7.13034 27.4205 6.31074 26.8028 5.8799 27.3767C4.01918 26.5057 3.08293 24.7845 2.0199 23.1799C2.11275 23.1836 2.20993 23.2069 2.29773 23.1876C2.81325 23.0748 3.30303 24.1934 3.70741 23.3883C4.07258 22.6613 3.1818 22.2764 2.70525 21.9529C2.26454 21.6538 1.8284 21.4804 1.88373 20.7363C2.64438 20.9463 3.43558 21.2735 4.23303 20.5201C4.11131 21.4838 3.60542 22.3628 4.73388 22.8196C4.85849 22.8701 4.78993 23.0137 4.7334 23.1544C4.52147 23.682 4.83997 24.267 5.14356 24.0719C6.49285 23.2047 6.24749 24.5694 6.2422 24.9582C6.22608 26.1186 6.78056 25.6211 7.27563 25.4277C7.31388 25.4795 7.35213 25.5312 7.39086 25.5829C7.52605 25.9882 6.91191 26.4924 7.55589 26.8302Z" fill="#D44D4D"/>
<path d="M6.99443 41.4115C7.10148 41.6778 7.28792 41.8644 7.55398 41.972C7.76591 42.021 7.97856 42.0672 8.1953 42.0944C8.30524 42.1146 8.40724 42.1555 8.50274 42.212C8.67979 42.3405 8.85541 42.4726 9.08947 42.4776C9.70097 42.1634 10.3332 42.0196 11.0281 41.9765C12.2362 41.9015 12.1621 42.3581 11.6129 43.1185C10.8191 43.5625 10.522 44.3884 10.1893 45.1389C10.0147 45.5332 9.84002 45.8661 9.51478 46.13C9.33027 46.1283 9.14575 46.1267 8.96148 46.1252C8.67931 45.7555 8.29754 45.5895 7.8513 45.463C7.40314 45.3359 6.87174 45.1745 6.99443 44.4947C7.79621 43.7596 7.70672 43.7162 6.83782 43.2183C5.83758 42.645 6.52317 41.9849 6.99443 41.4115Z" fill="#E45D5D"/>
<path d="M20.7356 36.0833C20.7842 36.3744 20.8843 37.0136 21.0772 36.7896C21.8923 35.8437 23.0898 37.5563 23.7248 36.3167C23.8357 36.1002 23.3772 35.6178 23.951 35.5846C24.223 35.569 24.5682 35.7778 24.7797 35.9869C25.1398 36.3426 24.7289 36.5358 24.523 36.7634C24.4309 36.8654 24.3703 36.9958 24.2957 37.1132C23.624 37.0427 23.3359 37.4952 23.0616 37.9946C22.6902 38.6708 22.2238 39.2715 21.5653 39.6997C20.8001 40.0112 19.9769 40.8404 19.3998 39.4579C19.3719 39.2522 19.4049 39.0574 19.5093 38.8769C20.059 38.3362 20.2957 37.8519 19.3055 37.531C19.0796 37.4579 18.9774 37.2342 18.9413 36.9972C19.1626 35.9549 20.0195 36.1572 20.7356 36.0833Z" fill="#DF5A5A"/>
<path d="M38.6792 40.8498C38.7725 40.8498 38.8656 40.8498 38.959 40.8495C39.0336 40.9097 39.0769 40.9866 39.1139 41.0699C39.1659 41.1858 39.0802 41.3208 39.1714 41.4278C39.1909 41.3386 39.2322 41.2585 39.2946 41.1858C39.6463 40.7059 39.985 40.0855 40.7028 40.4208C41.418 40.7547 41.2284 41.3824 40.9895 41.9607C40.3956 42.6126 40.858 43.2262 41.0617 43.8493C41.074 43.9785 41.0499 44.1009 40.9917 44.2169C40.9693 44.4011 40.9472 44.5852 40.9248 44.7692C40.9956 44.8377 41.0242 44.9102 41.0102 44.9869C40.9958 45.0656 40.9785 45.105 40.9575 45.1053C40.6229 45.3165 40.3379 45.1846 40.0619 44.9792C39.9619 44.8972 39.8709 44.805 39.7839 44.7098C39.0119 44.2344 38.2902 43.7129 37.9407 42.8216C37.8168 42.5055 37.6087 42.2787 37.2188 42.3511C36.7608 42.2445 36.5031 42.0376 36.8156 41.545C37.1495 41.2423 37.5604 41.0723 37.9611 40.883C38.1964 40.7983 38.4319 40.6806 38.6792 40.8498Z" fill="#DE5757"/>
<path d="M18.4405 43.0874C17.2336 44.608 15.6026 45.3463 13.7311 45.6407C13.2078 44.7341 13.9095 44.4993 14.5112 44.2087C14.8537 44.1163 15.0849 43.92 15.1114 43.5416C15.173 42.6641 15.6632 42.2445 16.5141 42.0925C17.4441 41.926 18.0207 42.3253 18.4405 43.0874Z" fill="#E05B5B"/>
<path d="M14.8494 44.4933C14.1867 44.5931 13.6396 44.8057 13.7311 45.6407C12.9295 46.0516 12.0127 45.8081 11.1881 46.0886C11.1908 45.1288 10.6569 44.0797 11.6538 43.2837C11.9156 43.0773 12.2086 42.9582 12.5456 42.9633C13.1922 43.124 13.5843 43.8247 14.3211 43.8007C14.599 43.9537 14.9555 44.048 14.8494 44.4933Z" fill="#E05B5B"/>
<path d="M34.7564 44.7752C34.9316 44.9003 35.175 45.1728 35.2715 45.1281C36.6302 44.4981 35.7492 45.5921 35.8767 45.8974C36.2357 46.2464 36.6554 45.9361 37.0427 46.0037C37.9643 46.1642 38.1043 46.582 37.5142 47.4603C36.7055 47.1914 36.1635 48.3913 35.3071 47.8632C34.7514 47.7391 34.1955 47.6152 33.6398 47.4911C33.4233 47.2606 33.3951 47.0057 33.538 46.7285C34.8007 46.6568 34.3821 45.59 34.6128 44.9065C34.66 44.8625 34.7081 44.819 34.7564 44.7752Z" fill="#D95353"/>
<path d="M14.8494 44.4933C14.6589 44.3054 14.4681 44.1175 14.2776 43.9296C14.2725 43.8647 14.2677 43.7997 14.262 43.7348C14.3053 42.9756 14.7315 42.3963 15.16 41.8171C15.2834 41.6657 15.4304 41.5409 15.594 41.4355C16.4191 40.609 17.4054 41.3407 18.3007 41.1545C18.4393 41.1784 18.567 41.2262 18.6887 41.2962C19.2098 41.8794 18.8362 42.3581 18.51 42.8426C18.4973 42.9272 18.4742 43.0088 18.4407 43.0875C17.8251 43.1902 17.7676 42.2873 17.2365 42.3665C16.3808 42.494 15.1201 42.2351 15.4924 43.8505C15.6137 44.3776 15.2372 44.4519 14.8494 44.4933Z" fill="#CD4646"/>
<path d="M5.87294 12.5297C5.77985 12.528 5.68075 12.5462 5.59439 12.5212C3.08968 11.8008 3.08991 11.8003 3.09352 14.4176C2.90564 14.0709 2.71777 13.7243 2.5299 13.3776C2.23738 12.8421 2.39639 12.2747 2.41274 11.7173C3.46471 10.5484 4.75458 10.4666 6.1568 10.8984C5.78466 11.394 5.88401 11.9718 5.87294 12.5301V12.5297Z" fill="#CD4848"/>
<path d="M11.7671 43.3684C11.6709 43.9015 10.7597 44.3294 11.8504 45.0037C12.4802 45.3927 10.8071 45.3275 11.1879 46.0884C10.63 46.1024 10.0724 46.1163 9.51454 46.1303C9.49818 45.641 10.2733 45.2234 9.64564 44.6787C10.534 44.4651 10.4595 43.1363 11.4895 43.0867C11.7453 43.0198 11.8273 43.1242 11.7671 43.3684Z" fill="#EC6767"/>
<path d="M7.27563 31.3159C7.36897 31.3159 7.46207 31.3159 7.55541 31.3159C7.63624 31.4078 7.68121 31.5146 7.69228 31.6364C7.69541 32.0605 7.6449 32.4754 7.47891 32.8712C7.42238 32.9818 7.34419 33.0747 7.24989 33.1552C6.81232 33.475 6.31869 33.3701 5.8354 33.3465C5.46638 33.3475 5.1592 33.4819 4.92297 33.7706C4.62323 34.0419 4.47841 34.5649 3.90997 34.4016C3.91094 34.1257 3.91189 33.85 3.91285 33.5741C4.31579 33.0102 4.71873 32.4463 5.12167 31.8822C5.74616 31.6958 6.47025 31.7663 6.93814 31.1759C7.07069 31.1745 7.18302 31.2214 7.27563 31.3159Z" fill="#DB5656"/>
<path d="M40.9082 45.0603C40.9135 44.9633 40.9191 44.8661 40.9246 44.7692C40.9929 44.7841 41.062 44.7923 41.1317 44.7944C41.947 45.3987 41.4077 46.3603 41.7379 47.0925C41.3923 48.6285 41.1255 48.7394 38.6845 48.3634C38.6398 48.1411 38.7639 48.0018 38.9215 47.878C39.195 47.6877 39.5043 47.6143 39.8305 47.5999C39.997 47.5655 40.3295 47.5058 40.266 47.4108C39.5616 46.3583 40.424 45.7654 40.9082 45.0603Z" fill="#E46161"/>
<path d="M44.0081 36.0831C43.5633 36.3292 43.3451 36.0542 43.1875 35.7039C43.0959 35.4999 43.0884 35.2445 42.8197 35.1752C41.8553 34.9262 41.6217 33.9058 42.3247 32.9984C42.4245 32.9072 42.5383 32.8836 42.6665 32.926C43.1414 33.2134 43.2871 33.6955 43.4115 34.1899C43.6102 34.8209 43.8092 35.4518 44.0081 36.0831Z" fill="#CB4949"/>
<path d="M33.6294 46.7418C33.6328 46.9917 33.6361 47.2417 33.6393 47.4914C32.927 46.9876 31.9917 46.8522 31.4059 46.1397C31.2909 45.6525 31.6787 45.3571 31.8473 44.9773C32.6145 44.3706 33.1824 45.3667 33.8921 45.2308C34.3828 45.8344 33.646 46.2255 33.6294 46.7418Z" fill="#E05D5D"/>
<path d="M6.99444 44.495C7.23043 44.9912 7.69471 45.3016 8.16813 45.2412C8.98219 45.1378 8.93094 45.6256 8.96149 46.1255C7.81066 45.6205 6.41204 46.1517 5.3531 45.2626C5.34372 44.718 5.82749 44.6881 6.15465 44.495C6.43466 44.6691 6.71443 44.6677 6.99444 44.495Z" fill="#EC6767"/>
<path d="M46.8493 26.0022C46.4938 26.4085 46.2027 26.8814 45.6889 27.1239C45.4962 27.211 45.3033 27.2978 45.1106 27.3849C44.6723 27.7188 44.3343 27.4713 44.0004 27.1946C43.8674 27.0224 43.8229 26.828 43.859 26.6142C43.9934 26.2088 44.3235 25.9748 44.6367 25.7248C45.4649 25.0849 46.1789 25.3722 46.8493 26.0022Z" fill="#CD4949"/>
<path d="M3.33024 41.3701C3.12408 39.6138 4.43585 40.3655 5.17245 40.3107C6.1994 40.2342 5.56576 40.9595 5.59053 41.3619C5.40025 41.3925 5.20998 41.423 5.01994 41.4538C4.57996 41.652 4.12144 41.558 3.66775 41.538C3.55517 41.482 3.44258 41.4259 3.33024 41.3701Z" fill="#E15D5D"/>
<path d="M40.9951 43.9703C40.2852 43.4064 40.2556 42.7239 40.6453 41.9679C41.0235 41.7706 41.385 41.6222 41.4827 42.2517C41.2563 42.2912 41.0028 42.3244 40.9876 42.6162C40.9626 43.0922 41.3588 42.9982 41.6434 43.1079C42.1137 43.2893 43.1036 43.0535 42.62 44.1481C42.4286 44.1676 42.2371 44.1873 42.0456 44.2068C41.6412 44.3689 41.3506 44.0259 40.9951 43.9703Z" fill="#D95353"/>
<path d="M6.99371 31.3164C6.62686 32.3549 5.86765 32.0965 5.12192 31.8824C5.50417 31.052 6.36754 30.7641 7.00045 30.2166C7.27806 30.5848 7.18688 30.9507 6.99371 31.3164Z" fill="#E55D5D"/>
<path d="M19.6122 39.4444C19.8886 39.9532 20.2521 40.174 20.7888 39.7906C21.0335 39.6157 21.2586 39.3263 21.5651 39.6994C21.204 40.0886 20.843 40.4778 20.4816 40.8671C19.7426 41.168 19.3423 40.6563 18.9122 40.2137C18.8506 39.6891 18.8263 39.1976 19.6122 39.4444Z" fill="#CB4A4A"/>
<path d="M6.15463 44.4949C6.20924 45.087 5.5833 44.9684 5.35285 45.2626C4.59821 44.5277 5.15991 43.9624 5.59556 43.3809C6.28164 43.5014 6.38533 43.9142 6.15463 44.4949Z" fill="#E45D5D"/>
<path d="M35.3068 47.8635C36.1038 47.8693 36.6364 46.8063 37.5558 47.3071C37.6448 47.3927 37.6949 47.4979 37.7127 47.6198C37.7127 47.953 37.5216 48.1774 37.2823 48.374C36.5601 48.4498 35.8632 48.4281 35.3068 47.8635Z" fill="#E66767"/>
<path d="M37.282 48.3737C37.3742 48.1094 37.4661 47.845 37.5582 47.5806C37.9927 47.3542 38.4112 46.9306 38.9364 47.2905C39.2611 47.5133 39.1757 47.8476 38.9554 48.1363C38.8652 48.2118 38.7747 48.2876 38.6845 48.3631C38.2171 48.3668 37.7495 48.3704 37.282 48.3737Z" fill="#D95353"/>
<path d="M44.0059 27.1107C44.3742 27.2021 44.7422 27.2935 45.1105 27.3847C45.0143 27.5502 44.9183 27.7157 44.8224 27.8812C44.2705 28.091 43.7187 28.3007 43.1666 28.5105C43.0198 27.8877 43.429 27.5348 43.8159 27.1701C43.8789 27.1499 43.9424 27.1302 44.0059 27.1107Z" fill="#D95151"/>
<path d="M43.4437 38.327C43.7687 37.9351 43.8945 37.3578 44.4825 37.2106C44.5161 37.481 44.5496 37.7511 44.5833 38.0215C44.3886 38.8141 43.9583 38.7273 43.4437 38.327Z" fill="#CE4747"/>
<path d="M19.0515 40.289C19.6791 40.1084 19.9348 40.8485 20.4819 40.8671C20.4872 41.2568 20.2899 41.4396 19.9055 41.4317C19.6548 41.4557 19.4102 41.4365 19.1773 41.3294C19.0633 41.2727 18.9678 41.1928 18.8882 41.0934C18.7864 40.7942 18.44 40.4435 19.0515 40.289Z" fill="#DF5A5A"/>
<path d="M18.5098 42.8426C18.2788 42.3648 18.9894 41.8745 18.4908 41.4002C18.4893 40.9554 18.7126 40.9431 19.0335 41.1182L19.0486 41.1286C19.2998 41.3778 19.599 41.5941 19.6392 41.9881C19.3515 42.3903 19.0833 42.8183 18.5098 42.8426Z" fill="#E45C5C"/>
<path d="M31.9614 45.0593C32.061 45.5659 31.7208 45.8462 31.4059 46.1397C31.2835 46.0629 31.161 45.9862 31.0383 45.9097C30.9707 45.8226 30.9859 45.7478 31.0722 45.6836C31.1252 45.3605 31.0516 44.9936 31.3888 44.769C31.7148 44.5999 31.9784 44.5527 31.9614 45.0593Z" fill="#CD4747"/>
<path d="M6.99368 31.3164C6.99585 30.9498 6.99826 30.5832 7.00042 30.2166C7.18349 30.0174 7.36631 29.8182 7.54937 29.6193C7.65859 30.2173 7.36848 30.7508 7.27538 31.3162C7.18156 31.3162 7.08774 31.3162 6.99368 31.3164Z" fill="#DC5555"/>
<path d="M19.6392 41.9881C19.2634 41.8245 19.0484 41.5505 19.0486 41.1286C19.3702 41.1276 19.7037 41.0932 19.9053 41.4314C19.8721 41.6436 19.9214 41.8952 19.6392 41.9881Z" fill="#CD4646"/>
<path d="M15.9048 12.8376C16.4287 13.3745 16.426 12.8366 16.5357 12.5285C16.9555 12.0146 17.3895 11.6786 16.9204 10.7796C16.2365 9.46854 17.4564 8.24362 18.957 8.53662C19.1725 8.57872 19.3979 8.57102 19.6503 8.58858C19.5622 8.22774 19.3205 8.18131 19.1198 8.10962C18.7248 7.96841 18.0883 8.11732 18.3015 7.32516C18.5079 6.55801 18.892 7.14811 19.212 7.17818C19.5112 7.20632 19.7814 7.18203 19.6748 6.73555C19.6074 6.45289 19.6192 6.11322 20.051 6.22508C20.3484 6.30206 20.5459 6.66073 20.3895 6.89335C19.6741 7.95831 20.866 8.48297 21.1148 9.23712C21.2606 9.67927 21.6986 10.0933 21.4674 10.8275C22.5216 9.96386 22.6096 9.14932 21.8341 8.69394C21.6726 8.59916 21.619 8.53157 21.6837 8.41321C22.1653 7.53132 22.122 6.85655 21.0003 6.57678C21.1723 5.97947 21.1716 5.05548 21.5526 4.85413C22.3142 4.45192 23.0869 3.47356 24.1781 4.28448C24.0474 4.62608 23.912 4.9708 23.408 4.68598C22.7672 4.32394 22.4655 4.93184 22.3719 5.25394C22.2026 5.83754 22.6974 5.71533 23.0765 5.67107C23.2647 5.64918 23.498 5.8616 23.2829 6.01291C22.6577 6.45265 23.1987 7.13271 22.684 7.6451C24.4396 7.38818 24.4954 7.42379 24.886 8.98526C24.2611 8.86859 24.2245 7.82023 23.4776 8.1154C22.786 8.38843 23.0869 9.06513 22.7701 9.65233C24.0005 9.21307 25.001 10.2809 26.1343 9.65906C26.4778 9.47047 26.6286 9.9475 26.3397 10.2814C25.9515 10.7303 25.5461 11.1645 25.1579 11.5944C26.6207 12.4955 26.8553 13.6071 25.7554 14.9928C25.4747 14.3055 25.2033 13.6613 24.9503 13.0096C24.8656 12.7919 25.0614 12.375 24.5625 12.4815C24.1437 12.571 24.3789 12.9283 24.3005 13.1604C23.9806 14.1075 25.3876 14.7878 24.5656 15.8402C23.913 15.3266 23.4198 14.6247 22.9257 13.7048C22.7374 14.8017 22.5707 15.7738 22.4037 16.7462C22.3395 16.7565 22.275 16.7669 22.2105 16.7782C21.0532 17.1963 20.8227 15.4828 19.7381 15.8965C19.7816 16.19 19.8646 16.6485 20.0267 17.1181C20.5411 18.6084 20.0311 19.1672 18.4386 18.9403C18.2521 18.9136 18.0671 18.9271 17.8809 18.9269C16.2653 18.5206 16.1646 18.2915 16.8049 16.8763C17.0667 16.2978 17.46 15.8212 17.7308 15.2653C17.3426 16.5335 15.3385 16.8475 15.8521 18.6995C16.0149 19.2867 15.4665 19.9754 14.8824 19.6302C14.3536 19.3175 13.0669 19.5663 13.408 18.2283C13.643 17.3062 13.2879 17.0156 12.3591 17.274C11.0584 17.6358 10.7527 17.3433 10.9213 15.8982C11.2511 15.1558 11.5037 14.4871 10.1951 14.7471C9.81307 14.8229 9.23597 14.9008 9.15514 14.3668C9.05459 13.7005 9.6187 13.923 10.0091 13.8826C10.3524 13.847 10.9673 13.6295 10.7849 13.2995C9.93599 11.7632 11.2177 11.7976 12.0272 11.4625C12.5311 11.2891 12.9204 11.7736 13.4063 11.7031C13.8554 11.9665 14.4433 11.9239 14.8208 12.3454C15.1436 12.5929 15.4705 12.8332 15.9048 12.8376Z" fill="#E24A4A"/>
<path d="M25.5295 19.3409C26.6327 18.5836 27.8524 18.4871 29.1278 18.7053C30.1245 19.5639 30.2265 21.0835 29.4011 22.4292C29.1639 22.816 28.7076 23.0674 28.6886 23.5831C28.7985 24.0234 29.1877 24.2791 29.3951 24.6546C29.7085 25.2026 29.798 25.7922 29.7304 26.4124C29.7153 26.5473 29.684 26.6789 29.646 26.8091C29.4545 27.3874 29.2238 27.9445 28.7576 28.3672C28.6116 28.506 28.448 28.619 28.2635 28.7001C27.1182 29.047 26.1875 28.6481 25.3698 27.8605C24.9873 27.492 24.6043 27.0573 24.251 27.8896C23.9765 28.4333 23.6779 28.9563 23.2678 29.4109C21.9293 30.8942 20.7948 30.8791 19.4321 29.3525C18.9991 27.548 20.085 26.2635 20.957 24.9055C19.2187 25.4419 17.2885 24.6125 16.3113 22.9113C16.0729 22.0777 16.2521 21.3688 16.9392 20.8114C17.1889 20.6257 17.4655 20.4917 17.7578 20.389C18.0174 20.2906 18.2966 20.2143 18.5627 20.204C19.6883 20.16 19.9452 19.4568 20.0342 18.4939C20.2312 16.3623 20.2579 16.3647 22.4131 16.7501L22.403 16.7457C23.3366 17.434 24.2755 18.1145 24.6881 19.2762C24.9127 19.9079 25.2103 19.8263 25.5295 19.3409Z" fill="#FEFDFD"/>
<path d="M27.1112 3.05305C27.5613 3.74971 27.6416 4.29266 27.1338 4.77642C26.9666 4.93567 26.396 5.1772 26.6712 4.54741C26.8605 4.11464 26.7925 3.64892 27.1112 3.05305Z" fill="#D64545"/>
<path d="M46.8493 26.002C46.1818 25.9952 45.52 25.25 44.8469 25.9866C44.5154 25.759 44.2349 25.3303 43.7671 25.6965C43.6473 25.8124 43.8568 25.8725 43.7221 25.7431C43.7122 25.7337 43.73 25.7104 43.7757 25.6736C43.8303 25.6293 43.8686 25.6072 43.9008 25.6034C44.7781 25.8321 44.0971 26.2206 44.0069 26.5497C44.0067 26.7366 44.0064 26.9235 44.0062 27.1105L44.0076 27.1097C42.706 27.071 41.7437 28.4136 40.3509 28.013C38.947 28.1131 38.5864 27.3854 38.9001 26.0532C38.4447 26.3688 38.7319 27.0806 38.1647 27.1963C37.7129 27.2882 37.0776 27.4874 36.8938 27.0183C36.7071 26.542 36.3725 25.9163 36.8178 25.3638C37.2823 24.7871 37.8149 24.2608 38.0523 23.5377C38.0896 23.446 38.2342 23.4333 38.2349 23.3065C38.1981 23.4244 38.0841 23.4763 38.0076 23.5723C37.8341 23.7407 37.6239 23.8437 37.4439 23.9887C37.0362 24.3173 37.1457 25.3375 36.2332 24.9721C35.4622 24.6632 34.9109 24.1309 35.0345 23.185C35.2214 23.1848 35.4083 23.1843 35.5952 23.184C36.2308 23.2682 36.8108 23.3563 37.2768 22.6721C37.6369 22.1436 38.2366 22.1626 38.8945 22.2998C39.6263 22.4523 40.5881 22.809 40.7817 21.4592C40.8394 21.0577 41.3218 21.0448 41.7197 21.1761C42.2369 21.3467 42.7639 21.4876 43.342 21.6577C43.2253 22.1636 42.2489 22.4135 43.0957 23.154C43.3935 23.4145 42.4161 24.3981 42.0665 24.4039C40.9734 24.4217 41.3273 25.2769 41.0102 25.8045C43.0971 24.3678 45.1989 24.0698 47.3805 25.4472C47.2032 25.6322 47.0262 25.8172 46.8493 26.002Z" fill="#D95151"/>
<path d="M35.3143 22.3445C35.1447 22.3483 34.8464 22.4032 34.8245 22.3483C34.4345 21.3664 33.6941 20.7784 32.6643 20.5261C33.0453 19.922 33.3999 20.3485 33.7307 20.3555C34.0124 20.3613 34.3232 20.3962 34.4023 20.0305C34.4627 19.7517 34.2842 19.6158 34.021 19.5586C33.8283 19.5167 33.4829 19.5937 33.6111 19.2162C33.6631 19.0632 33.8483 18.9256 34.0054 18.8443C34.2895 18.6978 34.4362 18.9189 34.5339 19.1337C34.7196 19.5429 35.0954 19.898 34.876 20.4267C34.6421 20.9908 34.9183 21.4113 35.3143 21.7828C35.5637 21.948 35.8134 22.1133 36.0766 22.2877C35.8101 22.5944 35.5534 22.2658 35.3143 22.3445Z" fill="#D64D4D"/>
<path d="M35.034 23.1855C35.4387 23.5136 35.3347 24.1756 35.941 24.4196C36.3882 24.5995 36.7997 25.4761 36.7981 24.1307C36.7973 23.516 37.5655 23.4867 38.1183 23.465C38.1228 24.2724 38.1228 24.2724 36.8074 25.8901C36.9542 26.4261 37.5731 25.6296 37.7177 26.5779C37.724 26.754 37.0208 26.3424 37.0023 26.9079C37.278 26.4008 38.4288 27.8807 38.2171 26.1937C38.1873 25.9558 38.3307 25.4906 38.8243 25.6657C39.1931 25.7965 39.5474 26.0162 39.4666 26.4559C39.404 26.797 39.1798 27.1083 39.0307 27.4261C39.4445 27.8832 39.9809 27.314 40.3615 27.6715C40.3398 28.3715 39.7591 28.2919 39.3249 28.4182C38.673 28.021 38.1139 28.1434 37.6198 28.7102C37.0114 29.4078 36.4692 29.4595 36.1252 28.4867C35.8207 27.625 35.03 27.613 34.348 27.3989C34.233 27.3416 34.1274 27.269 34.0288 27.1867C33.6085 26.5637 33.0083 26.1276 32.4319 25.6657C32.3865 25.3169 32.5765 25.0522 32.7461 24.7795C32.9409 24.4662 33.2291 24.2603 33.5409 24.0806C32.5423 24.3255 32.9152 22.6426 31.8957 22.9144C31.5806 22.8074 31.2373 22.6892 31.3198 22.2728C31.3913 21.9118 31.6578 21.8944 31.9482 22.0621C32.4815 21.9423 33.3742 22.778 33.4307 21.4727C34.1199 21.9353 33.5628 23.4968 35.034 23.1855Z" fill="#D64D4D"/>
<path d="M32.9773 14.2133C33.7826 15.7267 32.7444 17.0722 32.6164 18.464C32.5782 18.88 31.9462 18.7315 31.5721 18.3926C33.0735 17.3067 31.2828 15.2961 32.9773 14.2133Z" fill="#E24E4E"/>
<path d="M28.2777 23.803C27.6575 23.1523 28.4846 23.063 28.7092 22.8064C29.8971 21.4501 30.0725 19.9533 29.1281 18.7053C30.2231 18.8845 30.4131 19.5973 30.1699 20.5271C30.0545 20.969 29.8132 21.3953 30.2674 21.7828C30.3157 21.8333 30.3643 21.8838 30.4134 21.9341C30.6633 22.5526 30.4624 23.0142 29.92 23.3575C29.3939 23.58 28.8081 23.5892 28.2777 23.803Z" fill="#E65757"/>
<path d="M31.9481 22.0616C31.7547 22.1164 31.4362 22.1013 31.544 22.4114C31.647 22.7085 31.9825 22.5983 32.2274 22.6293C32.4492 22.8566 32.4733 23.1145 32.346 23.3964C31.9207 23.7455 31.4365 23.651 30.9549 23.5814C30.4273 23.2341 30.4025 22.6445 30.6549 22.2509C31.1586 21.465 30.0593 22.1946 30.2674 21.783C30.3376 21.1809 30.6263 20.8128 31.2633 21.0503C31.6847 21.2074 32.3393 21.3101 31.9481 22.0616Z" fill="#E65757"/>
<path d="M32.6549 11.2819C32.8935 11.8109 32.7829 12.1455 32.3032 12.3112C32.2264 12.3377 32.0179 12.2321 32.0107 12.1715C31.9548 11.6882 32.2729 11.4842 32.6549 11.2819Z" fill="#E24E4E"/>
<path d="M19.6454 29.3402C21.0804 30.5738 22.1983 30.4523 23.3072 28.9151C23.593 28.5189 23.8098 28.0732 24.0583 27.65C25.8223 28.1174 26.4672 29.7015 25.4735 31.111C25.3696 31.2584 25.3294 31.448 25.2192 31.5971C24.3784 32.1018 25.3462 32.8312 24.8377 33.4456C24.4177 33.5387 24.4672 32.8526 24.0989 32.7179C23.6905 32.4314 23.7881 31.8055 23.2408 31.4949C23.5586 31.9142 23.6998 32.3116 23.8179 32.7186C24.2158 33.3078 22.995 33.7891 23.6897 34.4579C23.746 34.512 23.1898 34.9693 22.8437 34.6106C22.4987 34.2534 22.2228 33.8295 21.9101 33.4266C21.8499 33.4482 21.7251 33.4543 21.6977 33.5089C21.4614 33.9806 21.5868 34.6484 20.9555 34.8979C20.8627 34.9347 20.6031 34.8204 20.605 34.7862C20.6394 34.169 20.5103 33.5077 21.0154 32.9989C21.0684 32.9286 21.1018 32.8505 21.116 32.7639C21.0785 32.8389 21.0445 32.9171 21.0142 32.9982C20.6503 33.2048 19.9979 32.8355 19.8932 33.5599C19.887 34.0865 19.5218 34.3513 19.1362 34.6029C18.9074 34.7105 18.6796 34.8712 18.4366 34.6323C18.2148 34.201 18.0554 33.7297 17.6418 33.3883C17.7448 33.9609 18.133 34.3164 18.4934 34.691C18.5692 35.2392 18.2295 35.6821 18.1184 36.1844C17.9649 36.4487 17.7366 36.575 17.4306 36.5587C17.046 36.4978 16.8343 36.2349 16.6731 35.913C16.472 35.4822 16.6753 35.0124 16.5425 34.5736C16.4398 34.2115 16.3243 33.8399 16.014 33.6135C15.1751 33.0013 15.1961 32.2486 15.6601 31.283C14.3659 32.1211 13.74 31.2996 13.1277 30.4441C12.6341 30.468 12.045 30.7246 11.7568 30.1196C11.5658 29.7181 11.7248 29.294 12.1032 29.0152C12.2672 28.8942 12.4513 28.9296 12.6035 29.0741C12.859 28.582 13.2307 28.2062 13.7265 27.9551C14.2182 27.6464 14.4833 27.9392 14.3947 28.3563C14.2535 29.021 14.5913 29.5086 14.8133 30.0333C15.0156 29.4225 15.216 28.7691 16.0202 28.6378C16.1506 28.6532 16.2699 28.6996 16.3806 28.7682C17.0202 29.1475 17.5341 28.8233 17.976 28.4167C18.2762 28.1405 18.4669 27.6967 18.9731 27.8661C19.5692 28.0657 19.4152 28.5745 19.402 29.0265C19.3979 29.1571 19.5321 29.2589 19.6454 29.3402Z" fill="#D64949"/>
<path d="M32.5098 25.7075C33.5361 25.6168 33.8411 26.3917 34.2185 27.0239C33.7177 27.9166 33.2027 28.6568 32.4471 28.3671C33.6308 28.282 33.8914 28.1239 34.2185 27.0239C35.3244 27.1935 36.3735 27.3893 36.5962 28.7862C36.6119 28.8841 36.7538 28.962 36.837 29.0494C36.9638 28.3736 37.9917 28.6156 38.0441 27.8641C38.0528 27.7381 38.0624 27.6123 38.08 27.3698C38.5207 27.6974 38.8806 27.9649 39.2404 28.2327C39.7762 28.4821 40.5585 28.5909 39.9576 29.4891C39.4322 29.7581 38.8892 29.5093 38.3533 29.4684C38.3535 29.7833 38.5505 29.9459 38.6138 30.1648C38.7124 30.4901 38.7148 30.8136 38.6044 31.1362C38.5479 31.2572 38.462 31.3532 38.3497 31.4251C37.8149 31.5728 37.539 31.1276 37.1625 30.9099C36.8582 30.6775 36.5192 30.4857 36.2809 30.1737C35.9563 29.7944 35.9934 28.8824 35.2724 29.1268C34.5993 29.3551 33.6405 29.2709 33.4139 30.3746C33.2917 30.9695 33.2772 31.6647 32.7901 32.1572C32.1235 31.708 31.4239 31.2988 30.8067 30.7901C30.5567 30.5841 30.3551 30.5391 30.2952 30.7831C29.946 32.2031 28.7841 31.4073 28.0374 31.6366C27.7802 31.9017 29.0874 32.3462 27.9486 32.4179C26.6455 32.4999 27.0078 33.1588 27.4807 34.0034C26.186 33.6594 26.6537 32.4309 26.0614 31.8769C26.1379 30.9736 27.041 31.4396 27.3874 31.026C26.9346 31.262 26.5033 31.1793 26.3749 30.6286C26.2351 30.0287 25.7901 29.3941 26.096 28.817C26.3383 28.3599 27.0864 28.5302 27.3751 28.7094C27.9505 29.0664 28.0963 28.8348 28.269 28.3837C28.3669 28.3301 28.4646 28.2762 28.5625 28.2226C29.4413 28.0635 29.3768 27.3847 29.3785 26.7424C29.3402 26.6705 29.3513 26.607 29.4117 26.5521C29.6385 25.8757 30.551 25.3471 31.3102 25.3736C31.7511 25.3878 32.2447 25.0982 32.5098 25.7075Z" fill="#D54949"/>
<path d="M32.7898 32.1567C32.5596 30.8653 33.455 29.8863 33.7463 28.7167C34.1784 28.6789 34.7141 29.8384 35.0773 28.6091C35.2137 28.148 35.4706 28.4494 35.6891 28.6243C36.1964 29.0304 36.4743 29.5343 36.4358 30.1944C37.0535 30.8661 36.8469 31.4083 36.1748 31.8791C35.7389 32.3056 35.417 33.0034 34.6535 32.4985C34.99 33.4297 36.0535 32.8769 36.5661 33.4843C36.2758 33.9592 37.0744 34.231 36.7961 34.7054C36.4021 35.0068 36.123 35.4406 35.6761 35.6828C35.3862 35.7386 35.1009 35.7056 34.9782 35.4129C34.7386 34.8404 34.3549 35.028 33.9662 35.1788C33.6633 35.2875 33.3631 35.4247 33.0311 35.2921C32.7655 34.9481 32.4071 34.646 32.498 34.1367C32.6335 33.4824 31.6409 32.6621 32.7898 32.1567Z" fill="#BD3636"/>
<path d="M28.2692 28.3828C27.938 28.9067 28.3337 29.5168 28.2202 30.0691C27.2688 30.0162 28.0583 28.5165 26.9098 28.791C26.6551 28.8519 26.1817 28.7453 26.2209 29.053C26.2935 29.6243 26.563 30.1723 26.765 30.7248C26.9233 31.1581 27.0794 30.8317 27.2305 30.7099C27.8699 30.1951 28.0754 30.7605 28.5863 31.1978C27.581 31.3821 26.7085 31.2704 26.0611 31.8762C25.7804 31.7831 25.4997 31.69 25.2187 31.5969C25.0992 31.1997 24.6019 30.677 25.3989 30.5086C26.2529 30.3279 25.7821 29.5059 25.7265 29.4826C24.8706 29.1249 25.0015 27.8865 24.0578 27.6495C24.179 27.3063 24.3005 26.963 24.4636 26.5018C25.5348 27.6952 26.5158 28.8786 28.2692 28.3828Z" fill="#DC4D4D"/>
<path d="M31.6693 37.7658C30.9027 37.7776 30.6335 38.9583 29.7093 38.5996C29.5753 38.0612 30.1401 37.8019 30.2103 37.3785C30.2856 36.9258 30.8654 36.2289 29.7932 36.085C29.6263 36.0626 29.3638 35.6214 29.3674 35.6183C30.3643 34.7121 28.8175 34.0277 29.2214 32.7898C29.8425 34.1576 30.7629 34.672 31.952 34.6813C32.2616 34.9224 32.545 35.1819 32.6094 35.5988C32.0701 36.2224 31.8218 36.9732 31.6693 37.7658Z" fill="#C53E3E"/>
<path d="M17.938 36.0732C17.8485 35.4995 18.0222 35.0318 18.497 34.6857L18.4951 34.6876C18.6806 34.5899 18.866 34.4922 19.0515 34.3943C20.0441 33.9534 19.5302 35.0349 19.8949 35.2288C20.4186 35.2741 20.7104 35.5476 20.7357 36.0833C20.3729 36.765 19.408 36.2435 19.0469 36.9284C18.3457 37.0732 18.1648 36.5433 17.938 36.0732Z" fill="#E86060"/>
<path d="M28.8658 38.6077C28.9192 38.8199 29.0857 39.1415 29.0054 39.2243C28.7261 39.5125 28.6676 39.1745 28.5779 38.9893C28.3513 38.5209 28.014 38.9842 27.7436 38.888C27.7359 38.3378 27.2611 38.252 26.907 38.046C26.6082 37.6378 26.8047 37.3915 27.1822 37.2043C27.9565 36.7201 28.5553 36.9534 29.1295 37.5983C29.6029 38.13 29.0595 38.302 28.8658 38.6077Z" fill="#C53E3E"/>
<path d="M23.8175 32.7186C22.9702 32.6438 23.4759 31.4145 22.5961 31.3592C23.7222 31.1624 24.219 31.6142 24.0987 32.7179C24.0049 32.7181 23.9113 32.7184 23.8175 32.7186Z" fill="#CA3F3F"/>
<path d="M27.1822 37.2043C27.0903 37.4848 26.9986 37.7656 26.9069 38.0461C26.6231 38.1396 26.3421 38.4533 26.0443 38.0997C25.7843 37.7911 26.1136 37.6126 26.2396 37.3963C26.4792 36.9842 26.7561 36.7167 27.1822 37.2043Z" fill="#E05959"/>
<path d="M32.5058 35.524C32.1339 35.3662 31.9505 35.0843 31.9525 34.6811C32.1348 34.4995 32.3169 34.3181 32.499 34.1367C32.8178 34.4345 33.187 34.7056 33.0788 35.23C33.0886 35.7198 32.8375 35.7003 32.5058 35.524Z" fill="#DD5555"/>
<path d="M19.8949 35.2286C19.7354 35.4112 19.4855 35.6306 19.5422 35.1682C19.5988 34.7054 19.5569 34.4393 19.0515 34.3941C19.332 34.116 19.6123 33.8377 19.8928 33.5596C20.5269 34.1153 19.6924 34.6727 19.8949 35.2286Z" fill="#DC4F4F"/>
<path d="M22.3556 35.7687C22.2606 35.9517 22.1244 36.0501 21.9284 35.9214C21.7759 35.8213 21.6224 35.6854 21.7097 35.4786C21.7905 35.2875 21.9712 35.2324 22.1567 35.3205C22.3364 35.4059 22.4121 35.5642 22.3556 35.7687Z" fill="#E25B5B"/>
<path d="M28.8199 35.316C28.8194 35.5048 28.797 35.6975 28.555 35.6999C28.3573 35.7021 28.1976 35.5714 28.1973 35.3775C28.1973 35.2787 28.3301 35.1408 28.4362 35.0891C28.6419 34.9893 28.7737 35.0995 28.8199 35.316Z" fill="#C53E3E"/>
<path d="M32.5058 35.524C32.7432 35.5166 32.9563 35.4622 33.0785 35.2303C33.3564 35.1398 33.6342 35.0494 33.9118 34.9589C34.155 34.8387 34.2282 34.9859 34.269 35.1824C33.9438 35.8519 34.3982 35.6789 34.7482 35.6176C35.0316 35.5666 35.3395 35.7886 35.6022 35.5332C35.9383 35.2029 35.9835 34.4923 36.7165 34.6811C36.8322 34.5892 36.947 34.5947 37.061 34.684C36.9955 35.5757 36.8558 36.4569 36.6494 37.3426C37.117 37.6089 37.6345 37.3617 38.1127 37.4827L38.123 37.4894C38.6484 37.953 38.7148 38.4774 38.3335 39.0619C38.2529 39.1646 38.1524 39.2431 38.0328 39.296C37.4685 39.3258 36.7562 39.7348 36.5803 38.7482C36.584 38.6515 36.7266 38.6077 36.7155 38.5255C36.705 38.4468 36.6133 38.4603 36.551 38.5546C36.1245 38.9489 36.6576 39.3569 36.5245 39.7528C36.3193 40.1093 36.0995 40.442 35.5991 40.295C35.3376 39.6563 35.2587 38.8957 34.473 38.6066C33.7516 37.672 33.283 38.3025 32.805 38.876C32.7061 38.7848 32.6073 38.6936 32.5084 38.6022C32.3667 38.4954 32.124 38.3898 32.1406 38.2395C32.219 37.5344 31.8846 37.9662 31.6732 38.0513C31.6717 37.9561 31.6703 37.8608 31.6688 37.7658C31.1928 36.7367 31.7109 36.0787 32.5058 35.524Z" fill="#DA5353"/>
<path d="M38.9554 48.1363C39.0526 46.5363 37.8488 48.2061 37.5582 47.5804C37.557 47.4892 37.5563 47.3978 37.5558 47.3066C38.003 46.2842 37.4156 46.251 36.6527 46.3379C36.3167 46.3761 35.6484 46.8919 35.8765 45.8974C36.354 45.4613 37.104 45.8423 37.5582 45.3364C38.3071 44.735 38.9977 43.8722 40.0812 44.7757L40.0805 44.775C39.7367 45.584 39.2563 46.3754 39.9727 47.2486C40.1127 47.4192 39.9876 47.6908 39.7986 47.8601C39.5176 47.9523 39.2364 48.0444 38.9554 48.1363Z" fill="#E45C5C"/>
<path d="M40.0812 44.7759C39.0875 44.2758 38.4264 45.2715 37.5582 45.3367C37.247 45.2532 36.7509 45.5445 36.6614 45.048C36.6042 44.7309 36.7423 44.3862 37.1832 44.2101C38.3343 43.7504 37.952 43.1339 37.2773 42.5329C37.1936 42.4704 37.1654 42.4076 37.1928 42.3446C37.2203 42.2813 37.2479 42.2498 37.2758 42.2498C37.5149 41.9506 37.8536 41.9927 37.9318 42.2849C38.2515 43.4781 39.6013 43.7478 40.0812 44.7759Z" fill="#D95353"/>
<path d="M33.3516 43.6545C33.9551 42.5197 34.3857 42.431 35.1873 43.2515C35.4346 43.5046 35.7297 43.7112 36.0256 43.958C35.6373 44.3855 35.0165 44.3032 34.7564 44.7755L34.7475 44.7762C34.6417 44.8654 34.5255 44.8866 34.3978 44.8301C34.1844 44.5452 33.5943 44.2335 33.652 44.1628C34.093 43.6203 33.352 43.8618 33.3516 43.6545Z" fill="#D14A4A"/>
<path d="M35.5994 40.295C35.8782 40.1059 36.1572 39.9169 36.436 39.7278C36.8803 39.5731 37.0884 39.9938 37.4166 40.1257C37.7401 40.3944 38.2669 40.525 38.1084 41.1262C37.7396 41.3124 37.3708 41.4985 37.0021 41.6845C36.7512 41.4928 36.3588 41.7475 36.1527 41.4151C35.5582 41.2443 35.3841 40.8656 35.5994 40.295Z" fill="#CC4445"/>
<path d="M33.3516 43.6544C34.0667 43.6855 34.1492 44.3499 34.4718 44.774C34.4122 45.0879 34.2221 45.2722 33.9118 45.3364C33.1949 45.7132 32.6393 44.9556 31.9614 45.0593C31.8372 44.8315 31.6248 44.7774 31.3891 44.769C32.1009 43.9422 32.8387 44.6455 33.7571 44.8262C33.5317 44.3653 33.2479 44.0485 33.3516 43.6544Z" fill="#D95353"/>
<path d="M36.1526 41.4151C36.4625 41.4209 36.7923 41.3638 37.0021 41.6845C36.6431 42.0908 37.1041 42.1002 37.2758 42.2496C37.2763 42.3439 37.2768 42.4384 37.2772 42.533C36.7894 42.6248 36.5233 43.571 36.0586 43.15C35.6107 42.7439 35.6205 41.9717 36.1526 41.4151Z" fill="#DA5353"/>
<path d="M32.8052 38.876C33.04 37.2091 34.2469 37.9573 35.1574 37.9289C35.2481 38.486 34.5486 38.2351 34.4733 38.6065C33.9784 39.0759 33.3025 38.422 32.8052 38.876Z" fill="#C74040"/>
<path d="M31.6345 40.7199C31.4747 41.2991 30.9517 41.1466 30.596 41.1955C30.1593 41.2554 29.8938 40.7485 29.9501 40.4918C30.0025 40.2532 30.5043 39.933 30.7696 39.9655C31.1242 40.009 31.5385 40.2563 31.6345 40.7199Z" fill="#C84141"/>
<path d="M29.2909 42.5171C29.244 42.8546 28.9517 42.9277 28.7027 42.977C28.4097 43.0352 28.3316 42.7995 28.3239 42.5532C28.3164 42.3092 28.3811 42.0542 28.6616 42.0788C28.9142 42.1009 29.1949 42.1988 29.2909 42.5171Z" fill="#C94142"/>
<path d="M31.6734 38.0513C32.1131 37.8625 31.7511 37.225 32.3715 36.9912C32.1872 37.5969 32.167 38.1324 32.5086 38.6022C32.1088 38.6025 31.8245 38.4278 31.6734 38.0513Z" fill="#C53E3E"/>
<path d="M31.0537 44.386C30.861 44.5096 30.735 44.6249 30.588 44.666C30.5365 44.6804 30.3542 44.456 30.3674 44.4375C30.4588 44.309 30.5731 44.1803 30.71 44.1105C30.753 44.0889 30.8882 44.2491 31.0537 44.386Z" fill="#CB4544"/>
<path d="M31.9301 43.3251C31.7846 43.4565 31.7083 43.5789 31.6145 43.5948C31.5199 43.6107 31.4076 43.5202 31.3032 43.4765C31.3809 43.3843 31.4425 43.2508 31.5411 43.213C31.6207 43.1822 31.7446 43.2662 31.9301 43.3251Z" fill="#CE4747"/>
<path d="M8.39712 18.1383C8.93236 17.5396 9.69589 17.7363 10.357 17.5761C10.8977 17.5569 10.8075 17.8735 10.6507 18.1744C10.5256 18.4142 10.3281 18.6163 10.2947 18.9023C10.2497 19.2208 10.1183 19.4946 9.88185 19.7147C9.31606 20.1119 8.72138 20.0378 8.1183 19.8196C8.02448 19.5389 7.93092 19.2584 7.8371 18.9776C7.90036 18.6685 8.27684 18.6719 8.39592 18.4183C8.39616 18.3252 8.39664 18.2319 8.39712 18.1383Z" fill="#D94747"/>
<path d="M8.11809 19.8198C8.65646 19.5968 9.28071 19.8879 9.79839 19.5393C10.6514 19.8013 10.6976 20.5672 10.5602 21.1749C10.458 21.6271 9.89174 21.4936 9.51863 21.2223C9.18786 21.0541 8.88428 20.9035 8.52368 21.2218C7.69134 21.9565 7.74908 21.0786 7.55783 20.6625C7.74475 20.3817 7.93141 20.1008 8.11809 19.8198Z" fill="#D84F4F"/>
<path d="M8.39569 18.4188C8.52175 18.9175 8.02403 18.7924 7.83687 18.9781C7.61123 18.3798 8.10678 18.5025 8.39569 18.4188Z" fill="#D03D3E"/>
<path d="M5.87292 12.5302C6.08871 12.483 6.30425 12.4361 6.52003 12.3889C6.53735 12.4729 6.59798 12.6026 6.5655 12.6334C6.30113 12.8833 6.07042 12.7907 5.87292 12.5297V12.5302Z" fill="#CD4848"/>
<path d="M9.51862 21.2225C10.3998 21.1217 10.3998 21.1217 9.79838 19.5396C9.89172 19.2596 9.98482 18.9793 10.0782 18.6993C10.8092 18.9538 11.5083 17.6415 11.9839 18.3755C11.7058 18.0866 10.9124 17.8593 10.3594 17.2966C10.3623 16.7565 10.2641 16.1758 10.9208 15.8982C11.1996 16.3928 10.8181 17.6112 12.1681 16.918C12.7113 16.6391 13.4813 16.5412 13.9949 17.077C14.6897 17.802 13.5273 18.1364 13.5388 18.77C13.8994 19.0457 14.4566 18.6813 14.8037 19.326C15.0419 19.7683 15.6753 19.4236 15.5653 18.8119C15.3565 17.6502 15.3991 16.6921 16.7109 16.184C17.1711 16.0057 16.2834 14.6978 17.5778 15.0142C17.8352 15.0772 18.0424 14.3656 18.3486 14.8833C18.5713 15.2598 18.25 15.8008 18.031 15.8426C17.2098 15.9995 17.4111 16.7426 17.0967 17.1525C16.1162 18.4311 17.1802 18.4455 17.93 18.6986C18.0077 18.8059 18.0407 18.9254 18.0318 19.0573C18.1929 19.929 17.5867 20.4445 17.1179 21.0241C16.5271 21.5338 16.4157 22.1944 16.5215 22.923C16.605 22.9933 16.6329 23.0633 16.605 23.1335C16.5774 23.2038 16.5495 23.2389 16.5223 23.2389C16.1828 23.2889 16.0878 22.9276 15.8237 22.8218C15.5547 23.102 15.8542 23.4309 15.7489 23.7222C15.5634 24.2358 15.4922 24.9651 14.8061 24.9291C14.1224 24.8932 14.3688 24.1441 14.228 23.6736C14.1768 24.0691 13.9562 24.2723 13.6298 24.3633C13.4693 24.3051 13.7089 24.3755 13.529 24.3248C13.5073 24.3188 13.4977 24.3178 13.4994 24.3221C13.5208 24.3729 13.5528 24.3984 13.6064 24.4046C14.0503 24.7179 14.1323 25.1648 14.1138 25.6532C13.8282 26.3931 13.1068 26.0631 12.6033 26.269C12.0909 26.0585 12.0161 25.6284 12.0411 25.1482C11.4835 23.9642 10.9507 22.7691 9.6692 22.1431C9.48926 22.0553 9.49456 21.7339 9.51452 21.4982C9.51596 21.4061 9.51742 21.3142 9.51862 21.2225Z" fill="#DE4A4A"/>
<path d="M9.5143 21.498C9.81933 22.4186 10.8001 22.4946 11.4366 23.0003C11.7864 23.2781 12.7544 23.1049 11.744 23.9002C11.4513 24.1306 11.8646 24.7364 12.0409 25.148C11.6675 25.2413 11.2942 25.3344 10.9206 25.4277C10.5336 25.0219 9.92254 25.097 9.49795 24.7686C9.28361 24.6262 9.10679 24.4504 8.99445 24.2156C8.98146 24.1528 8.96968 24.09 8.95789 24.027C9.09381 23.3152 9.92613 22.6921 8.99036 21.8494C8.60282 21.5004 9.29756 21.5887 9.5143 21.498Z" fill="#D84F4F"/>
<path d="M7.27565 25.428C7.15248 24.7845 7.27638 24.0534 6.49408 23.6269C7.20397 23.1963 8.00094 22.9904 7.8311 21.758C8.44501 22.6481 7.57756 23.8975 8.95789 24.0272L8.95669 24.0252C8.81452 24.9945 8.07166 25.2437 7.27493 25.4277L7.27565 25.428Z" fill="#D84F4F"/>
<path d="M10.3591 17.2961C11.4058 17.3654 11.9906 18.4645 13.1407 18.377C12.5242 19.6935 10.8838 17.6086 10.6367 19.485C10.3892 19.1366 10.2336 18.9177 10.0779 18.6988C9.54364 18.1689 11.101 18.1583 10.3567 17.5761C10.3579 17.483 10.3586 17.3894 10.3591 17.2961Z" fill="#E24A4A"/>
<path d="M41.4827 42.252C41.2828 41.9234 40.9513 41.9828 40.6451 41.9681C40.7969 41.5192 41.2481 40.9956 40.5943 40.6549C39.9164 40.3018 39.9799 41.0138 39.7651 41.3436C39.7026 41.4399 39.4204 41.3932 39.239 41.412C39.0148 40.7136 38.8681 40.041 39.8002 39.728C40.0201 39.6821 40.4211 39.6645 40.4336 39.5861C40.678 38.0261 41.7139 38.8608 42.4757 38.8906C42.7531 38.9015 43.0608 38.9085 43.1065 39.2734C43.1558 39.6677 42.7986 39.8899 42.5628 40.0023C41.5537 40.4829 41.5445 40.4507 42.1079 41.4632C42.227 41.6771 42.6667 41.8156 42.3975 42.1243C42.1784 42.3754 41.8519 42.692 41.4827 42.252Z" fill="#D24B4B"/>
<path d="M38.1242 39.1591C38.3155 38.6022 38.3049 38.0455 38.1228 37.4891C38.5166 37.4071 38.7733 37.2733 38.2662 36.963C38.0651 36.8401 37.602 36.9534 37.7468 36.5442C37.8618 36.2192 38.2303 36.1778 38.5758 36.3025C39.2106 36.5312 39.7384 36.9084 40.4557 36.1788C40.9523 35.6739 41.1272 36.6546 41.4805 36.9243C41.4803 37.0176 41.4817 37.1107 41.4844 37.2041C41.5813 37.2683 41.6121 37.3304 41.5775 37.3905C41.5436 37.4494 41.5096 37.479 41.4757 37.479C41.2647 37.4045 41.047 37.3448 40.844 37.2527C40.3028 37.0068 40.2486 37.001 40.2448 37.6501C40.2414 38.2065 39.6068 37.9433 39.519 38.3241C39.1194 38.7114 38.7665 39.1769 38.1242 39.1591Z" fill="#C84141"/>
<path d="M38.1243 39.1591C38.589 38.8808 39.054 38.6022 39.5188 38.3239C39.0832 39.1141 38.2049 39.7572 38.679 40.8498C38.4887 40.9419 38.2987 41.034 38.1084 41.1262C37.9941 40.6826 37.4856 40.6369 37.2701 40.2958C37.2653 39.704 37.6141 39.3778 38.1176 39.1678L38.1243 39.1591Z" fill="#DA5353"/>
<path d="M44.5446 42.2789C44.2958 42.8031 44.023 43.2811 43.4021 42.9929C43.3086 42.9494 43.2001 42.7449 43.2292 42.6602C43.4798 41.9368 44.1751 42.742 44.5446 42.2789Z" fill="#D34C4C"/>
<path d="M44.8411 39.1692C44.8962 39.2353 44.9088 39.3087 44.8782 39.3891C44.8149 39.6898 44.8154 40.0732 44.419 40.1069C44.1892 40.1264 44.0408 39.881 44.0504 39.6359C44.0718 39.0881 44.5041 39.2019 44.8411 39.1692Z" fill="#D54E4E"/>
<path d="M39.8007 39.7278C39.1613 40.1384 39.2183 40.781 39.2395 41.4117C38.9614 41.4199 38.9614 41.4199 38.959 40.8493C38.9383 40.2496 38.9068 39.6414 39.8007 39.7278Z" fill="#DA5353"/>
<path d="M41.476 37.4788C41.4791 37.3872 41.482 37.2955 41.4846 37.2039C41.7896 37.143 42.0949 37.0821 42.4885 37.0037C42.3201 37.715 41.9301 37.6705 41.476 37.4788Z" fill="#DA5353"/>
<path d="M6.15634 38.3292C6.80297 37.7708 7.61893 37.977 8.4965 37.7328C7.99806 38.7071 7.2694 38.8979 6.43249 38.8897C6.20925 38.7675 6.15971 38.5596 6.15634 38.3292Z" fill="#DC5454"/>
<path d="M16.8083 34.6811C17.0929 35.0571 16.6707 35.4304 16.8044 35.8057C16.6644 36.5745 16.16 37.162 15.8037 37.8233C15.7792 38.0853 15.6613 38.2904 15.4398 38.4333C15.0804 38.6008 14.7354 38.4237 14.3861 38.3946C14.1297 38.4338 13.931 38.5979 13.9961 38.8363C14.0912 39.1836 14.4643 38.9744 14.6954 39.0771C15.3086 39.7968 14.7096 39.9075 14.2028 40.0073C13.6057 40.1249 13.0195 39.8505 12.4183 39.8969C11.6483 39.9563 12.0635 40.353 12.1989 40.672C11.9798 41.6309 11.5258 42.2736 10.3998 42.0066C9.96822 41.9041 9.58885 42.1084 9.19265 42.212C8.92996 42.2854 8.66319 42.29 8.39473 42.251C8.30235 42.2512 8.20973 42.2513 8.11736 42.2517C7.65765 41.7646 7.88449 41.3075 8.20468 40.8818C8.41011 40.6087 8.60089 40.3607 8.39665 40.01C8.46617 39.6744 8.20493 39.1836 8.66728 39.04C9.07334 38.914 9.15946 39.3434 9.26507 39.6441C9.33603 39.8457 9.48181 39.9765 9.67498 39.8613C9.81282 39.779 9.96413 39.5996 9.97736 39.4516C10.0108 39.0771 9.57684 38.6647 10.0811 38.3268C10.3382 38.1911 10.616 38.3912 10.8766 38.277C11.7447 38.6188 12.3781 38.7299 12.4125 37.4093C12.4474 36.0737 13.2581 35.7865 14.5379 36.5832C14.5648 36.1338 14.279 35.804 14.2134 35.421C14.5345 34.7465 15.0481 35.2969 15.4032 35.2373C15.1338 34.9623 14.1691 35.34 14.5701 34.338C15.2076 34.2002 15.8314 34.3065 16.4547 34.436C16.5826 34.5023 16.7003 34.5849 16.8083 34.6811Z" fill="#E05959"/>
<path d="M16.8083 34.6811C16.7145 34.6809 16.6204 34.6804 16.5266 34.6801C15.9971 34.1495 14.7489 34.5895 14.7354 33.3619C14.7108 33.0977 14.6204 33.0039 14.4017 33.2433C13.9993 33.766 13.7274 34.4369 12.9346 34.4932C12.6887 34.4394 12.4267 34.27 12.2049 34.4759C12.1515 34.5257 12.3892 34.7201 12.3926 34.8971C11.8571 35.4644 12.8617 36.0497 12.3712 36.615C12.2747 36.698 12.1614 36.7439 12.0358 36.7603C11.6168 36.7052 11.1963 36.8801 10.7758 36.7617C10.7298 36.7225 10.6839 36.6828 10.6382 36.6429C10.4229 36.1839 11.5345 35.6797 10.75 35.411C10.2564 35.2419 9.23091 34.7903 8.97495 35.9691C8.91457 36.2467 8.90471 36.5774 8.50009 36.3838C8.16114 36.2217 7.61338 36.0867 8.11567 35.5219C8.27612 35.3528 8.30259 35.065 8.49817 34.9553C9.37476 34.4634 10.0151 33.7869 10.3057 32.8071C10.5552 32.7222 10.8006 32.7237 11.0387 32.8454C11.1335 32.9281 11.2506 33.0001 11.2109 33.1581C11.3382 33.0191 11.1147 32.971 11.1337 32.8512C12.5203 32.353 12.5405 30.7855 13.4431 29.9144C13.7731 31.7047 14.9909 31.3299 16.4703 30.823C15.6163 31.9346 15.2663 32.7783 16.4535 33.524C16.7905 33.7355 16.8417 34.2457 16.8083 34.6811Z" fill="#DA5151"/>
<path d="M10.3558 32.996C10.7313 34.8329 8.84072 34.6604 8.11615 35.5219C8.0524 35.2541 7.99684 34.8901 7.62229 35.1995C7.29513 35.4699 7.03701 35.6515 6.71201 35.2402C6.22656 35.067 5.77479 34.7833 5.27081 35.2998C4.97757 35.6 4.53471 35.5904 4.19047 35.2438C4.09689 34.963 4.00355 34.6823 3.90997 34.4016C4.35164 34.2811 4.40168 33.7742 4.74447 33.5562C5.1794 33.4954 5.63093 33.4684 5.86788 33.0046C6.33745 33.1244 6.80679 33.1331 7.2754 32.9981C7.63936 33.3607 7.54458 33.7795 7.48517 34.1937C7.73415 33.7562 7.6016 33.3655 7.27468 32.9991C7.36825 32.5315 7.4616 32.0641 7.55517 31.5964C7.82364 31.3294 8.12216 31.3624 8.44067 31.4949C8.89653 31.6847 9.10364 32.5416 9.92804 31.8367C10.1917 31.6118 10.7698 32.358 10.3558 32.996Z" fill="#E55D5D"/>
<path d="M4.19047 35.2438C4.50127 35.1993 5.02568 35.2462 5.08991 35.0961C5.81567 33.4001 6.21718 34.7713 6.71201 35.2402C6.66173 35.3547 6.54746 35.4858 6.57199 35.5808C6.68602 36.0191 7.9261 35.6753 7.33577 36.4071C7.08198 36.7215 6.02688 37.4569 5.39132 36.5608C5.03554 36.0593 3.59316 36.5582 4.19047 35.2438Z" fill="#F06868"/>
<path d="M8.39641 40.0095C8.91554 40.284 9.12098 40.6523 8.54653 41.0343C8.0594 41.3583 8.12195 41.7986 8.11714 42.2513C7.67138 42.678 7.6122 42.3261 7.55399 41.972C7.57179 41.2049 7.80127 40.5286 8.39641 40.0095Z" fill="#EF6868"/>
<path d="M10.6401 38.3246C10.4546 38.6381 10.2672 38.3491 10.0808 38.3265C10.1301 37.7203 9.86623 37.0102 10.6382 36.6431L10.6442 36.6479C11.6815 37.5798 11.6813 37.7037 10.6401 38.3246Z" fill="#DA5151"/>
<path d="M16.5006 23.1778C16.5083 23.0926 16.5153 23.0077 16.5213 22.9226C17.6599 24.2991 17.6599 24.2991 21.1867 24.9899C20.454 26.3729 19.4689 27.6611 19.6457 29.3402C19.3536 29.2871 18.8487 29.3648 19.0347 28.8769C19.1646 28.536 19.3611 28.2789 18.9505 28.0939C18.5333 27.9058 18.465 28.2103 18.3255 28.5601C18.0099 29.3515 17.071 29.0946 16.4787 29.479C16.3233 29.5798 16.2781 29.0535 16.2475 28.792C16.312 28.7261 16.3849 28.6719 16.4609 28.6217C16.6211 28.5158 16.8085 28.5226 16.9844 28.4807C16.9954 28.4781 16.9182 28.3823 16.8145 28.3441C16.5807 28.2579 16.4876 28.3951 16.4097 28.574C16.3734 28.6577 16.3156 28.7292 16.2483 28.793C15.2006 28.9544 15.3202 30.1728 14.5992 30.6828C14.2961 29.7355 14.0111 28.8452 13.726 27.9548C13.6743 27.7109 13.3445 27.4595 13.6615 27.2223C14.0883 26.9031 14.2454 27.5543 14.605 27.5432C14.4667 26.5389 14.3043 26.3662 13.56 26.8831C12.5189 27.6063 12.5299 27.0809 12.6031 26.2688C12.8487 25.5276 13.6413 26.1535 14.005 25.7075C14.1754 25.5124 14.3979 25.4788 14.6346 25.5192C15.0993 25.5983 15.5776 25.3383 16.0346 25.5793C16.0806 24.9854 16.4388 24.4422 16.3053 23.8148C16.2564 23.5851 16.3248 23.3563 16.5006 23.1778Z" fill="#DE4E4F"/>
<path d="M10.3558 32.996C10.3425 32.5897 10.3897 31.9986 9.87369 32.0268C9.07936 32.0703 9.98507 32.8033 9.52728 33.1213C8.75485 32.7886 8.77794 31.3455 7.55518 31.5966C7.55518 31.5031 7.55518 31.4095 7.55518 31.3159C7.90543 30.6799 8.63335 30.7499 9.17389 30.4754C9.99059 30.0604 10.0154 30.1088 10.0774 28.9861C10.0794 28.9524 10.0628 28.8976 10.0774 28.8879C10.6529 28.5172 11.3841 28.7775 12.0048 28.2894C12.3803 27.994 12.6127 28.625 12.6031 29.0739C11.9367 29.1246 11.8547 29.7013 12.0156 30.0631C12.2391 30.5663 12.5971 30.1145 12.9011 29.9661C13.0539 29.8915 13.261 29.9284 13.4436 29.9146C13.0714 31.2153 12.9957 32.7321 11.1984 32.9931L11.1963 32.9962C10.916 32.9962 10.6358 32.9962 10.3558 32.996Z" fill="#DC5555"/>
<path d="M7.27493 25.4278C7.83567 24.9604 8.39618 24.4927 8.95669 24.0253C9.22515 24.1314 9.41135 24.3197 9.51791 24.5872C9.52249 24.9608 9.90184 25.3327 9.52272 25.7083C8.89413 26.0147 9.27302 27.3315 8.11737 27.1095C7.74571 26.5923 8.08153 26.2026 8.34542 25.8066C8.38175 25.7475 8.43299 25.6897 8.49193 25.639C8.42794 25.6046 8.37332 25.6327 8.32425 25.7313C8.02091 26.072 8.01369 26.6094 7.55543 26.8305C7.25256 26.8122 6.94994 26.7937 6.62711 26.7742C6.70312 26.204 7.3471 25.9904 7.27493 25.4278Z" fill="#CC4444"/>
<path d="M9.52296 25.708C9.88885 25.3327 8.80801 24.9637 9.51814 24.587C9.94417 24.9365 10.8951 24.4097 10.9208 25.4275C10.5129 25.8107 9.95163 25.4292 9.52296 25.708Z" fill="#DE4A4A"/>
<path d="M8.68076 25.7116C8.65358 26.2423 7.93142 26.4929 8.11761 27.1095C7.93021 27.0164 7.74306 26.9235 7.55566 26.8304C7.97424 26.4446 7.53907 25.5511 8.39234 25.4239C8.55303 25.4552 8.64997 25.5499 8.68076 25.7116Z" fill="#D44D4D"/>
<path d="M11.445 26.7871C11.255 26.79 11.0462 26.7813 11.0772 26.5259C11.088 26.4378 11.2502 26.3291 11.3611 26.3014C11.528 26.2598 11.7712 26.2449 11.8109 26.4561C11.8511 26.6719 11.6245 26.7356 11.445 26.7871Z" fill="#DE4A4A"/>
<path d="M36.9917 34.6758C36.9001 34.678 36.8082 34.6796 36.7165 34.6811C36.813 34.2613 36.0644 34.0496 36.4403 33.5608C36.5529 32.9127 37.1134 32.5971 37.4899 32.1441C38.1428 32.2536 38.1729 31.6806 38.3947 31.3176L38.4024 31.3142C38.6756 31.0621 39.0564 31.0164 39.2176 31.308C39.6367 32.0652 39.9836 31.4701 40.361 31.3181C40.8647 31.4249 41.2164 31.7354 41.4854 32.1569C41.5828 33.2849 40.5455 33.148 39.9155 33.4191C40.1002 34.072 40.864 33.6412 41.0119 34.2483C40.712 34.3862 40.3944 34.5322 40.0767 34.6782C39.831 34.4853 39.4404 34.7299 39.24 34.4008C39.1334 34.1333 38.9472 33.9457 38.6785 33.8406C38.6773 33.8379 38.6785 33.8384 38.68 33.8399C38.5587 34.066 38.3492 34.1167 38.1171 34.122C37.6229 34.0648 37.3319 34.4201 36.9917 34.6758Z" fill="#CE4747"/>
<path d="M36.9917 34.6758C37.1603 34.072 37.2084 33.2233 38.117 34.1216C38.1182 34.4723 37.9039 34.7054 37.7023 34.9659C36.7752 36.1636 36.8606 36.6395 38.1127 37.4826C37.747 37.6963 37.3542 37.7968 36.9301 37.7716C36.6344 37.754 36.2859 38.0785 36.0518 37.7023C35.8028 37.3017 36.2726 37.1673 36.4225 36.9212C36.8452 36.2272 36.3965 35.3195 36.9917 34.6758Z" fill="#E45D5D"/>
<path d="M39.24 34.4006C39.5453 34.4134 39.877 34.347 40.0767 34.678C39.8501 34.8327 39.641 35.0302 39.3928 35.1322C39.0533 35.2717 38.5876 35.3888 38.487 34.8988C38.3682 34.3191 38.9085 34.4557 39.24 34.4006Z" fill="#C23B3B"/>
<path d="M8.95597 41.9712C9.32643 41.7701 9.74138 41.564 10.1373 41.7138C11.2954 42.1521 11.6642 41.3742 12.0409 40.5678C12.4044 39.8909 13.0301 40.0201 13.223 40.4993C13.4996 41.1865 14.1403 41.474 14.4785 42.0465C14.5098 42.5072 14.2906 42.8019 13.8723 42.9648C13.4537 43.0528 13.0089 42.8911 12.5997 43.0915C12.3221 43.1839 12.0445 43.2763 11.7671 43.3686C11.6745 43.2748 11.5819 43.181 11.4895 43.0872C11.5557 42.7954 11.9052 42.5512 11.638 42.2036C11.0623 42.6669 10.3271 42.0634 9.73994 42.4906C9.50708 42.66 9.45609 43.3306 8.94538 42.8041C8.72864 42.5236 8.72912 42.246 8.95597 41.9712Z" fill="#D85050"/>
<path d="M8.95595 41.9713C8.95258 42.2489 8.9492 42.5265 8.9456 42.8041C8.57898 42.8017 8.40578 42.6068 8.39447 42.2508C8.51716 42.0283 8.72549 41.9773 8.95595 41.9713Z" fill="#EF6868"/>
<path d="M15.6885 37.7687C15.6433 37.7617 15.5966 37.7588 15.5528 37.7468C15.2969 37.6765 15.1889 37.2839 15.2829 37.3008C16.5394 37.5267 15.6666 35.6318 16.8045 35.8055C16.9918 35.9917 17.1795 36.1779 17.3669 36.364C18.0359 36.8697 18.4783 37.6433 19.4302 37.8281C19.8381 37.9072 19.8449 38.4771 19.6096 38.8899C19.6106 39.0747 19.6113 39.2594 19.6123 39.4442C19.0417 39.4709 19.0494 39.8815 19.0515 40.2885C18.7251 40.5582 19.1458 40.8437 19.0337 41.118C18.8126 41.1353 18.6089 41.1853 18.4908 41.3999L18.351 41.4047L18.211 41.4042C17.9919 41.2553 17.764 41.1132 17.7513 40.806C17.8687 40.1334 17.8141 39.5601 17.0734 39.2272C16.4285 38.9373 16.0243 38.3749 15.6885 37.7687Z" fill="#EB6464"/>
<path d="M19.6096 38.8904C19.4201 38.4189 19.5225 37.6888 18.5954 37.9176C18.3231 37.9847 17.6611 37.042 17.3669 36.3645C17.6034 36.3583 17.815 36.3032 17.938 36.0735C18.3077 36.3585 18.6775 36.6436 19.047 36.9286C19.3491 37.6712 19.7994 37.2621 20.2928 37.0776C19.7609 37.5969 20.9478 38.6693 19.6096 38.8904Z" fill="#D34B4B"/>
<path d="M22.3363 37.7571C22.269 38.1389 22.02 38.308 21.6585 38.2861C21.3573 38.2678 21.1247 38.0961 21.1189 37.7749C21.1131 37.4528 21.3424 37.2775 21.6419 37.2472C22.0061 37.2103 22.2546 37.378 22.3363 37.7571Z" fill="#CD4646"/>
<path d="M39.7985 47.8604C39.7516 47.5967 39.8 47.2236 39.6426 47.087C38.4358 46.0374 39.221 45.4076 40.0802 44.7752C40.3564 44.8702 40.6323 44.9652 40.9082 45.0603C40.9922 45.5753 40.7521 45.9479 40.405 46.296C40.2118 46.4896 40.0001 46.7624 40.405 46.9537C40.6956 47.0911 41.2359 46.9578 40.8144 47.5991C40.5137 48.0569 40.2318 48.1365 39.7985 47.8604Z" fill="#D95353"/>
<path d="M39.8015 29.3534C40.3316 28.6209 39.1866 28.7268 39.2407 28.2324C39.6143 28.0453 39.9879 27.8581 40.3615 27.671C40.8262 27.6577 41.2525 28.1855 41.7557 27.423C42.2277 26.7078 43.2263 27.0939 44.0071 27.11C43.7269 27.5769 43.4466 28.0438 43.1664 28.5105C42.3718 28.9936 41.5991 29.5257 40.6381 29.6342C40.272 29.8014 39.8941 30.0029 39.8015 29.3534Z" fill="#CB4646"/>
<path d="M40.361 31.3178C40.0668 31.6373 40.2431 32.3128 39.6756 32.3859C38.9386 32.4809 39.2878 31.7338 39.0355 31.4562C38.9164 31.3253 38.6188 31.3566 38.4023 31.3142C38.4031 30.945 38.4035 30.5757 38.4043 30.2062C38.7245 29.9993 39.0292 30.1518 39.3376 30.2433C39.6001 30.4206 39.8878 30.5699 40.0509 30.8625C40.1541 31.0142 40.2575 31.166 40.361 31.3178Z" fill="#BE3A3A"/>
<path d="M39.2578 30.4648C38.9732 30.3784 38.6884 30.2923 38.4038 30.2062C38.0182 29.9072 37.9328 29.4913 37.9304 28.9084C38.5765 29.0852 39.1536 29.4246 39.8012 29.3537C40.0006 29.6847 40.3335 29.6171 40.6381 29.6344C40.5443 29.7349 40.4505 29.8355 40.3566 29.9358C39.984 30.0987 39.5469 30.128 39.2578 30.4648Z" fill="#D64D4D"/>
<path d="M12.5997 43.0915C12.7734 42.1889 13.2836 42.6417 13.7241 42.8122C14.326 42.977 14.6421 43.284 14.2805 43.9289L14.2776 43.9299C13.2947 44.4983 13.0851 43.5188 12.5997 43.0915Z" fill="#EC6767"/>
<path d="M33.9118 45.3364C34.0206 45.0711 34.2036 44.8801 34.4719 44.774C34.5638 44.7755 34.6557 44.7762 34.7475 44.7759C34.7377 45.4067 34.7187 46.0391 35.2859 46.7418C34.5999 46.7418 34.1146 46.7418 33.6297 46.7418C32.6246 46.0526 34.3718 45.9162 33.9118 45.3364Z" fill="#CA4343"/>
<path d="M14.2848 41.971C13.9235 41.6393 12.866 42.1173 13.2076 40.8885C13.3267 40.4605 12.5793 40.2173 12.0409 40.5678C11.7043 40.3434 11.2771 40.1897 11.3344 39.659C11.795 40.0268 12.0808 39.2765 12.6112 39.5C13.1378 39.7218 13.7857 39.6944 14.3808 39.6994C14.7501 39.7025 14.8626 39.4706 14.5781 39.1613C14.0409 38.9041 13.9312 38.5373 14.2928 38.0494C14.6654 38.1406 15.0378 38.2315 15.4104 38.3224C16.4874 38.6441 16.5434 38.8459 15.8355 39.8433C14.7046 40.3677 16.0592 41.099 15.6849 41.6852C15.5927 41.781 15.5006 41.8767 15.4085 41.9727C15.0335 42.2193 14.6587 42.2799 14.2848 41.971Z" fill="#EB6464"/>
<path d="M15.6846 41.6854C14.5456 40.5656 14.5454 40.3508 15.683 39.7285C17.2059 38.8074 17.4939 38.951 17.9293 40.8485C18.0231 41.0338 18.1172 41.2192 18.211 41.4045C17.4066 41.8379 16.453 40.9298 15.6846 41.6854Z" fill="#E45C5C"/>
<path d="M14.2848 41.971C14.6594 41.9717 15.0337 41.9722 15.4082 41.9729C15.0322 42.6251 14.6565 43.277 14.2805 43.9289C14.3998 43.4048 14.0224 43.1283 13.7241 42.8122C14.0989 42.6571 14.2853 42.3764 14.2848 41.971Z" fill="#E05B5B"/>
<path d="M5.86814 33.0049C5.95282 33.2452 6.14526 33.5093 5.80944 33.6967C5.43104 33.9082 5.05576 33.9337 4.74472 33.5565C4.96363 33.0561 5.38727 32.9722 5.86814 33.0049Z" fill="#F06969"/>
<path d="M43.7262 25.7085C44.3134 24.9411 44.6307 25.2606 44.847 25.9868C44.567 26.1744 44.2867 26.3623 44.0067 26.55C43.9018 26.2731 44.469 25.7725 43.7262 25.7085Z" fill="#DC5555"/>
<path d="M17.9298 18.9786C17.9298 18.8853 17.9298 18.7917 17.9298 18.6981C18.1446 18.3849 18.3909 18.5617 18.6604 18.6151C19.0279 18.688 19.4821 19.0866 19.7693 18.5595C19.9926 18.1501 20.0628 17.5624 19.7602 17.235C19.0019 16.4147 19.5584 15.5299 19.3317 14.4551C19.9206 14.8188 19.8901 16.1357 20.7621 15.1903C20.7633 15.1891 20.9493 15.3096 20.9418 15.356C20.7527 16.5446 21.8947 16.3185 22.4133 16.7498C20.2959 16.5364 19.7318 17.1008 20.2384 19.2533C20.479 20.2755 20.3267 20.5634 19.2928 20.4944C18.7546 20.4585 18.2023 20.637 17.6565 20.7188C17.6892 19.8331 18.5567 20.0758 19.0048 19.721C18.6596 19.4491 18.1374 19.4352 17.9298 18.9786Z" fill="#E24E4E"/>
<path d="M32.5098 25.7075C32.2188 25.5935 31.9974 25.4788 31.6287 25.6991C30.8661 26.1552 30.3915 25.6178 29.9837 24.7285C29.7439 25.4975 30.2856 26.2981 29.4119 26.5509C29.4174 25.8848 29.358 25.2305 29.0556 24.6212C29.404 24.2026 29.7381 23.7775 29.7054 23.1865C30.3585 22.905 30.2642 22.3243 30.2673 21.7828C30.4588 21.9582 31.2445 21.1869 30.9197 22.2043C30.7826 22.6337 30.684 23.1006 31.1093 23.4658C31.4829 23.733 31.8567 23.8126 32.2303 23.4655C32.2293 23.1867 32.2284 22.9079 32.2277 22.6291C33.187 22.5086 33.5399 22.8153 32.9188 23.6986C33.4074 24.0116 33.577 23.2481 33.9659 23.5322C34.1079 23.6358 34.2789 23.7564 34.3342 23.9069C34.4054 24.1006 34.2659 24.2673 34.0482 24.2745C33.1134 24.3058 32.9683 25.173 32.5098 25.7075Z" fill="#E05252"/>
<path d="M23.7373 21.6254C22.2423 21.2304 21.4104 20.3166 21.2699 18.8051C21.2377 18.4573 21.0438 18.0007 21.4511 17.7989C21.8148 17.6187 22.1619 17.9302 22.4528 18.146C23.613 19.0065 23.9935 20.1689 23.7373 21.6254Z" fill="#E05353"/>
<path d="M26.2038 22.6625C25.912 22.5054 25.3012 22.8552 25.2967 22.1629C25.2914 21.3445 26.9399 19.848 27.8199 19.8318C28.2281 19.8246 28.5486 19.8742 28.551 20.4118C28.5551 21.3851 27.2851 22.6358 26.2038 22.6625Z" fill="#E25858"/>
<path d="M23.7997 25.4749C23.5382 26.8644 23.1591 27.8896 22.2283 28.619C21.9589 28.8302 21.6507 28.9522 21.3284 28.7908C20.8622 28.5574 21.2286 28.224 21.2909 27.958C21.5286 26.9418 22.2339 26.1708 22.754 25.3039C22.905 25.0522 23.0592 24.5855 23.4191 24.7626C23.7313 24.9166 23.8153 25.3623 23.7997 25.4749Z" fill="#DB5454"/>
<path d="M20.5418 23.4843C19.886 23.509 19.1145 23.3469 18.407 22.9644C18.2281 22.8677 18.0748 22.636 18.0133 22.4347C17.9543 22.242 18.1465 22.0825 18.3428 22.0743C19.4874 22.0272 20.6755 21.6866 21.7258 22.4138C21.996 22.6009 22.4576 22.8304 22.274 23.2709C22.1278 23.6216 21.6989 23.4479 21.3926 23.4797C21.1617 23.5035 20.9267 23.4843 20.5418 23.4843Z" fill="#E05353"/>
<path d="M24.9368 24.3414C26.2384 24.2841 27.1018 24.8401 27.7831 25.6919C28.0847 26.0691 28.1434 26.6024 27.7398 26.9572C27.352 27.2981 26.9568 27.0292 26.6354 26.7383C25.9452 26.1141 25.3847 25.3931 24.9368 24.3414Z" fill="#DF5B5B"/>
<path d="M17.9298 18.9786C18.5511 19.249 19.7323 19.1742 19.7368 19.6724C19.7441 20.4547 18.573 19.9435 18.063 20.3854C17.9305 20.5001 17.7922 20.6081 17.6563 20.7193C17.4766 20.8208 17.2971 20.9221 17.1174 21.0236C17.4744 20.376 17.3647 19.5432 17.9298 18.9786Z" fill="#E24A4A"/>
<path d="M29.7052 23.1865C30.6715 24.2002 29.8322 24.3965 29.0557 24.6212C28.7963 24.3484 28.537 24.0756 28.2777 23.8028C28.5317 23.084 29.2325 23.3989 29.7052 23.1865Z" fill="#D64D4D"/>
<path d="M29.3787 26.7414C29.4129 27.4037 30.4271 28.606 28.5627 28.2216C29.0085 27.8242 29.1016 27.2322 29.3787 26.7414Z" fill="#E05252"/>
<path d="M43.7221 25.9459C43.6922 26.2216 43.6449 26.4576 43.3552 26.4859C43.0776 26.5131 42.9205 26.3568 42.9484 26.0792C42.9773 25.791 43.2135 25.7544 43.4498 25.7145C43.6889 25.6743 43.7914 25.7315 43.7221 25.9459Z" fill="#DC5555"/>
<path d="M38.1182 23.4648C38.2419 22.7833 38.5787 22.8379 39.1019 23.2168C38.7918 23.5745 38.4269 23.4227 38.1182 23.4648Z" fill="#DC5555"/>
<path d="M33.9523 25.1698C34.4014 25.5959 35.0204 25.5757 34.8926 26.2136C34.8616 26.369 34.6357 26.6329 34.6018 26.6178C34.0939 26.3912 33.9744 25.9406 33.9523 25.1698Z" fill="#D54949"/>
<path d="M32.2301 23.4655C32.6513 24.1095 32.0785 24.013 31.7821 24.0089C31.4622 24.0043 30.8151 24.2764 31.1093 23.4657C31.4826 23.2083 31.8562 23.2117 32.2301 23.4655Z" fill="#D64D4D"/>
<path d="M16.7619 32.0477C16.5769 31.3438 17.147 31.0997 17.5098 30.8062C17.3859 30.3051 16.7241 30.6592 16.6693 30.0118C17.5016 30.2567 18.8473 29.262 18.9791 30.8042C19.1054 32.2866 17.6887 31.933 16.7619 32.0477Z" fill="#DC4F4F"/>
<path d="M18.497 34.6857C17.6972 34.7641 17.498 34.2094 17.3452 33.5991C17.2608 33.2616 16.9488 32.8288 17.4241 32.6366C18.0368 32.3888 17.8485 33.0145 17.9753 33.288C18.1853 33.7408 18.8574 34.0222 18.4949 34.6876L18.497 34.6857Z" fill="#DC4F4F"/>
<path d="M21.0135 32.9984C20.9993 32.6708 20.3481 32.5153 20.8506 31.9532C21.0299 32.3313 21.4934 32.5375 21.0149 32.9991L21.0135 32.9984Z" fill="#CC4545"/>
<path d="M34.182 27.1388C34.0396 27.5127 34.9421 28.3248 33.6787 28.3178C33.1603 28.3149 33.5686 29.2695 32.8916 29.3106C32.5416 29.123 33.2871 28.7145 32.7788 28.5706C32.1872 28.4032 32.2038 29.2728 31.6467 29.2442C31.5161 28.7068 31.7896 28.2726 32.0266 27.8434C32.1057 27.6998 32.2967 27.618 32.4365 27.5078C33.3826 28.9704 33.5062 26.7965 34.182 27.1388Z" fill="#D64D4D"/>
<path d="M35.8796 31.5988C36.762 31.4066 36.4377 30.7366 36.436 30.1942C36.8394 30.1959 37.1199 30.3825 37.2772 30.754C37.5027 31.0421 37.7714 31.3169 37.5787 31.7342C37.3504 32.0369 37.0543 32.2649 36.7095 32.4023C35.8649 32.7386 35.5445 32.4983 35.8796 31.5988Z" fill="#D64D4D"/>
<path d="M29.1564 30.6707C28.8649 30.3387 29.786 29.9178 29.0667 29.6546C28.5904 29.4802 28.5796 29.2803 29.0017 29.0214C29.3462 28.81 29.5928 28.8603 29.7828 29.2447C30.1461 29.9796 30.0251 30.4759 29.1564 30.6707Z" fill="#E05252"/>
<path d="M37.5546 31.6031C37.4622 31.3202 37.3696 31.0371 37.277 30.7542C37.6494 30.9421 38.022 31.1297 38.3944 31.3176C38.3068 31.6873 38.8911 32.0681 38.3588 32.4384C37.9361 32.7323 37.8153 32.2815 37.564 32.1521C37.3802 31.9722 37.4023 31.7888 37.5546 31.6031Z" fill="#D75050"/>
<path d="M37.5546 31.6031C37.5578 31.7862 37.5609 31.9693 37.564 32.1523C37.7132 33.0397 36.7355 33.0282 36.4399 33.5608C35.2404 33.9267 34.6763 33.1506 34.0898 32.1663C34.8565 32.3693 35.5996 32.5596 35.8794 31.5988C35.9679 31.8911 35.6833 32.5829 36.4659 32.1235C36.8115 31.9207 37.1907 31.7749 37.5546 31.6031Z" fill="#C63F3F"/>
<path d="M34.1906 35.2426C34.0977 35.148 34.0047 35.0535 33.9116 34.9589C34.9022 33.8928 35.1728 34.9457 35.6017 35.5332C35.39 35.8483 35.0612 35.7954 34.7518 35.8045C34.1536 36.0282 33.9739 35.8334 34.1906 35.2426Z" fill="#C94242"/>
<path d="M38.1175 39.1678C37.8351 39.5438 37.5527 39.9195 37.27 40.2955C36.8356 40.3359 36.7256 39.8998 36.4358 39.7278C36.1314 39.1844 35.3823 38.5543 36.7081 38.3277C36.7747 38.3871 36.7983 38.448 36.7785 38.5106C36.7588 38.5736 36.7384 38.6051 36.717 38.6051C36.8286 39.6763 37.7588 38.7114 38.1175 39.1678Z" fill="#DE5757"/>
<path d="M34.1906 35.2426C34.2053 35.6022 34.3893 35.7925 34.7521 35.8045C34.3386 36.1562 33.7956 36.3152 33.5245 35.8163C33.3104 35.422 33.8336 35.2962 34.1906 35.2426Z" fill="#DE5757"/>
<path d="M36.7172 38.6049C36.7165 38.5125 36.7134 38.4199 36.7083 38.3277C36.8505 38.1038 37.0352 38.0465 37.2553 38.2084C37.4204 38.3297 37.4752 38.4954 37.3165 38.6539C37.1091 38.861 36.9142 38.6643 36.7172 38.6049Z" fill="#C84141"/>
<path d="M16.5006 23.1778C17.2158 24.2651 15.8432 25.3657 16.5718 26.4973C15.7753 25.892 14.8653 25.8841 14.005 25.7075C13.8179 25.2406 13.6307 24.7734 13.4436 24.3065C14.249 24.1008 13.7392 22.9584 14.6187 22.6774C14.8881 23.3743 14.2083 24.1376 14.916 24.8617C15.1338 24.3481 15.5177 23.8817 15.4518 23.4912C15.3611 22.9536 14.9293 22.3563 15.6945 22.1417C16.4814 21.9213 16.044 22.962 16.5006 23.1778Z" fill="#D94646"/>
<path d="M13.7048 19.9502C13.4563 20.3904 12.8167 20.6139 12.6502 21.2052C12.6413 21.2369 12.1595 21.2167 12.2475 20.8528C12.383 20.292 12.2543 19.5646 12.9817 19.3288C13.3356 19.2138 13.5776 19.496 13.7048 19.9502Z" fill="#E24A4A"/>
<path d="M12.8015 23.9555C12.8672 23.873 12.9526 23.6553 13.0842 23.6223C13.3943 23.5449 13.4005 23.8155 13.4404 24.0363C13.4833 24.2738 13.4094 24.3539 13.1739 24.3029C13.0091 24.2673 12.7984 24.3072 12.8015 23.9555Z" fill="#D94646"/>
<path d="M10.6401 38.3246C11.6067 37.768 10.8251 37.2072 10.6442 36.6479C11.1104 36.7069 11.5744 36.0386 12.0414 36.6441C12.4424 36.3078 12.3144 36.0665 11.9617 35.755C11.298 35.1685 11.8046 35.0395 12.3281 34.9529C12.4549 34.7093 12.56 34.4432 12.8869 34.4028C13.5177 34.104 13.8143 33.474 14.2725 33.0042C14.6036 32.9472 14.8932 33.0203 15.1253 33.2748C14.8227 33.8647 15.3067 33.9565 15.6656 34.0682C16.0313 34.1819 16.5069 34.0944 16.5266 34.6799C15.861 34.6648 15.1771 34.7819 14.561 34.4081C14.1475 34.6975 14.0289 35.0605 14.2834 35.5171C15.0058 36.2921 15.0058 36.2921 14.6271 37.3773C14.26 36.8507 14.0433 35.9984 13.2158 36.4358C12.4955 36.8163 12.5566 37.3913 12.9413 38.0865C13.1414 38.4483 12.7015 38.6277 12.2944 38.7444C11.6233 38.9366 10.9649 39.3881 10.6401 38.3246Z" fill="#D14A4A"/>
<path d="M17.9293 40.8486C17.2714 40.7049 17.2726 40.7054 17.4641 40.1598C17.6539 39.6193 17.256 39.48 16.8951 39.4819C16.4908 39.4841 16.0871 39.6395 15.683 39.7283C16.2095 39.1399 16.1578 38.6638 15.4102 38.3224C15.503 38.1377 15.5956 37.9529 15.6885 37.7684C16.5155 38.1601 17.033 38.9546 17.8781 39.3677C18.4912 39.6677 18.1848 40.3366 17.9293 40.8486Z" fill="#D64F4F"/>
<path d="M14.2834 35.517C13.9428 35.3049 13.4607 35.0994 13.5978 34.6407C13.7248 34.2156 14.2244 34.4557 14.561 34.4081C14.6959 35.3347 15.5636 34.7285 15.9743 35.0713C15.7048 36.3759 14.6943 34.7809 14.2834 35.517Z" fill="#E96262"/>
<path d="M14.2928 38.0496C14.2439 38.4571 14.3736 38.8189 14.5781 39.1615C14.1912 39.5264 13.6945 39.6756 13.5456 39.0766C13.465 38.753 13.438 37.9443 14.2928 38.0496Z" fill="#D14949"/>
<path d="M12.8869 34.4025C12.7789 34.6654 12.5985 34.855 12.3281 34.9527C12.1419 34.5266 11.496 34.8779 11.2985 34.2536C11.8667 34.2844 12.3885 33.6484 12.8869 34.4025Z" fill="#E76060"/>
<path d="M15.1253 33.2748C14.8141 33.2697 14.4816 33.3313 14.2728 33.0039C14.3204 32.7205 14.4015 32.4304 14.765 32.4995C15.2025 32.5827 15.0917 32.9741 15.1253 33.2748Z" fill="#E95F60"/>
<path d="M11.1982 32.9931C11.4575 33.1528 11.8054 33.1987 12.0223 33.8451C11.4794 33.6192 10.9295 33.836 11.196 32.9964L11.1982 32.9931Z" fill="#C74040"/>
<path d="M7.27491 32.9993C7.916 33.1908 8.3329 33.829 8.19603 34.2724C7.96581 35.0186 7.13972 34.2401 6.58932 34.6416C6.93308 34.0694 7.48324 33.6893 7.2754 32.9984L7.27491 32.9993Z" fill="#DA5252"/>
<path d="M5.90445 36.3102C5.79235 36.1783 5.66918 36.0978 5.65907 36.0047C5.64729 35.8966 5.70743 35.7066 5.78417 35.6775C5.99009 35.5988 6.10964 35.7511 6.10387 35.9426C6.10074 36.0465 5.99706 36.1476 5.90445 36.3102Z" fill="#E86060"/>
<path d="M16.2483 28.7927C16.2247 28.4763 16.2009 28.1602 16.1677 27.7159C16.7111 27.9642 17.198 28.3012 17.988 27.9382C17.535 29.0169 16.8174 28.7248 16.2476 28.7917L16.2483 28.7927Z" fill="#D14545"/>
<path d="M8.68074 25.7116C8.58475 25.6159 8.48853 25.5199 8.39255 25.4239C8.42839 25.2639 8.40266 24.9719 8.65597 25.0852C8.96533 25.2235 8.99298 25.4886 8.68074 25.7116Z" fill="#D75050"/>
<path d="M38.6797 33.8394C38.3889 33.5952 38.2951 33.3301 38.6576 33.0845C38.7389 33.0294 38.9694 33.0503 39.0209 33.1191C39.3425 33.549 38.7213 33.5611 38.6785 33.8401L38.6797 33.8394Z" fill="#DA5353"/>
<path d="M18.3488 38.3629C18.555 38.3735 18.714 38.4714 18.7246 38.6792C18.7291 38.7709 18.6094 38.8688 18.5458 38.9638C18.4102 38.8498 18.2362 38.7588 18.1492 38.6155C18.0561 38.4622 18.1997 38.3848 18.3488 38.3629Z" fill="#D34B4B"/>
<path d="M12.0409 36.6433C12.1248 36.8822 12.3077 37.1353 11.9892 37.3352C11.8224 37.4398 11.6197 37.4278 11.5865 37.2111C11.5379 36.8942 11.8083 36.7694 12.0416 36.6438L12.0409 36.6433Z" fill="#DA5151"/>
</g>
<defs>
<filter id="filter0_n_2341_3399" x="0" y="0" width="50.4895" height="48.545" filterUnits="userSpaceOnUse" color-interpolation-filters="sRGB">
<feFlood flood-opacity="0" result="BackgroundImageFix"/>
<feBlend mode="normal" in="SourceGraphic" in2="BackgroundImageFix" result="shape"/>
<feTurbulence type="fractalNoise" baseFrequency="1 1" stitchTiles="stitch" numOctaves="3" result="noise" seed="1315" />
<feColorMatrix in="noise" type="luminanceToAlpha" result="alphaNoise" />
<feComponentTransfer in="alphaNoise" result="coloredNoise1">
<feFuncA type="discrete" tableValues="0 0 0 0 0 0 0 0 0 0 0 0 1 1 1 1 1 1 1 1 1 1 1 1 1 1 1 1 1 1 1 1 1 1 1 1 1 1 0 0 0 0 0 0 0 0 0 0 0 0 0 0 0 0 0 0 0 0 0 0 0 0 0 0 0 0 0 0 0 0 0 0 0 0 0 0 0 0 0 0 0 0 0 0 0 0 0 0 0 0 0 0 0 0 0 0 0 0 0 0 "/>
</feComponentTransfer>
<feComposite operator="in" in2="shape" in="coloredNoise1" result="noise1Clipped" />
<feFlood flood-color="rgba(0, 0, 0, 0.25)" result="color1Flood" />
<feComposite operator="in" in2="noise1Clipped" in="color1Flood" result="color1" />
<feMerge result="effect1_noise_2341_3399">
<feMergeNode in="shape" />
<feMergeNode in="color1" />
</feMerge>
</filter>
</defs>
</svg>
