<svg width="81" height="87" viewBox="0 0 81 87" fill="none" xmlns="http://www.w3.org/2000/svg">
<g filter="url(#filter0_n_2341_3569)">
<path d="M19.1916 32.5052C20.4377 32.9465 21.3315 33.828 22.1166 34.846C22.3266 36.833 21.6639 37.294 19.0888 36.7048C19.7551 37.1622 20.2378 37.4193 20.7309 37.6853C21.7589 38.2402 21.5139 39.3313 21.3157 40.079C21.0558 41.0613 20.1018 40.656 19.3702 40.4853C18.8767 40.3704 18.4943 40.0929 18.1483 39.7387C17.9073 39.4924 17.6295 39.2124 17.2925 39.5766C17.0325 39.8576 17.1036 40.2318 17.1739 40.5696C17.3282 41.3108 17.6852 40.6774 17.8916 40.6281C19.3373 40.2829 20.2582 40.7231 20.7991 42.1785C21.2083 43.2789 20.7123 43.5503 19.8165 43.6745C20.4977 44.1309 21.0055 44.6582 20.406 45.508C20.1143 45.9215 19.6454 46.1039 19.1677 46.22C17.2335 46.6899 15.9271 48.3948 13.9247 48.7533C15.1344 48.3394 16.2113 47.5561 17.5849 47.8999C17.7659 47.9713 17.9348 48.067 18.0933 48.1798C19.2009 49.0557 18.74 49.7591 17.8495 50.4179C17.3264 50.9513 17.1885 51.7404 16.6376 52.2567C16.3191 52.4488 15.9756 52.3949 15.6343 52.3602C15.8428 52.5413 16.142 52.4974 16.362 52.6641C16.8722 53.0508 16.7087 53.5196 16.5055 53.962C16.2506 54.5165 16.0135 55.2431 15.2219 55.0532C13.3316 54.5997 13.1738 55.8497 13.0689 57.1501C12.9664 58.418 12.5422 59.4289 11.209 59.8273C10.5191 59.9505 9.99283 59.6384 9.61721 59.1179C8.99058 58.2491 8.41037 57.7439 7.39383 58.7105C6.96072 59.1221 6.18163 58.8486 5.93776 58.3913C4.7934 56.2436 2.60429 56.6881 0.796526 56.19C0.615856 56.1175 0.460899 56.0061 0.32629 55.8658C0.0824213 54.9817 0.625854 54.2309 0.741183 53.4061C0.790813 53.1279 0.859728 52.8548 0.958632 52.5898C1.03254 52.4145 1.12859 52.2517 1.24178 52.0989C2.68285 50.7706 3.63333 48.9543 5.37682 47.9249C5.52536 47.791 5.6739 47.6575 5.82279 47.5236C6.03167 47.3086 6.26339 47.1283 6.55118 47.0309C7.78766 46.7095 8.89382 46.5495 8.13686 44.6339C7.57557 43.2132 8.86453 42.2106 10.6252 42.537C10.1992 41.7693 9.64291 41.7572 9.02592 41.9239C8.50819 42.0639 7.90513 42.4245 7.64091 41.6422C7.39525 40.9138 7.24244 39.7987 7.96261 39.5723C10.2399 38.8557 9.87 36.4074 11.165 35.0506C11.7167 34.4725 12.098 33.7698 12.9018 33.4756C13.487 33.2653 14.2014 32.934 14.6838 33.3046C16.343 34.58 17.3796 33.6263 18.4404 32.4609C18.641 32.2409 18.9485 32.3409 19.1916 32.5052Z" fill="#E45252"/>
<path d="M15.4819 23.3649C15.4544 23.2246 15.4265 23.0846 15.3987 22.9443C15.0016 22.3591 15.278 22.0235 15.8568 21.9406C16.3806 21.8657 16.9829 22.0699 17.215 21.3561C15.9614 21.4875 14.5496 20.5903 14.4975 19.518C14.4282 18.103 15.4351 17.9763 16.5487 17.8245C17.3118 17.7206 18.0077 17.5678 18.7096 17.9634C20.0861 17.9813 21.1433 18.996 22.4712 19.166C26.331 20.5292 26.3649 23.8534 26.5641 27.1101C26.758 30.2779 26.7755 30.2772 23.5224 29.6916C21.3226 29.2956 19.1856 28.7822 17.9005 26.6788C17.9284 25.6594 17.5871 24.4147 19.2831 24.4125C19.5987 24.5443 19.6376 24.9374 19.9379 25.1091C19.8965 24.816 19.5866 24.7646 19.4802 24.5421C19.1295 23.6581 18.5682 23.2546 17.5871 23.5959C16.8672 23.8466 16.1292 23.9298 15.4819 23.3649Z" fill="#E15858"/>
<path d="M50.3378 63.3697C50.4239 63.5075 50.5099 63.6453 50.5956 63.7828C50.9698 63.8924 50.9887 64.1777 50.948 64.4926C48.8668 66.0947 48.7454 68.6069 48.042 70.8396C47.8845 71.3388 48.0066 71.3381 48.7761 71.272C49.8287 71.1817 49.864 72.0764 50.1497 72.7527C50.406 73.3593 49.4798 74.1006 50.3932 74.6037C50.671 76.1429 51.7314 77.3476 52.1881 78.8112C52.442 79.752 51.7407 80.0298 51.1148 80.3598C49.7837 80.8911 49.3763 82.6467 47.8035 82.8574C47.0176 82.8791 47.1518 82.3393 47.1907 81.8572C47.2618 81.6823 47.4064 81.5955 47.5792 81.5445C47.3246 81.4523 47.0397 81.4691 46.7966 81.3313C45.2948 79.772 45.2891 79.7128 47.0976 78.2081C47.6506 77.7479 48.6672 77.4633 47.9377 76.5186C47.2407 75.6159 46.6037 76.48 46.0053 76.8438C45.0006 77.4551 44.3058 77.4623 44.2476 76.0376C44.2308 75.6252 44.1754 75.3231 43.7013 75.0668C42.293 74.3048 42.9307 73.4936 43.758 72.7473C43.0864 72.9527 42.904 73.4865 42.7368 74.1317C42.2677 75.9444 41.6011 75.1889 40.9559 74.2152C40.7088 73.4786 40.9598 72.8998 41.4572 72.3357C43.0432 70.5368 43.1707 68.9329 41.9553 66.7381C41.8635 66.4203 41.9881 66.1758 42.2116 65.9644C42.9129 65.8823 42.9461 64.7936 43.7852 64.9154C45.1409 66.4418 46.3563 65.5356 47.4817 64.6251C48.2184 64.0292 48.7989 63.2361 49.8387 63.1333C50.045 63.1283 50.2093 63.2118 50.3378 63.3697Z" fill="#E15959"/>
<path d="M16.3534 70.3562C16.3669 70.2176 16.3802 70.0787 16.3937 69.9402C16.3787 69.536 16.2016 69.0108 16.6194 68.7962C17.6513 68.2663 17.3171 67.5344 17.1575 66.6946C16.9129 65.4053 16.8208 64.0731 18.1669 63.2047C18.4604 63.1426 18.7453 63.7492 19.0074 63.2733C19.1909 62.9398 19.3084 62.5599 18.9206 62.1682C17.4542 60.6875 18.4539 60.2547 19.8732 60.0287C20.8112 60.2412 21.6281 60.6243 21.4889 61.7729C21.3939 62.5567 22.1427 62.326 22.3922 62.6713C22.9082 62.898 22.8061 64.3752 24.0522 63.269C24.6124 62.772 25.7211 63.9381 26.8037 63.6403C27.2589 63.515 27.3328 64.3712 26.9922 64.7818C26.2145 65.7195 25.5197 66.931 23.9536 66.1994C23.2035 65.8487 22.3458 66.2929 21.5821 66.0087C23.1074 66.5046 24.4874 67.6008 26.3056 66.861C26.8744 66.6296 27.7024 66.0901 28.0741 67.0723C28.41 67.9611 28.3293 69.1354 27.2807 69.3207C25.9082 69.5632 25.9906 70.3019 26.016 71.2838C26.0381 72.1432 25.485 72.5003 24.647 72.4289C24.2471 72.371 23.9058 72.185 23.5884 71.9486C22.9075 71.2702 22.5119 71.7083 22.1637 72.3178C22.062 72.4699 21.9463 72.6113 21.8259 72.7481C21.2872 73.1844 20.9869 73.9078 20.2338 74.0924L20.0685 74.0978C19.4087 74.0271 18.8688 73.7032 18.3704 73.2933C18.2318 73.1787 18.1115 73.0462 18.0065 72.9009C17.6966 72.3707 17.3046 71.9115 16.8047 71.5459C16.4587 71.2231 16.2063 70.8646 16.3534 70.3562Z" fill="#DC5353"/>
<path d="M69.5363 22.9454C69.617 23.0993 69.6981 23.2528 69.7788 23.4067C70.8464 24.5039 71.1952 25.9096 71.4759 27.3446C71.5344 27.5396 71.5708 27.7399 71.5973 27.9416C71.7869 28.7907 70.7228 29.9115 72.1546 30.4914C72.7352 31.0177 73.3065 31.5479 72.2657 32.1795C71.2991 32.7662 71.4534 33.5938 71.7733 34.4575C71.8351 34.6407 71.8654 34.8289 71.8729 35.0213C71.7187 36.8116 70.294 36.562 68.9979 36.6559C69.0218 37.6739 70.0377 38.6165 69.1443 39.5602C68.8662 39.8541 68.5441 39.813 68.2324 39.593C67.8575 38.6693 66.7799 39.7109 66.3532 38.9289C66.1354 38.5551 66.0683 38.0923 65.6976 37.8053C65.2063 37.4354 64.3958 37.4464 64.4219 36.4788C64.4358 35.9636 63.9059 36.5442 63.6617 36.3538C63.1601 35.558 62.3835 35.2198 61.5069 35.0435C61.5194 33.827 62.331 33.0968 63.1369 32.3606C63.9706 32.4412 65.0375 32.0013 65.3752 33.2464C65.5231 33.792 65.8162 33.6356 66.1408 33.5417C66.6606 33.391 66.4703 33.0511 66.3528 32.7301C66.1404 32.1481 65.8255 31.6054 65.6837 30.9959C65.6355 30.5917 65.5023 30.1357 65.9947 29.9144C67.7607 29.1192 67.7643 29.1271 68.6105 27.0369C67.8171 27.6474 67.1223 28.037 66.4882 27.2354C66.0111 26.632 65.9065 26.0221 66.4343 25.3558C67.072 24.5507 67.068 23.3631 67.9717 22.7033C68.3784 22.4398 68.7455 22.1002 69.2496 22.0167C69.7288 22.2066 69.8006 22.5241 69.5363 22.9454Z" fill="#E75E5E"/>
<path d="M47.0248 81.2188C47.1969 81.3245 47.7871 81.0128 47.4404 81.6355C47.0951 82.1304 46.7924 82.6499 46.2589 82.9944C45.021 83.7943 47.1308 83.1755 46.5667 83.7046C46.3039 83.9838 46.0411 84.2631 45.7783 84.5419C45.0549 84.9347 44.5893 85.6074 44.017 86.1644L44.0694 86.1187C43.0843 87.1759 42.2888 86.9624 41.6408 85.757L41.6586 85.7823C40.7092 84.6972 40.5228 83.2737 39.983 82.0065L40.0033 82.0375C38.7479 79.7099 38.6194 77.2266 38.985 74.6776C39.1442 74.5412 39.5084 74.4676 39.5131 74.5376C39.6313 76.284 41.3298 76.0558 42.2899 76.6314C43.2425 77.2023 44.1666 77.8368 44.2769 78.8137C44.4797 80.6079 45.5159 81.0985 47.0248 81.2188Z" fill="#E15959"/>
<path d="M0.378784 55.8601C1.58349 55.4042 2.81853 56.6985 4.10893 55.6987C4.53097 55.3717 4.66772 56.5135 5.07584 56.7767C5.94277 57.3355 6.31767 59.9277 8.04439 57.5968C8.10402 57.5165 9.29015 57.4869 9.58865 58.2367C9.89179 58.9972 10.3724 59.5139 11.2332 59.5778C11.4225 59.8099 11.5092 60.1109 11.3139 60.3226C10.2906 61.4312 11.0429 61.5966 12.0102 61.7737C12.9135 61.9393 14.0379 61.94 13.9429 63.349C13.9229 63.645 13.6712 63.7989 13.3806 63.8592C13.1785 63.8221 12.9892 63.7542 12.8075 63.6607C11.4728 63.3825 10.1632 62.9234 8.76528 63.1633C7.21281 62.9398 5.77495 62.2982 4.24461 61.9636C2.39543 61.5591 2.26546 61.0838 2.92244 59.3643C3.14917 58.7705 3.83043 58.2517 3.32591 57.4936C3.17595 57.3558 3.02562 57.218 2.87566 57.0805C2.11371 56.5292 0.779042 57.1516 0.378784 55.8601Z" fill="#E45757"/>
<path d="M40.9845 62.8702C40.9073 62.9959 40.8306 63.1212 40.7534 63.2469C40.4832 63.2811 40.2129 63.3158 39.9426 63.3504C38.6761 63.9867 37.1493 63.6443 35.9218 64.4248C35.7208 64.5183 35.5105 64.5812 35.293 64.6219C34.4336 64.7233 33.5752 64.7454 32.7254 64.5451C31.7749 64.1941 31.4425 63.7382 31.6221 62.5331C31.9617 60.2544 31.8278 60.3033 33.713 59.2825C34.7228 58.7355 35.7183 59.4121 36.7391 58.9504C38.0941 58.3374 38.4987 59.3528 38.7054 60.4868C38.7825 60.9092 39.1356 60.6207 39.3499 60.5764C40.1086 60.4201 40.6881 60.7703 41.253 61.1963C41.5582 61.8183 41.6764 62.4099 40.9845 62.8702Z" fill="#DA5454"/>
<path d="M66.1565 60.7821C65.8583 60.6582 65.5598 60.5343 65.2617 60.4108C64.6508 59.9737 63.7556 59.9916 63.3529 59.2196C63.038 58.2128 63.3247 57.0916 62.7616 56.13C62.6991 55.9355 62.697 55.7398 62.7427 55.542C63.0837 55.0396 63.5539 55.025 64.0716 55.1867C64.7054 55.5588 65.2128 56.0958 65.7926 56.541C66.7463 57.2733 66.8749 56.5549 67.0759 55.8915C67.9907 54.8993 68.6809 54.9696 69.0979 56.32C67.6233 56.4917 68.0635 57.6693 68.0032 58.5159C67.9157 59.7463 67.7996 60.86 66.1565 60.7821Z" fill="#F16A6A"/>
<path d="M18.3072 63.3243C17.4688 64.6622 17.0521 65.9894 18.0233 67.4944C18.5268 68.2745 18.3229 69.0237 17.2257 68.9883C16.423 68.9622 16.7944 69.7424 16.3937 69.9402C16.2595 69.7956 16.1252 69.6506 15.991 69.506C15.8067 69.4646 15.6543 69.3711 15.5336 69.2257C15.0087 68.367 14.7352 67.3826 14.1918 66.5328C14.2279 66.4279 14.2157 66.3293 14.155 66.2361C13.5052 65.8687 13.2331 65.3617 13.5612 64.6347C13.7969 64.6262 16.9486 62.9337 17.2185 62.6577C17.5934 62.2739 18.0494 62.0625 18.5075 62.3928C19.022 62.7634 18.6835 63.0773 18.3072 63.3243Z" fill="#E25A5A"/>
<path d="M18.7096 17.9634C18.0329 18.0652 17.3453 18.2955 16.6826 18.2369C15.8221 18.1608 15.083 18.2505 14.8709 19.1488C14.6556 20.0618 15.646 20.3407 16.0888 20.9084C16.2455 21.1094 16.6647 21.3468 16.7547 21.0594C16.9493 20.4396 17.015 19.8972 17.778 20.5656C18.4157 21.124 17.6455 21.3676 17.5192 21.7528C17.3303 22.328 17.2035 23.1671 16.3362 22.5958C15.701 22.1774 15.5086 22.2741 15.3986 22.9443C15.1372 22.6247 14.8759 22.3048 14.6149 21.9853C14.4667 21.7546 14.3182 21.5243 14.17 21.294C13.8204 20.6727 13.0538 20.3432 12.9463 19.5501C12.8574 18.8414 13.1459 18.3237 13.7515 17.968C15.4047 18.1166 17.0557 16.3274 18.7096 17.9634Z" fill="#E65E5E"/>
<path d="M79.0272 33.8927C79.1101 34.0062 79.1933 34.1201 79.2761 34.2337C79.7363 35.232 79.0894 35.9297 78.6134 36.6738L78.6302 36.6491C78.442 37.0133 78.1956 37.3143 77.7818 37.4332C77.2348 37.4561 76.4397 37.4897 76.5964 36.7638C76.8638 35.5234 75.1785 33.878 77.3259 33.0272C77.7368 32.9222 78.1374 32.9372 78.5256 33.1214C78.8087 33.3028 78.919 33.597 79.0272 33.8927Z" fill="#E86162"/>
<path d="M46.5663 83.7047C45.9165 83.7047 45.267 83.7047 44.0541 83.7047C45.4691 82.8399 46.4546 82.2379 47.4404 81.6355C47.4611 82.0726 47.3515 82.5489 47.8046 82.8574C47.3915 83.1398 46.9791 83.4222 46.5663 83.7047Z" fill="#DC5454"/>
<path d="M28.5379 69.5225C28.0309 70.2548 27.5267 70.9878 27.4124 71.9058C27.0861 72.5899 26.7987 73.3404 25.7882 72.8577C25.2323 72.8145 24.7938 72.5817 24.5242 72.0754C26.5755 71.4323 25.5493 70.3473 24.7428 69.3422C27.6652 68.9676 27.6652 68.9676 27.7327 67.0406C26.3177 66.7217 25.2855 68.3099 23.3959 67.3848C22.0495 66.7253 21.1137 66.2836 20.5474 64.9307C24.1554 66.4829 25.1937 66.3357 26.8119 64.0599C26.4159 63.6514 26.0821 63.7442 25.8653 64.2209C25.303 65.4577 25.1898 64.9115 25.0198 64.0502C24.9181 63.5339 24.4607 63.2087 24.0047 63.6182C22.7743 64.7233 22.8047 64.7529 22.3041 63.2322C22.2637 63.1098 22.1398 63.0151 22.0549 62.9073C22.9985 61.4262 23.7319 59.9113 22.8229 58.1346C22.7175 57.9857 22.6144 57.8364 22.5008 57.694C22.222 57.3365 21.771 57.0438 22.0288 56.4785C22.2705 56.1429 22.6011 55.9683 23.0089 55.9326C23.4484 55.9383 23.7994 56.1058 24.1379 56.7028C23.6459 55.4763 23.412 54.4508 23.9647 53.4093C24.4775 52.8412 25.3298 53.7174 25.8718 52.8916C25.3705 52.0764 24.6631 52.8655 24.1104 52.7027C23.8041 51.844 24.2772 50.6461 25.3797 49.4896C25.559 49.5885 25.7061 49.7249 25.8357 49.8809C26.1903 50.3079 26.5455 50.7442 27.1768 50.3351C27.3553 50.219 27.4821 50.0162 27.401 49.817C27.1211 49.1296 26.5148 49.3889 26.0071 49.3781C25.8046 49.3739 25.6043 49.3682 25.4062 49.3185C24.9288 49.1532 24.441 48.9979 24.4596 48.3491C24.9806 47.6686 25.6993 47.3879 26.527 47.3265C26.6634 47.3344 26.8183 47.3804 26.9369 47.3312C29.3395 46.335 30.7588 47.56 31.8389 49.5913C32.2755 49.0186 32.0313 48.292 32.5376 47.8121C32.7468 47.7164 32.2827 47.4501 32.4866 47.6386C32.5394 47.6875 32.4741 47.7071 32.3762 47.7946C31.9135 48.2081 31.3543 48.4116 30.8995 47.9556C30.481 47.5358 30.9259 47.0659 31.1426 46.6503C31.2062 46.5285 31.3436 46.425 31.3579 46.3007C31.5029 45.0599 33.2992 45.6701 33.456 44.3812C33.5695 43.4482 33.5284 42.4242 34.5471 41.5365C33.4995 42.1867 33.2974 43.0129 33.1682 43.8784C33.0739 44.5079 32.6076 45.1378 32.1074 44.7768C31.0369 44.0041 29.9286 44.319 28.8178 44.2498C27.8481 44.1894 27.3421 43.5407 27.1982 42.6405C27.049 41.7065 27.6685 41.2794 28.4336 40.9824C30.5824 40.1479 30.8662 39.1617 29.4784 37.3458C29.1852 36.9623 28.7578 36.577 29.072 36.0736C29.4302 35.4994 29.9575 35.8801 30.3599 36.0572C31.1944 36.4242 32.0402 36.5902 32.9504 36.4903C33.0375 35.9247 32.819 35.3641 32.9279 35.1152C31.5493 37.0341 30.2732 36.0518 29.0331 34.5529C29.4409 34.3033 29.8358 34.0287 30.2589 33.8081C32.8379 32.4641 33.4342 32.683 34.0197 35.5387C34.2615 36.7174 34.5739 36.7748 35.624 36.4149C39.1546 35.2042 39.2427 35.2741 39.1563 39.005C39.1006 41.413 39.1206 43.8859 38.1816 46.1361C37.4507 47.8874 37.3232 49.3664 38.7489 50.7589C39.3231 52.0707 40.1672 53.1386 41.4808 53.7828C41.5468 53.911 41.6129 54.0395 41.6789 54.1677C42.5409 54.8232 43.1539 55.5423 42.3031 56.6317C41.7978 57.053 41.2929 57.4744 40.7881 57.8957C40.2221 58.197 39.3188 58.2856 39.8969 59.3086C40.1279 59.6927 40.3589 60.0773 40.5899 60.4615C41.0391 60.5886 40.997 60.8867 40.8541 61.2199C40.6606 61.1463 40.435 61.1138 40.2786 60.9924C39.4559 60.3526 39.1174 61.7765 38.2462 61.3995C37.0772 60.8939 38.7654 60.2537 38.0509 59.7809C37.6567 59.5203 37.4332 58.3284 36.8958 59.6656C36.8723 59.7238 36.7826 59.8163 36.7655 59.8077C34.8263 58.8515 33.3228 60.7339 31.1819 60.5872C32.1898 61.403 33.5977 62.0511 31.8735 63.2472C31.5582 63.4661 32.3634 63.8042 32.4551 64.207C31.4615 64.5219 30.9362 65.2467 30.4749 66.159C29.8929 67.3084 29.5812 68.6334 28.5379 69.5225Z" fill="#E25959"/>
<path d="M55.3491 23.3778C57.2626 22.0613 57.9846 19.6587 59.9209 18.3626C61.0049 18.956 60.5332 19.7508 60.1451 20.471C59.1757 22.2691 58.678 24.2576 57.8146 26.1003C57.3133 27.1701 58.4652 29.3581 59.3642 29.0585C60.0933 28.8157 60.6925 27.8381 61.1063 26.993C61.5283 26.5873 62.0339 26.4652 62.6156 26.4295C64.0784 26.3399 64.5422 25.5979 64.2948 23.863C64.2134 23.0132 62.4285 23.186 63.0979 21.8814C64.4854 21.1998 66.1247 22.1966 67.469 21.2222C67.8746 21.7325 68.4216 22.1806 68.2517 22.9522C67.2051 23.6745 67.9507 25.4237 66.4807 25.9918C66.2036 26.0989 66.6142 26.8737 66.9727 27.1961C67.4119 27.591 67.6829 27.2961 67.9375 26.8976C68.1645 26.542 68.2517 25.8529 68.9469 26.2646C69.5717 26.6348 69.1886 27.274 68.9886 27.5253C68.1463 28.5829 68.7637 31.2944 66.0165 30.2682C66.0676 30.466 66.1183 30.6638 66.1693 30.8613C65.407 31.3937 64.9739 30.8556 64.699 30.2996C64.2416 29.3749 63.5493 29.2724 62.6423 29.4834C63.1843 30.23 64.6665 29.7109 64.6736 30.957C64.6783 31.7743 64.0952 32.332 63.2554 32.5255C62.6955 33.331 62.1357 34.1369 61.5762 34.9424C61.9893 35.6119 61.6683 36.1571 61.2809 36.6909C60.3472 36.8759 60.3715 36.0921 60.1394 35.5662C60.1829 33.2918 60.1829 33.2918 58.2966 33.5942C57.364 33.1318 56.4167 33.2057 55.4634 33.5267C53.1047 34.3494 52.8005 34.1362 52.9237 31.7739C52.6087 32.5262 51.8914 32.7862 51.2234 33.1411C49.6148 33.9955 48.9964 35.4791 49.5088 37.2333C49.8027 38.2395 50.0437 39.0507 48.4187 38.7508C47.8921 38.6537 46.5931 41.3444 47.0033 41.7572C48.9639 43.7288 46.4638 44.5601 45.7797 45.1421C44.8903 45.8983 43.4564 46.6588 41.9632 46.3121C41.865 46.1222 41.8707 45.9386 41.9949 45.7623C41.9521 45.2863 42.0492 44.8528 42.3813 44.4911C43.0272 44.3205 43.2878 43.9802 42.8851 43.3475C43.3603 41.9636 44.7339 40.5892 42.929 39.1817C43.9248 38.4337 44.309 39.341 44.836 39.9241C44.6207 38.769 43.8756 37.9145 43.4075 36.9262C43.2004 36.4888 42.9997 35.9486 43.316 35.5416C43.7274 35.0124 44.1198 35.5001 44.5582 35.6872C45.909 36.2639 46.5235 35.9079 46.4717 34.4822C46.4392 33.5817 47.2194 32.3741 45.4377 31.906C44.414 31.6372 44.9846 30.6992 45.6016 30.1397C46.2785 29.4352 46.1939 28.4869 46.401 27.6299C46.5088 27.4668 46.6534 27.3504 46.8334 27.2757C47.907 27.2293 49.2339 26.5906 49.1946 28.675C49.1853 29.1685 50.2411 29.637 50.5185 30.4946C51.8079 29.3552 51.6443 27.4025 53.2393 26.7634C52.482 27.0672 51.7404 27.3743 51.484 28.2859C51.3273 28.8432 51.0441 29.3752 50.3436 29.2063C49.7616 29.0664 49.5163 28.6143 49.4163 27.9902C49.0132 25.4787 48.4019 25.0063 45.8958 25.6711C44.8674 25.9439 43.4664 24.7321 42.8022 26.4106C42.7026 26.5816 42.5655 26.7137 42.3941 26.8105C42.2356 26.3656 42.1131 25.9039 41.9125 25.4791C41.0145 23.577 41.8718 22.9557 43.6831 23.0064C44.9289 23.1807 46.2175 22.9629 47.4329 23.4156L47.4054 23.3953C48.3284 23.9159 49.4392 23.211 50.3443 23.8459L50.3072 23.823C51.0206 24.078 51.8479 24.0262 52.4366 24.615L52.4388 24.6161C53.1383 24.8806 53.8377 25.1827 54.5379 24.6175C54.8082 24.2047 55.0785 23.7913 55.3491 23.3778Z" fill="#E45B5B"/>
<path d="M24.1686 53.2629C23.6184 54.7557 24.8281 56.119 24.7985 57.7221C23.7484 57.3915 23.8576 56.1779 22.8861 56.2471C22.7411 55.7573 22.7622 55.1896 22.2402 54.8746C21.8288 53.2354 20.5956 52.999 19.1773 53.0776C18.9006 52.959 18.7064 52.7609 18.6007 52.4784C19.1484 51.2402 18.4836 50.5525 17.4799 50.0187C18.2976 49.6184 18.676 49.1071 17.9141 48.3063C17.9676 48.2663 18.0212 48.2259 18.0751 48.1866C18.5314 47.8539 19.3773 48.3237 19.5722 47.4886C19.6426 47.1862 19.3994 46.9841 19.1041 46.9598C18.1112 46.878 18.2422 47.7964 17.9248 48.3159C16.7229 48.3248 15.359 47.6914 14.7684 49.5688C14.5624 50.2244 13.4598 49.818 13.0503 49.532C12.645 49.2492 13.1345 48.4901 13.5327 48.3905C15.5632 47.8814 16.9665 46.085 19.0827 45.768C19.6058 45.6898 20.2032 45.5002 20.296 44.8246C20.3345 44.5436 20.1467 44.3201 19.8322 44.2365C19.2702 44.0873 18.2768 44.1134 18.5775 43.295C18.8746 42.4856 19.7804 43.2004 20.4263 43.2011C19.7904 41.1112 19.7968 41.1327 17.7159 41.7422C17.0946 41.9243 16.8993 41.3194 16.7312 40.9138C16.402 40.1201 16.2773 39.2896 17.0614 38.6515C17.4942 38.2994 17.9944 38.2273 18.2326 38.8511C18.4414 39.3985 18.7142 39.8062 19.2538 40.0761C19.915 40.4068 20.5099 40.4132 21.0922 39.9433C19.995 39.8048 21.7742 38.1156 20.1057 38.1709C19.4441 38.193 19.318 36.6141 18.0951 37.3515C18.5361 36.6427 18.4911 35.7065 19.8 36.4142C21.1258 37.1312 22.0245 36.3853 22.117 34.8457C23.4545 36.7177 24.9363 37.0115 26.7847 35.4555C27.3717 34.9613 28.2747 34.8424 29.0328 34.5518C29.5259 34.8017 30.0161 35.0588 30.5135 35.3002C31.1215 35.5948 31.6667 36.0104 32.373 35.3377C33.2478 34.504 31.686 34.3351 31.9949 33.6906C33.0925 34.2537 34.0744 36.1307 33.4128 36.6727C32.0617 37.7799 30.6641 36.6184 29.0174 36.0946C29.3748 36.5502 29.493 36.8627 29.6969 36.9359C32.1306 37.8103 30.5188 39.5691 30.5667 40.9431C30.5874 41.5386 30.1107 41.4626 29.664 41.3615C28.786 41.1627 27.9445 41.3105 27.5831 42.2106C27.3707 42.7398 27.7331 43.4867 28.2147 43.596C29.0285 43.7802 29.9218 43.6853 30.7677 43.5867C30.9116 43.5699 30.9926 42.9247 31.465 43.1318C31.8553 43.3028 31.8171 43.651 31.7699 44.0145C31.7292 44.3276 31.9178 44.56 32.2488 44.5186C32.4166 44.4976 32.714 44.2883 32.699 44.2173C32.5515 43.5164 32.5323 42.8433 33.0289 42.271C33.4624 41.7711 33.9376 41.3073 34.5103 40.706C34.8827 43.8538 33.0493 45.8054 30.847 47.5825C31.9888 48.2631 32.348 46.5442 33.3403 47.2876C32.8943 48.022 32.1638 48.7315 32.7047 49.788C32.9172 50.2029 32.579 50.5964 32.1095 50.6782C31.7182 50.7464 31.4479 50.4686 31.3293 50.1287C30.5659 47.9396 29.3723 46.6895 26.9351 48.0463C26.8115 47.8224 26.688 47.5986 26.5644 47.3751C25.735 46.0447 24.0272 46.1036 22.96 45.0974C22.5297 44.6914 21.8299 44.9439 21.6824 45.6308C21.5489 46.2518 22.0548 46.5006 22.574 46.5071C23.7594 46.5224 24.9063 46.5188 24.5799 48.2491C24.8731 48.6058 25.1666 48.9625 25.4597 49.3192C25.4294 49.4088 25.3994 49.4985 25.369 49.5881C25.4397 50.7499 24.1779 51.3769 24.1925 52.5163C24.3964 52.7726 24.3843 53.0212 24.1686 53.2629Z" fill="#E45656"/>
<path d="M46.1921 30.4446C46.1171 30.9859 45.0163 30.6571 45.2938 31.3076C45.8526 32.6173 46.8502 31.1791 47.6971 31.5479C46.5217 33.2529 46.7827 35.0685 47.1672 37.0233C46.4253 35.5234 44.1273 38.0667 43.932 35.3663C43.7652 36.7427 43.7106 36.7902 44.274 37.4372C44.7053 37.9324 44.9735 38.4719 45.0953 39.0803C45.2313 39.7612 46.0882 40.6907 45.3123 41.0738C44.3826 41.5326 44.5507 40.2129 44.1826 39.728C43.8295 39.2631 43.4225 39.1875 42.9287 39.1817C40.5974 36.5813 39.8087 33.2196 38.6586 30.0829C38.0873 28.5247 39.8858 28.4262 40.9495 28.1263C41.6865 27.9185 42.7544 28.1841 42.3938 26.8105C42.422 26.6316 42.4502 26.4527 42.4784 26.2735C43.4128 25.4241 44.5804 25.915 45.6116 25.8475C46.436 25.7936 47.1123 26.4685 46.6092 27.5318L46.6095 27.5314C45.9265 28.4244 45.7444 29.3895 46.1921 30.4446Z" fill="#E05858"/>
<path d="M41.6757 15.8903C41.6543 16.1646 41.6332 16.4384 41.6118 16.7126C40.7952 17.5003 40.0922 18.3433 40.1964 19.5848C38.9228 20.6256 37.922 22.0224 36.2817 22.5855C35.2091 21.9935 34.46 22.9243 33.6613 23.2707C32.8343 23.6295 32.2855 23.5713 31.962 22.8483C31.3386 21.4558 30.5031 20.4346 28.8824 20.2114C28.4543 20.1525 28.6068 19.4709 28.2573 19.2195L28.2719 19.2417C27.9898 18.6282 27.9712 18.0366 28.5822 17.626C29.0992 17.2786 29.4705 17.7335 29.8329 18.0002C31.0594 18.9039 32.5708 18.6514 33.9209 19.0349C34.7164 19.0917 35.3916 18.9607 35.8336 18.1616C37.1126 15.8496 38.8136 15.2052 41.6757 15.8903Z" fill="#DA5151"/>
<path d="M6.54584 47.4643C7.88622 46.5892 8.3129 45.5241 7.83373 43.8634C6.92538 40.7153 7.99904 37.5293 7.99012 34.3533C7.98833 33.7434 8.42787 33.3614 8.86062 33.0025C9.75576 33.1343 10.6502 33.266 11.545 33.3978C11.9249 33.6567 12.3805 33.471 12.7811 33.6092C12.8336 33.6763 12.8861 33.7438 12.9385 33.8113C11.52 34.8581 11.1647 36.6991 9.91036 37.8688C11.4832 40.0611 9.40048 39.3506 8.51356 39.6866C7.52345 40.0619 8.03225 40.9577 7.88586 42.0103C9.13948 40.7185 10.3349 41.1287 11.2515 41.8668C11.7678 42.2824 10.9465 42.9586 10.7866 43.5049C9.95463 43.5935 9.72934 41.9739 9.1502 42.7305C8.74815 43.2561 7.66056 44.3176 8.91346 45.3298C9.76682 46.0193 9.07307 46.6045 8.50642 46.9141C7.92657 47.2322 7.20532 47.2919 6.54584 47.4643Z" fill="#E65A5A"/>
<path d="M28.2565 19.2191C28.3683 19.2991 28.4693 19.423 28.5929 19.4527C30.5181 19.9161 31.9395 20.862 32.5458 22.9182C32.7351 23.5595 33.4627 23.1714 33.5484 22.6422C33.8973 20.486 34.3714 22.3484 34.7817 22.5747C35.4726 22.277 34.821 21.3097 35.7133 20.9787C36.1871 21.3725 35.4576 22.3398 36.281 22.5851C35.1862 23.8348 33.4977 24.3461 32.4987 25.7668C31.7957 26.7666 31.0565 25.9893 30.4292 25.4358C29.8065 23.3281 28.4815 21.4661 28.2565 19.2191Z" fill="#E05B5B"/>
<path d="M19.1916 32.5052C18.9288 32.5412 18.7224 32.6016 18.5164 32.8422C17.5459 33.9741 16.5301 35.1524 14.8941 33.8581C14.2139 33.32 13.5848 33.9123 12.9378 33.812L12.8292 33.7138C12.6479 32.8912 12.5354 32.0714 12.9214 31.2701C13.0196 30.7031 12.6796 30.0319 13.3202 29.5938C14.0261 29.4445 14.7591 29.061 15.3604 29.8266C16.5112 30.9006 18.1893 31.2194 19.1916 32.5052Z" fill="#E65858"/>
<path d="M41.9942 45.7626C42.0256 45.9247 42.0571 46.0864 42.0885 46.2486C42.7408 47.0073 42.3731 47.8267 42.1795 48.6033C41.8953 49.7438 41.6922 50.8831 41.7711 52.0778C42.6601 52.0011 43.5403 51.9925 44.2083 51.2059C45.1474 50.1001 45.6958 50.9095 45.9315 51.754C46.3328 53.1926 46.7273 54.6675 46.316 56.194C45.4041 56.6292 45.7276 55.6144 45.3748 55.3927L45.3834 55.4109C44.9456 54.8011 45.2498 54.1048 45.1563 53.455C45.0942 53.0237 45.0038 52.6402 44.4201 52.8551C43.6056 53.6896 42.2656 52.8555 41.4801 53.7817C39.9833 53.7074 38.4605 52.0218 38.7482 50.7582C39.2338 51.2202 39.7191 51.6822 40.3928 52.3235C40.9241 50.0437 41.0909 47.8003 41.9942 45.7626Z" fill="#E56364"/>
<path d="M15.4818 23.3649C16.308 23.3835 17.0853 23.2339 17.8973 23.0121C19.0956 22.6854 20.1839 22.8693 19.5565 24.6185L19.5572 24.6182C17.9958 24.4936 18.4793 26.0135 17.9001 26.6791C17.1307 25.5476 15.9417 24.7224 15.4818 23.3649Z" fill="#E65E5E"/>
<path d="M40.1961 19.5844C39.181 17.8945 40.0615 17.1382 41.6114 16.7123C41.6721 17.6824 41.0109 18.3597 40.6231 19.1481C40.4806 19.2934 40.3385 19.4391 40.1961 19.5844Z" fill="#E05757"/>
<path d="M42.8847 43.3475C43.2996 43.455 44.0333 43.3732 43.6927 44.0823C43.5477 44.3844 43.1453 45.4613 42.3809 44.4915C42.372 44.032 42.5823 43.6696 42.8847 43.3475Z" fill="#E05858"/>
<path d="M18.741 52.5081C18.8889 52.6755 19.037 52.843 19.1848 53.0104C19.9525 54.1837 21.0058 54.8875 22.428 54.9857C22.7929 54.9478 23.2317 54.4197 23.4924 54.8882C23.813 55.4645 22.9989 55.7426 22.8861 56.2471C22.6094 56.3867 22.3326 56.5264 22.0559 56.6656C21.7053 57.569 22.7043 57.1241 22.8857 57.4961L22.8868 57.4972C23.3906 58.5352 22.5208 58.7726 21.9038 59.0579C21.169 59.3974 20.4406 59.7038 19.9747 60.4097C18.5871 60.8139 18.6204 60.7825 19.5787 61.7879C20.4538 62.7063 19.5415 63.4968 19.0806 64.0506C18.7375 64.463 18.5497 63.6225 18.3072 63.3243C18.4104 62.9508 18.6753 62.4021 17.9262 62.6056C17.6209 62.6884 17.3599 63.174 17.2046 63.5307C15.9614 66.3911 15.9706 66.395 13.8437 64.5665C13.8037 64.243 13.3256 64.062 13.5477 63.6528C14.08 62.5713 13.1845 62.4949 12.5601 62.3328C9.46761 61.5301 9.4644 61.5433 11.2336 59.577C12.3687 58.7401 12.9371 57.7689 12.383 56.2768C12.0659 55.4231 13.7769 53.992 14.6096 54.4608C15.9649 55.2238 15.8457 53.9191 16.2638 53.4328C16.4552 53.21 16.3406 53.0772 15.0509 53.0154C14.7063 52.999 14.5603 52.9094 14.4821 52.627C14.3864 52.281 14.5696 52.1128 14.8909 52.0982C15.5097 52.0703 16.1295 52.0653 16.7487 52.051C17.4985 51.8293 18.169 51.9539 18.741 52.5081Z" fill="#E25050"/>
<path d="M18.741 52.5081C18.0283 52.5674 17.3421 52.5117 16.7486 52.0511C16.4509 51.1788 16.9447 50.5911 17.4802 50.0187C18.1986 49.9941 18.9984 49.7648 19.4265 50.6143C19.8529 51.4608 19.2487 51.9768 18.741 52.5081Z" fill="#FCF3F2"/>
<path d="M12.8007 37.7771C12.4426 37.1672 11.275 36.7552 12.3954 35.7544C12.8671 35.333 13.1699 34.4882 14.0432 34.8324C14.326 34.9439 14.6909 35.3798 14.2471 35.5923C13.3241 36.0354 13.7415 37.1051 12.8007 37.7771Z" fill="#E65A5A"/>
<path d="M2.98386 52.9416C2.64859 53.9445 3.01421 54.6811 2.42722 55.2303C2.3883 55.2667 1.93269 55.0096 1.84057 54.8104C1.47209 54.0142 1.96626 53.5682 2.98386 52.9416Z" fill="#E45757"/>
<path d="M0.382703 55.8598C-0.668108 54.569 0.727626 54.0363 1.20108 53.2176C1.15716 54.1688 0.772964 55.0153 0.382703 55.8598Z" fill="#E45757"/>
<path d="M64.9867 65.8201C65.0499 65.9776 65.1128 66.1351 65.1756 66.2929C64.9546 67.9528 65.1981 69.5607 65.7219 71.1367C64.9378 72.3464 63.8591 71.8315 62.834 71.6294C59.868 71.4538 57.4572 70.3826 56.1721 67.4969C56.2785 67.0648 56.6077 66.856 56.9773 66.6864C57.2197 66.5664 57.4907 66.5071 57.7142 66.344C59.6688 64.9175 59.6687 64.9175 57.7128 63.3986C56.6888 62.6034 56.6749 61.7297 57.7635 60.996C58.2073 60.6968 58.5305 60.2047 59.1021 60.098L59.0753 59.9316C59.6398 59.6774 59.9776 60.0673 60.3436 60.3772C60.49 60.5215 60.6364 60.6657 60.7828 60.81C60.861 61.6615 61.5547 61.2224 61.9664 61.3748C63.957 62.1878 64.8135 63.7717 64.9867 65.8201Z" fill="#F26969"/>
<path d="M57.0473 54.4115C56.3128 54.1252 55.5805 53.8663 54.9314 54.5901C54.1948 55.0046 53.4332 55.3149 52.5609 55.1631C53.495 53.696 53.5874 52.402 52.6302 50.7257C52.1317 49.8527 53.5507 49.5006 54.5215 49.7116C55.0821 49.8337 55.3252 50.5404 55.9033 50.5629C56.2832 50.5775 57.1226 50.9124 56.9455 50.1165C56.6945 48.9897 57.8756 47.8689 56.6277 46.6738C55.8215 45.9019 57.0501 45.3191 57.6339 44.7964C57.8435 44.5947 58.2102 44.6186 58.3391 44.3001C57.9442 44.318 57.5518 44.4247 57.1512 44.3351C56.4192 43.8799 55.9915 43.3846 56.9416 42.7126C58.1713 42.7098 59.401 42.7576 60.6303 42.7833C61.5169 44.0459 61.1381 45.1613 60.1205 46.2418C61.4341 46.4046 62.5434 46.9123 63.0244 48.0388C63.5425 49.2517 64.2973 49.4317 65.3949 49.1011C66.5607 50.6514 65.3642 51.2009 64.2573 51.7897C62.9405 51.2648 61.9314 51.1731 61.1034 52.7812C60.3265 54.288 58.7322 54.685 57.0473 54.4115Z" fill="#E65D5D"/>
<path d="M59.1017 60.098C58.5865 60.3804 59.005 61.272 58.0831 61.4016C56.3931 61.6398 57.5068 62.9401 57.8742 62.9687C59.6873 63.1101 59.8569 64.4844 60.3993 66.014C58.6126 64.7404 58.4462 67.4394 57.0119 67.0634C56.682 66.3761 57.1687 65.9073 57.4672 65.3942C57.751 64.9061 57.5232 64.5972 57.0965 64.4333C56.4088 64.1691 56.4788 64.7211 56.4767 65.1039C56.4728 65.8612 56.5142 66.6207 55.7536 67.0977C53.9005 65.5291 53.4249 63.078 51.9978 61.2363C51.6672 60.504 51.7171 59.9123 52.5926 59.6252C52.9611 59.4856 53.2482 59.0229 53.7313 59.3385C55.4127 59.3046 57.0783 59.3864 58.6747 59.9927C58.8172 60.028 58.9596 60.063 59.1017 60.098Z" fill="#E15959"/>
<path d="M57.0473 54.4115C57.0784 54.1091 56.967 53.5025 57.3911 53.6585C59.5017 54.4351 60.4893 53.5178 61.026 51.5669C61.3252 50.4793 62.7795 50.5539 64.0934 51.6747C65.0568 53.3068 66.0747 54.8996 67.3908 56.2793C67.3373 57.5725 67.1355 58.4759 65.7166 57.1055C65.1517 56.5599 64.3084 56.2957 64.0838 55.4191C62.9291 55.046 62.8959 55.0571 62.8398 55.8319L62.8402 55.8326C63.334 57.1637 62.3442 57.1601 61.5508 57.1659C60.504 57.1734 59.5795 56.7145 58.7322 56.1154C57.9153 55.7998 57.399 55.1867 57.0473 54.4115Z" fill="#E05858"/>
<path d="M43.6863 64.9671C44.2294 63.58 45.2959 62.4053 45.3666 60.8264C45.5037 60.6864 45.6408 60.5461 45.7783 60.4058C47.6435 60.1583 48.7079 60.8799 49.9672 63.2458C48.5744 63.9131 47.8281 65.4088 46.3278 65.9847C45.0449 66.4771 44.0976 66.5332 43.6863 64.9671Z" fill="#D95252"/>
<path d="M58.7322 56.1147C59.7373 55.8273 60.4779 56.6606 61.4298 56.7531C62.3128 56.8388 62.6884 56.6346 62.8402 55.8323C64.2727 56.696 63.4729 58.0856 63.6446 59.2468C62.7641 59.3614 62.451 58.3034 61.639 58.2763L61.6376 58.2974C60.9528 57.8485 60.1705 57.57 59.5099 57.0784C59.1557 56.8338 58.7765 56.6092 58.7322 56.1147Z" fill="#E86464"/>
<path d="M55.754 67.0977C56.1968 66.2083 55.8322 65.2553 55.9636 64.338C56.0158 63.9742 55.7344 63.3243 56.3385 63.4432C57.0858 63.59 57.8014 64.0206 58.4594 64.4408C58.7508 64.6269 58.6665 65.1007 58.3302 65.301C57.6375 65.7137 57.3436 66.3964 57.0126 67.0638C56.7324 67.208 56.4524 67.3526 56.1725 67.4972C56.0325 67.3637 55.8933 67.2305 55.754 67.0977Z" fill="#D95151"/>
<path d="M58.6747 59.993C56.983 60.1055 55.3916 59.4589 53.731 59.3386C54.409 59.2586 55.087 59.1782 55.7647 59.0979C56.0486 58.9087 56.326 58.9115 56.597 59.1243C57.2897 59.4139 57.9824 59.7035 58.6747 59.993Z" fill="#F26969"/>
<path d="M61.966 61.3744C61.5861 61.4819 61.2116 61.6176 60.8249 61.6869C60.5446 61.7369 60.1201 62.0504 60.0133 61.5158C59.9008 60.9538 60.3775 60.8871 60.7828 60.8099C61.177 60.9981 61.5715 61.1863 61.966 61.3744Z" fill="#E25E5F"/>
<path d="M19.5569 24.6185C20.2232 24.6378 20.6741 24.9767 20.9048 25.6429C20.5531 25.157 18.9163 26.5774 19.5576 24.6182L19.5569 24.6185Z" fill="#E65E5E"/>
<path d="M39.5052 74.4948C39.4531 74.3663 39.4702 74.2477 39.5566 74.1395C39.8165 73.7407 40.0875 73.3622 40.6606 73.5311C40.9298 73.6561 41.0152 73.9431 41.1994 74.1435C41.5658 74.0774 42.051 75.6024 42.2338 74.1959C42.4645 72.42 43.5624 72.4321 44.8274 72.396C44.9863 73.2904 44.455 73.1134 43.9634 73.1533C43.336 73.2044 43.2325 73.7578 43.3171 74.2477C43.4578 75.0629 43.8709 74.4712 44.1851 74.3641C44.7928 74.1567 44.9217 74.5148 44.8806 74.9943C44.8289 75.5945 44.7318 76.1912 44.6543 76.7892C45.4594 77.0924 45.7165 76.4518 46.0775 76.1123C46.6152 75.6067 47.1658 75.2282 47.9245 75.4924C48.8589 75.818 48.6465 76.7478 48.8529 77.4312C49.1921 78.5549 48.1116 78.0453 47.7496 78.3553C46.8827 79.0969 45.2513 79.7689 47.0255 81.2189C46.2885 81.3085 45.553 81.4127 44.8142 81.4834C44.144 81.5477 43.7752 81.3317 43.9423 80.5522C44.3122 78.8273 43.7931 77.4223 41.931 77.2848C41.1709 77.2288 40.9259 74.8847 39.8683 76.8235C39.2028 76.1319 39.7023 75.2593 39.5052 74.4948Z" fill="#DC5454"/>
<path d="M50.8074 64.5598C51.1127 64.739 51.2198 65.0179 51.2059 65.3567C51.4765 65.8109 51.5643 66.5089 51.2169 66.6971C49.7776 67.4769 50.2047 68.958 49.5795 70.2962C51.0884 70.1684 52.3813 70.2776 52.3163 72.1118C52.2635 72.2989 52.1692 72.4628 52.031 72.5992C50.9224 72.6988 51.1848 73.891 50.5978 74.4077C50.5175 74.4591 50.4364 74.5098 50.355 74.5601C49.9201 74.7133 49.4395 75.2046 49.0353 74.7986C48.4983 74.2588 49.2214 74.0431 49.4856 73.6978C50.1343 72.8509 49.4456 72.2371 49.1364 71.4823C48.2787 71.9404 49.1121 73.0862 48.012 73.4243C47.751 71.4755 47.1647 69.7574 48.4873 67.734C49.2089 66.6289 48.6943 64.7176 50.8074 64.5598Z" fill="#DB5353"/>
<path d="M52.8416 72.4792C53.1493 74.6276 53.4582 76.7764 52.1771 78.757C51.2876 78.9869 50.6742 79.0355 51.0045 77.7283C51.1848 77.0149 51.5615 75.7038 49.8362 76.5368C49.3542 76.7696 49.1003 76.2758 49.4128 75.8109C49.7023 75.3799 50.3847 75.241 50.3543 74.5601C51.0831 74.0056 50.7985 72.6395 52.0196 72.4789L52.0185 72.4796C52.2931 72.2336 52.5673 72.2332 52.8416 72.4792Z" fill="#DB5353"/>
<path d="M41.1991 74.1434C41.0602 74.0049 40.9213 73.8664 40.7824 73.7278C40.0415 73.3558 40.1647 72.6699 40.165 72.029C40.3429 70.8725 40.7046 69.7788 41.2808 68.758L41.2523 68.7962C41.4415 68.192 41.605 67.5765 42.0178 67.0713C42.0988 66.9506 42.1799 66.8295 42.2617 66.7088C43.0868 66.9606 43.4117 67.5847 43.4553 68.9579C43.5042 70.4918 43.4871 71.9611 41.7289 72.692C41.1502 72.9327 41.1948 73.59 41.1991 74.1434Z" fill="#DA5555"/>
<path d="M45.4137 71.9401C47.3261 71.5748 43.0754 70.444 45.5801 70.5004C47.3543 70.5404 46.6613 72.6574 47.2483 73.7589C47.5018 74.2345 47.1486 74.407 46.7766 74.2948C45.6022 73.9414 45.3184 73.0437 45.4137 71.9401Z" fill="#DB5252"/>
<path d="M19.9743 60.4097C19.4273 59.5603 19.845 59.2857 20.6523 58.9843C21.4818 58.6748 22.684 58.7905 22.8868 57.4976C24.2654 59.6099 24.1065 60.6436 22.0549 62.9069C21.6371 62.6902 19.7501 64.2431 20.9951 62.0132C21.6025 60.9246 20.5684 60.785 19.9743 60.4097Z" fill="#E45656"/>
<path d="M67.3908 56.2789C66.6203 55.3724 64.5601 55.6148 65.0082 53.6007C65.0374 53.4689 64.7654 53.1197 64.6754 53.1344C62.2621 53.5189 64.223 52.1789 64.093 51.6747C64.7118 50.9424 65.9601 50.5239 65.3392 49.1743C65.1314 48.5748 64.5976 48.0642 64.8375 47.3404C65.136 46.3592 66.2886 46.386 66.837 45.4734C67.8896 43.722 68.7555 42.2138 67.0416 40.4489C67.0937 39.6923 66.9473 38.7436 68.2491 39.1864C69.7509 39.046 69.1025 38.2041 68.6526 37.6528C68.3809 37.32 67.6697 37.2169 67.991 36.6306C68.2949 36.0764 68.9597 35.7065 69.5681 35.9665C71.0374 36.5942 71.3855 35.7601 71.5808 34.6071C72.602 35.002 72.481 33.5067 73.2783 33.5667C73.2893 33.5199 73.4222 33.727 73.3722 33.4981C72.0675 32.7583 72.2928 34.4236 71.5801 34.6061C70.7532 33.5899 70.4786 32.4352 71.8533 31.8607C72.9073 31.4201 72.121 31.1562 72.0182 30.7877C72.4106 30.8342 72.803 30.8806 73.1951 30.927C74.0309 31.3605 74.8668 31.7939 75.7027 32.2274C75.8723 32.5684 76.1711 32.5948 76.4971 32.5537C76.8156 32.8372 77.5076 32.5959 77.534 33.2907C76.5874 33.8702 76.0301 34.5896 77.208 35.4044C77.9132 35.8922 77.4851 36.0089 77.1841 36.4167C76.3075 37.6039 77.6418 36.848 77.8393 37.1112C77.7743 37.9902 78.7305 38.3759 78.839 39.171C79.1011 40.23 79.5667 40.8117 80.6575 39.9523C81.1131 40.7649 81.2317 41.5144 80.269 42.0635L80.2637 42.0396C79.2039 42.4927 78.4827 43.3725 77.65 44.1123C77.4297 44.274 77.2098 44.4361 76.9898 44.5982C75.9483 45.413 74.9664 46.3257 73.6264 46.652L73.6282 46.6356C72.4835 46.7959 72.7448 47.6789 72.7666 48.3887C72.8516 51.1356 72.5417 53.8592 72.3364 56.5892C71.2645 56.8784 70.1865 56.7395 69.1089 56.6371C69.0911 56.5271 69.0786 56.4164 69.0714 56.3053C68.5173 55.8933 67.9689 55.1228 67.3908 56.2789Z" fill="#F26868"/>
<path d="M66.1725 37.5193C66.6588 37.821 66.5713 38.3119 66.5852 38.7697C65.7961 40.0012 66.7188 42.0003 64.8135 42.7344C64.3169 43.1665 64.0269 43.7863 63.4967 44.1869C63.3267 44.2822 63.145 44.3097 62.954 44.273C62.0014 43.7895 61.669 42.588 60.5967 42.2385C59.9212 42.0164 59.6023 41.4597 59.3067 40.8795C59.0214 39.948 60.0044 39.1778 59.6395 38.2337C59.6305 37.9349 59.6966 37.6625 59.9151 37.4432C60.7967 37.3429 61.0566 38.0584 61.4483 38.6033C61.8 39.0496 62.1067 39.9333 62.7637 39.4202C63.3478 38.9639 62.5976 38.5283 62.2177 38.1841C61.8646 37.8638 61.3355 37.6339 61.5915 36.9944C62.1927 36.5559 62.8626 36.4235 63.5892 36.5459C64.2005 37.53 64.9096 38.2587 66.1725 37.5193Z" fill="#E65D5D"/>
<path d="M63.255 32.5259C63.9602 31.5433 65.4038 30.3928 62.6545 30.2875C62.1742 30.2693 61.4608 29.9247 61.7122 29.2131C61.9175 28.6318 62.568 28.9464 62.9904 28.8532C64.4194 28.5379 64.851 29.1421 65.137 30.3196C65.2392 30.741 65.7408 30.8334 66.1689 30.862C66.5353 31.85 66.902 32.8376 67.4965 34.44C66.5524 33.2753 64.9514 35.3934 64.8143 32.9704C64.7871 32.493 63.621 33.315 63.255 32.5259Z" fill="#DB5252"/>
<path d="M64.5018 42.5102C64.7864 41.6651 66.7041 41.5208 65.5077 39.9669C65.257 39.6416 65.8097 38.8204 66.5852 38.7697C67.1762 39.2764 67.3579 38.4044 67.8099 38.4069C68.4419 38.4105 68.8129 38.5248 68.2495 39.186C67.1333 39.3199 67.4925 40.1886 67.4236 40.8442C68.142 42.673 66.4885 42.4309 65.6373 42.8933C65.2034 42.9287 64.8003 42.873 64.5018 42.5102Z" fill="#E05858"/>
<path d="M63.6335 36.6002C63.0583 37.1719 62.3652 37.3115 61.5922 37.1562C61.3523 37.0876 61.2055 36.9316 61.1527 36.6877C61.0913 36.0568 61.1837 35.4637 61.5761 34.9428C62.944 34.3179 63.712 34.6746 63.7295 36.2592C63.8206 36.4074 63.7827 36.5195 63.6335 36.6002Z" fill="#FCF3F3"/>
<path d="M63.6335 36.6002C63.6182 36.4731 63.6499 36.3596 63.7296 36.2592C64.2219 36.0568 63.9313 35.0131 64.6925 35.222C65.3788 35.4102 65.1631 35.9179 64.966 36.5042C64.5997 37.5957 66.1086 36.7534 66.1729 37.5196C65.8587 38.3955 64.6804 38.0595 64.3698 39.3135C64.0434 38.112 63.8385 37.3561 63.6335 36.6002Z" fill="#E05858"/>
<path d="M68.2513 22.9529C67.7999 22.4841 67.2504 22.0649 67.4118 21.2876C67.1708 20.9755 67.1794 20.5835 67.5236 20.4806C68.1723 20.2871 68.3344 21.0052 68.7297 21.3004C68.8504 21.4261 68.9711 21.5518 69.0918 21.6775C69.0871 21.8303 69.0821 21.9828 69.0775 22.1356C69.0625 22.6715 68.7843 22.9411 68.2513 22.9529Z" fill="#DC5C5C"/>
<path d="M34.5828 0.114962C35.6058 -0.264587 36.2985 0.372759 37.024 0.907984C37.8306 1.76099 38.6372 2.61399 39.4438 3.46735C39.6248 3.99472 39.8062 4.52173 39.9872 5.04875C38.0384 4.82202 36.8451 5.68823 36.2996 7.55063C35.9554 8.72605 35.1131 8.91029 34.2115 8.28794C32.5348 7.13037 31.8699 8.08192 31.3411 9.50014C30.9962 10.4253 30.5742 11.2065 29.4045 10.4367C29.3188 9.66725 29.6608 9.03312 30.0393 8.41041L30.0129 8.44469C30.2103 7.84484 30.3653 7.22535 30.7838 6.72476C30.9255 6.44269 31.0676 6.16062 31.2094 5.87854C33.03 4.36463 33.5474 2.0884 34.5828 0.114962Z" fill="#F26868"/>
<path d="M62.8394 55.8315C62.5252 55.5537 61.7314 55.6416 61.9642 54.9746C62.1253 54.5129 62.6376 54.685 63.0293 54.8703C63.3878 55.0403 63.8556 54.996 64.0834 55.4184C63.627 55.4302 63.1382 55.3438 62.8394 55.8315Z" fill="#E86464"/>
<path d="M52.8415 72.4792C52.5673 72.4792 52.2931 72.4796 52.0185 72.4796C51.8236 71.5709 52.021 70.2194 50.3214 71.1228C49.8683 71.3634 49.3677 71.0107 49.021 70.6818C48.5947 70.2773 49.0178 69.9556 49.2289 69.6228C49.4838 69.2207 49.8841 68.7912 49.6648 68.3113C49.1585 67.2037 49.2181 66.6996 50.6635 66.7549C51.2712 66.7781 51.1416 65.8862 51.2055 65.3574C52.4988 67.5594 52.5309 70.0513 52.8415 72.4792Z" fill="#E15A5A"/>
<path d="M41.6061 12.1305C41.6232 12.5076 41.6404 12.8843 41.6579 13.2613C42.1831 14.6688 41.6989 15.2755 40.1947 15.3705C39.3841 15.4215 38.3405 15.1876 37.8627 16.2949C37.7581 16.5373 37.3804 16.5452 37.1279 16.3584C36.4659 15.8689 36.8769 15.2387 36.9369 14.6467C36.0364 14.4853 35.3509 15.3494 34.4561 15.1298C35.0234 15.7314 36.1296 14.2086 36.4702 15.639C36.7094 16.6441 35.2148 18.5825 34.0298 18.8521C33.5006 18.4108 33.4667 17.7952 33.4174 16.848C33.3735 17.8938 33.2846 18.6254 32.4112 18.8032C31.7503 18.9378 31.4393 18.4129 31.1215 17.9673C30.7631 17.4646 30.4821 16.8572 29.9286 16.5694C28.3212 15.7343 28.1987 14.4318 28.6561 12.905L28.63 12.9293C29.5812 11.8753 30.401 10.4577 32.0974 12.0327C32.3212 12.2405 33.5556 12.6433 33.1621 11.2058C32.9714 10.5092 33.6763 9.71008 34.3025 9.67759C35.5319 9.61332 36.6623 9.35302 37.7742 8.88278C37.8952 8.83172 38.1473 8.85457 38.1684 8.92563C38.6847 10.6763 40.9388 10.5552 41.6061 12.1305Z" fill="#DA5151"/>
<path d="M41.6057 12.1306C41.0948 11.51 40.4753 11.2008 39.6359 11.2815C38.9614 11.3465 38.4058 11.0233 38.1769 10.3674C38.0609 10.0347 39.0256 9.54693 38.0827 9.28378C37.4835 9.11668 37.014 9.40089 36.6927 9.92648C36.2292 10.6841 35.8282 11.2858 35.203 9.98253C34.9509 9.45731 34.4728 9.92755 34.2072 10.2028C33.8919 10.5295 33.4031 10.7481 33.4328 11.3365C33.4502 11.6893 34.9738 11.2483 33.8519 12.1609C33.1857 12.7029 31.796 12.9971 31.681 12.7658C30.5545 10.4992 29.7515 12.8979 28.8303 12.8797C28.7639 12.8782 28.6971 12.9125 28.63 12.93C28.6718 12.5365 28.7143 12.1434 28.7564 11.75C29.0171 11.3201 29.2777 10.8902 29.5384 10.4599C30.3746 10.5295 30.6231 10.1525 30.8473 9.3177C31.5014 6.87937 32.1495 6.64515 34.3243 7.86984C35.343 8.44363 35.5911 8.20726 35.9136 7.09111C36.6309 4.60565 38.1519 3.94153 39.9868 5.04911C41.254 7.24321 41.3087 9.71475 41.6057 12.1306Z" fill="#E05757"/>
<path d="M34.1244 18.79C35.4797 18.1152 35.6943 16.7462 36.3417 15.2777C35.1562 15.7782 34.2361 15.8907 33.5777 14.646C35.3037 15.1059 36.558 13.9958 38.0562 13.466C38.308 14.5878 36.6173 14.9774 37.3996 16.3185C37.9898 14.7585 39.407 14.7564 40.4428 14.7756C41.8714 14.8024 41.5657 14.0037 41.6571 13.2624C42.0378 14.1354 42.0245 15.012 41.6753 15.8907C40.1907 16.2028 38.7104 16.5395 37.2182 16.8123C36.763 16.8955 36.4166 16.9833 36.4484 17.5142C36.5484 19.1906 35.4762 19.558 34.1229 19.6234C33.8744 19.3449 33.9026 19.0671 34.1244 18.79Z" fill="#E05757"/>
<path d="M34.1243 18.79C34.124 19.0678 34.1233 19.3456 34.1229 19.623C32.534 18.8857 30.4042 19.9704 29.1206 18.0702C28.8042 17.6017 28.6118 17.7317 28.2715 19.2413C27.436 17.0708 27.6256 14.9627 28.6568 12.9054C28.7632 14.2329 28.5086 15.7611 30.4581 16.0507C30.5924 16.0707 30.6756 16.3713 30.8002 16.5277C32.4455 18.59 32.4462 18.5897 33.6191 16.2231C33.8119 17.205 33.9683 17.9973 34.1243 18.79Z" fill="#E15A5A"/>
<path d="M68.7297 21.3004C68.2877 21.5661 67.8649 19.8779 67.4118 21.2876C66.3614 23.2342 64.6286 21.7796 63.2561 22.1209C62.9651 21.8806 62.7244 21.6089 62.6859 21.2104C62.6869 21.0148 62.7712 20.8652 62.9372 20.7616C64.173 20.7884 64.5211 19.6169 65.2234 18.9756C66.6809 17.6442 67.0219 17.6295 67.9642 19.4487C68.2702 20.0393 68.7668 20.5638 68.7297 21.3004Z" fill="#E75E5E"/>
<path d="M61.9507 18.9456C62.2114 19.322 62.4724 19.6983 62.7327 20.0747C62.8009 20.3039 62.8691 20.5328 62.9376 20.7616L62.8269 20.9087C62.5431 21.0416 62.2949 20.9452 62.0543 20.792C61.9097 20.6777 61.7854 20.5435 61.6765 20.3946C61.4433 19.8476 60.7874 19.4141 61.2034 18.6868C61.4526 18.7732 61.7015 18.8592 61.9507 18.9456Z" fill="#E86565"/>
<path d="M61.2034 18.6868C61.3202 19.3456 62.0739 19.7148 62.0075 20.4567C61.7779 20.677 61.5548 20.9034 61.317 21.1148C61.5683 20.9173 61.7822 20.6806 62.0075 20.456C62.2806 20.6067 62.5538 20.7577 62.8266 20.9087C62.9698 21.3129 63.1129 21.7171 63.2558 22.1209C63.4425 22.8483 64.945 22.5887 64.5047 23.7862C64.2762 24.8292 63.6967 26.076 62.7312 25.9022C61.8275 25.7393 60.0833 25.8886 60.0705 23.8802C59.5524 25.3866 61.4155 25.8918 61.1738 27.1165C61.2784 27.53 61.8507 28.103 61.072 28.293C60.0869 28.5333 59.9352 29.4141 59.2839 30.2068C59.0525 29.3727 59.16 27.9831 57.7435 28.9957C57.3897 29.2488 56.8873 28.7382 56.9912 28.619C57.8167 27.6728 56.9595 26.5977 57.4054 25.4341C58.2913 23.1228 60.1869 21.0848 59.9205 18.3626C60.4789 17.9534 60.8371 18.3369 61.2034 18.6868Z" fill="#E15858"/>
<path d="M39.984 72.0943C40.1018 72.0593 40.2186 72.0218 40.3342 71.9808C40.32 72.6053 40.4717 73.1869 40.7823 73.7282C40.3735 73.8653 39.9651 74.0024 39.5566 74.1395C39.699 73.4579 39.8415 72.7759 39.984 72.0943Z" fill="#E15959"/>
<path d="M24.5803 48.2498C24.2026 47.4586 23.8416 46.7802 22.6933 47.1537C22.0238 47.3715 21.3379 47.033 20.983 46.3289C20.6977 45.7626 20.852 45.2345 21.3058 44.8496C21.9035 44.3426 22.6412 43.9705 23.3646 44.4629C24.1272 44.9817 24.5939 45.8019 25.799 45.709C26.4884 45.6558 26.6284 46.6527 26.5645 47.3761C26.0171 47.926 25.4073 48.3348 24.5803 48.2498Z" fill="#FCF3F3"/>
<path d="M25.3694 49.5888C25.4508 49.5163 25.4808 49.4264 25.4597 49.3196C26.347 48.6469 27.3271 48.187 28.0612 49.3742C28.5622 50.1847 27.9063 50.8578 27.1686 51.107C25.8614 51.5487 25.5086 50.6464 25.3694 49.5888Z" fill="#FBEBEB"/>
<path d="M24.1686 53.2629C24.1768 53.0144 24.1846 52.7655 24.1929 52.517C24.8013 51.9654 25.4001 51.2188 26.2684 52.0753C26.7733 52.5734 26.8104 53.1961 26.2473 53.7028C25.3801 54.484 24.7577 53.9059 24.1686 53.2629Z" fill="#F9DADA"/>
<path d="M22.8857 57.4965C22.3833 57.5043 21.686 57.7136 21.4311 57.4661C21.1458 57.1898 21.7164 56.8599 22.0563 56.6656C22.3326 56.9427 22.609 57.2198 22.8857 57.4965Z" fill="#E45656"/>
<path d="M61.1523 36.6877C61.2987 36.8437 61.4451 37.0001 61.5918 37.1562C61.8693 37.4132 62.1471 37.6707 62.4245 37.9278C62.2674 38.5094 61.9321 38.8597 61.2851 38.8054C60.8452 38.3762 60.4057 37.947 59.9662 37.5175C59.1753 37.5411 58.4194 36.3424 57.6042 37.4397C57.3875 37.7314 57.3625 38.0931 57.5885 38.388C58.3887 39.4335 59.1781 38.3626 59.9754 38.3544C60.9991 39.4102 59.2938 39.9637 59.5123 40.8713C58.6576 41.4533 57.6417 41.8482 57.1761 42.8819C56.1942 43.5224 56.9337 43.8266 57.4296 44.1783C57.7413 44.3712 57.8656 44.6579 57.8499 45.0149C58.1455 45.6283 54.8531 46.4167 57.9352 46.9348C57.9438 46.9362 57.9199 47.59 57.7885 47.8842C57.2854 49.0107 57.3636 50.1394 57.7446 51.3177C56.5806 50.907 55.127 51.6026 54.39 50.0908C54.2815 49.868 53.4463 49.8698 53.0811 50.2876C52.7854 50.626 52.7304 51.1995 53.0818 51.4058C55.654 52.9162 54.7774 53.8827 52.6269 54.7161C52.5344 54.7522 52.5055 54.9525 52.4469 55.0764C50.3657 55.563 48.4972 57.1109 46.1628 56.3386C45.8082 54.5719 45.9557 52.6955 44.9756 50.6103C44.455 53.3661 42.4598 52.0557 41.2715 52.7552C40.9273 50.3879 41.9049 48.3748 42.0892 46.2489C43.0253 45.8401 43.9369 45.1692 44.902 45.0799C46.607 44.9224 46.1067 44.1655 45.5715 43.3107C46.2238 43.0343 46.8662 44.1169 47.2725 43.3939C47.6585 42.7076 47.1433 42.5034 46.3738 42.297C45.7993 42.1431 46.4206 41.0938 46.4295 40.4728C46.4402 39.7134 47.2454 39.056 47.436 38.0256C47.6424 36.9105 48.4447 38.7529 49.3973 38.2944C49.0988 37.029 47.8606 35.8661 49.216 34.0769C50.3528 32.5762 52.5566 32.9554 53.0354 30.9934C53.697 31.3929 53.175 31.7971 53.261 32.1481C53.3842 32.6508 53.0368 33.3185 53.6791 33.6292C54.3133 33.9355 54.4275 33.2214 54.7835 32.9647C55.2916 32.598 55.2898 33.069 55.3591 33.3821C55.7793 33.8702 55.5298 34.3383 55.3212 34.8085C54.1319 36.4624 53.0257 35.7054 51.8785 34.7296C53.3039 35.9411 52.1588 37.2793 51.9971 38.5597C51.9353 39.0482 51.7436 39.5534 51.6286 40.0562C51.1908 41.9746 52.8169 42.8269 53.4831 44.1591C54.5279 44.4644 54.8081 45.2031 54.5968 46.2907C55.2198 45.001 55.2198 45.001 53.4206 43.7992C53.2371 43.2618 52.8804 42.9133 52.4141 42.5659C51.4958 41.8814 51.5661 41.0734 52.4284 40.3332C51.7739 39.848 51.5765 39.2724 52.1599 38.6133C52.799 37.8913 54.365 38.3102 55.1784 39.3995C55.1309 39.6702 54.9885 39.8958 54.8531 40.1304C54.6032 40.5635 54.0155 40.9506 54.545 41.5336C54.7328 41.7407 55.0485 41.739 55.3005 41.6147C56.0129 41.2637 56.02 40.7192 55.6747 40.0976C55.6094 39.9797 55.5408 39.8633 55.4683 39.7484C55.2752 39.2956 55.0813 38.8432 55.0238 38.3469C55.0824 37.6464 55.2527 36.9719 55.4998 36.3146C55.6397 36.0421 55.8418 35.8251 56.0939 35.6533C56.7984 35.3227 57.5221 35.0392 58.2727 34.8242C58.9611 34.8217 59.6327 34.8846 60.1904 35.3559C60.8363 35.5648 60.6385 36.3835 61.1523 36.6877Z" fill="#E05858"/>
<path d="M46.6088 27.5317C46.3935 26.6145 46.2325 25.8264 44.8753 26.3656C44.1955 26.6359 43.2843 26.3228 42.4777 26.2735C42.4377 25.694 42.5112 24.8728 43.1843 25.0738C44.8132 25.5608 46.3421 24.6335 47.952 25.0009C49.4763 25.3491 50.3075 26.0567 49.8591 27.6674C49.6573 28.3922 49.9408 28.8614 50.5082 28.9025C51.208 28.9532 50.8974 28.2966 50.9981 27.8624C51.3994 26.1353 53.039 26.8269 54.1369 26.3363C51.8343 27.2872 52.4013 30.4128 50.1172 31.4711C49.8051 30.5806 50.1133 29.4802 48.6315 29.1931C47.3897 28.9528 48.8375 28.2448 48.8286 27.7085C48.0699 27.6485 47.3393 27.5903 46.6088 27.5317Z" fill="#DD5555"/>
<path d="M61.1741 27.1165C60.5061 26.19 59.5167 25.4984 59.421 24.1723C59.3663 23.4142 59.6663 23.3375 60.2101 23.3839C60.4643 23.4057 61.0695 23.2471 60.6321 23.8784C60.2843 24.3804 60.7392 25.092 60.8531 24.9285C61.71 23.6963 62.542 26.9098 63.3068 24.8814C63.4771 24.4297 64.0937 24.1465 64.5051 23.7859C65.1978 24.0669 65.9465 24.0494 64.986 25.1959C64.1548 26.1885 64.007 27.7457 62.1378 26.8869C61.9018 26.7788 61.4997 27.0312 61.1741 27.1165Z" fill="#E75E5E"/>
<path d="M58.2191 34.8785C57.7624 35.6562 57.0837 35.9418 56.206 35.7865C55.2523 35.889 55.1209 35.2002 54.9838 34.5168C55.1084 34.1387 55.2334 33.7606 55.358 33.3821C56.3424 32.5109 57.3186 32.0285 58.2548 33.4431C58.6879 33.933 58.7222 34.4125 58.2191 34.8785Z" fill="#FCF3F3"/>
<path d="M58.2191 34.8785C58.2313 34.4001 58.243 33.9216 58.2552 33.4435C58.8925 32.8715 59.537 32.0021 60.4482 32.8733C61.3251 33.7117 60.8299 34.5825 60.1904 35.3566C59.4695 35.4595 58.8108 35.3073 58.2191 34.8785Z" fill="#FAE6E6"/>
<path d="M46.1921 30.4446C45.7732 30.3443 44.9242 30.0518 45.3426 29.7912C46.2835 29.2049 44.5507 27.2768 46.6091 27.5318C46.8958 28.5633 46.5666 29.507 46.1921 30.4446Z" fill="#DD5555"/>
<path d="M55.8168 32.0828C55.5305 32.0389 55.0577 31.9942 55.1888 31.7339C55.4901 31.1362 55.9325 30.5892 56.4092 30.1129C56.5477 29.9744 56.9662 30.2786 56.8512 30.5849C56.6334 31.1626 56.7409 32.0117 55.8168 32.0828Z" fill="#E05858"/>
<path d="M23.8019 49.7988C23.7705 50.8189 23.2549 51.5155 22.1962 51.5123C21.3468 51.5098 20.7976 50.916 20.7819 50.0444C20.763 48.9879 21.3518 48.3713 22.414 48.3413C23.3424 48.3152 23.7583 48.8847 23.8019 49.7988Z" fill="#FDF7F7"/>
<path d="M22.4279 54.9857C20.5691 55.6759 19.4319 54.9832 19.1844 53.0105C21.1965 52.03 22.3319 52.7216 22.4279 54.9857Z" fill="#FBEFEF"/>
<path d="M17.9252 48.3163C17.5763 47.7246 17.0672 47.1055 17.8184 46.4935C18.4111 46.0104 19.1256 46.0832 19.7729 46.4057C20.3357 46.6856 20.5442 47.2422 20.3824 47.8139C19.8972 49.5292 18.821 48.5459 17.9148 48.3066L17.9252 48.3163Z" fill="#FCF7F6"/>
<path d="M24.8884 42.6912C23.7773 42.9501 23.1742 41.7307 22.1923 42.342C21.0237 43.0701 21.0362 41.7768 20.5499 41.3016C22.0827 41.3973 23.7955 40.8278 24.8884 42.6912Z" fill="#E45252"/>
<path d="M31.0862 45.9419C30.3778 46.3028 29.8776 46.7824 29.1746 46.401C28.8843 46.2436 28.8982 45.9154 29.1403 45.7298C29.764 45.2524 30.3593 45.3709 31.0862 45.9419Z" fill="#E25959"/>
<path d="M28.67 39.8319C28.5768 40.2129 28.3729 40.3689 28.0748 40.3632C27.7452 40.3568 27.5381 40.144 27.7142 39.8562C27.8316 39.6645 28.1391 39.5588 28.3822 39.4934C28.4497 39.4752 28.5929 39.7373 28.67 39.8319Z" fill="#E25959"/>
<path d="M43.7794 31.9053C41.9813 28.3169 41.8835 31.9339 40.9319 31.9025C40.0114 30.7063 40.9719 29.6391 41.55 28.8225C42.2459 27.8395 43.497 28.1669 44.7346 28.5579C44.0651 29.3974 44.1522 30.4375 43.7794 31.9053Z" fill="#DD5555"/>
<path d="M15.3715 55.603C15.4169 57.9221 14.014 59.5578 13.3006 61.4166C13.618 59.4299 12.4983 56.978 15.3715 55.603Z" fill="#E45252"/>
<path d="M20.0742 58.3941C19.8979 58.4584 19.7086 58.5955 19.5437 58.5709C19.3141 58.5366 19.2455 58.2817 19.4094 58.1331C19.5315 58.0221 19.7708 58.0253 19.9593 58.0167C19.9875 58.016 20.0253 58.2288 20.0742 58.3941Z" fill="#E45656"/>
<path d="M60.7307 42.152C60.8588 41.5486 61.4655 40.9352 61.6087 41.7443C61.82 42.9376 62.9712 43.2171 63.2568 44.1783C64.5504 44.9196 65.3834 45.8918 64.9246 47.5104C64.955 48.0917 66.2107 48.3677 65.3395 49.1739C64.2823 50.1918 63.4354 50.6075 62.8284 48.6983C62.4485 47.5036 62.2917 47.5532 58.5651 46.3057C60.6278 45.7579 60.6921 44.2962 60.6882 42.8012C60.5303 42.5737 60.5182 42.3556 60.7307 42.152Z" fill="#DF5757"/>
<path d="M60.7306 42.1521C60.7164 42.3688 60.7024 42.5852 60.6881 42.8015C59.5374 43.7206 58.3619 43.5453 57.1754 42.8815C56.7541 40.8163 58.222 40.9466 59.5124 40.8706C60.1129 41.113 60.3975 41.6554 60.7306 42.1521Z" fill="#FAEAEA"/>
<path d="M57.8492 45.0149C57.5129 44.8346 57.4375 44.5233 57.429 44.1783C58.1413 43.5239 58.9007 43.7277 59.9255 44.0323C59.2514 44.7346 58.5412 44.8575 57.8492 45.0149Z" fill="#DF5757"/>
<path d="M41.8646 75.4071C41.9917 75.5217 42.212 75.6256 42.2427 75.7698C42.293 76.0059 42.0642 76.1412 41.8656 76.0562C41.7071 75.9884 41.6093 75.7798 41.4843 75.6338C41.5932 75.5688 41.7021 75.5038 41.8646 75.4071Z" fill="#E15959"/>
<path d="M52.0199 72.4789C50.9894 72.7923 51.6211 74.4355 50.3546 74.5601C50.9588 73.9056 49.9851 71.9886 52.0199 72.4789Z" fill="#E15A5A"/>
<path d="M64.9246 47.5104C64.3687 46.3996 63.8127 45.2892 63.2568 44.1784L63.2554 44.1798C63.8831 43.3172 64.8607 42.9797 65.753 42.5141C66.2029 41.8507 67.6704 42.2046 67.4236 40.8442C67.4068 41.825 70.3272 41.0595 68.7062 42.7948C67.9713 43.581 68.1863 44.5543 67.5222 45.4048C66.7459 46.3985 65.7833 46.8174 64.9246 47.5104Z" fill="#E65D5D"/>
<path d="M73.6606 33.7738C72.8394 33.7324 72.6755 35.3312 71.5808 34.6068L71.5797 34.6057C71.6704 34.279 71.724 33.9359 71.8604 33.6302C72.0646 33.1732 71.925 32.3398 72.6637 32.4063C73.3246 32.4655 73.6221 33.0993 73.6603 33.7752V33.7738H73.6606Z" fill="#E86162"/>
<path d="M78.7783 39.1086C79.296 39.4006 79.8138 39.6923 80.3315 39.9844C80.2636 40.2986 80.1955 40.6132 80.1276 40.9274C79.6884 40.0826 78.5184 41.0595 78.1256 40.1308C77.8585 39.501 78.3763 39.3328 78.7783 39.1086Z" fill="#E55F60"/>
<path d="M73.6606 33.7745C73.9388 33.7295 74.2959 33.376 74.4294 33.9177C74.4637 34.0576 74.3069 34.3769 74.1973 34.3972C73.7249 34.4858 73.7163 34.093 73.661 33.7734V33.7745H73.6606Z" fill="#E86162"/>
<path d="M59.9755 38.3541C59.3764 39.2964 58.6887 40.0797 57.4961 39.2242C56.5824 38.5687 56.6138 37.6103 57.2469 36.8759C58.4444 35.4866 59.2171 36.6106 59.9662 37.5175C59.9691 37.7964 59.9723 38.0752 59.9755 38.3541Z" fill="#FCF3F3"/>
<path d="M61.2852 38.805C61.6651 38.5126 62.0446 38.2202 62.4245 37.9278C63.2393 38.1138 63.8078 38.5294 63.6439 39.4585C63.5385 40.0558 63.0969 40.4329 62.4938 40.3689C61.6037 40.275 61.2648 39.6548 61.2852 38.805Z" fill="#F9DFDF"/>
<path d="M65.7526 42.5138C65.3059 43.6478 64.0441 43.5589 63.255 44.1794C63.6028 43.5724 63.7517 42.8166 64.5018 42.5098C64.9189 42.5113 65.3359 42.5127 65.7526 42.5138Z" fill="#DB5252"/>
<path d="M62.0075 20.456C62.0075 21.1037 61.9846 21.7482 61.068 21.6568C60.9224 21.6421 60.6717 21.4368 60.6789 21.3344C60.7378 20.4924 61.3587 20.4421 62.0075 20.4567V20.456Z" fill="#E86565"/>
<path d="M54.9842 34.5168C55.3916 34.9403 55.799 35.3634 56.2064 35.7869C56.0054 35.9643 55.8047 36.1418 55.6037 36.3192C55.2752 36.4535 54.9246 36.4146 54.5836 36.4546C54.1687 36.5031 53.6784 36.5528 53.5738 37.0198C53.4171 37.7185 54.0569 37.7289 54.4872 37.8717C54.8192 37.982 55.1413 38.0881 55.3566 38.3862C55.4941 38.7704 55.6315 39.1543 55.7686 39.5384C55.5051 39.8148 55.2248 39.8127 54.9317 39.5877C54.5054 38.1524 53.2607 38.9368 52.4716 38.8754C52.0674 38.844 51.9842 39.8719 52.8526 40.1379C52.9018 40.1529 52.9461 40.4382 52.9018 40.4693C51.0869 41.7472 52.6955 42.2603 53.4342 42.9997C53.6031 43.1686 53.6056 43.5032 53.6849 43.7617C53.9437 44.2387 53.4946 44.3608 53.2678 44.5947C52.9947 44.5665 52.7212 44.5386 52.448 44.5104C52.8747 42.8437 50.5353 42.0036 50.8563 41.0499C51.4183 39.3806 51.3687 37.5782 52.1095 35.9425C52.2617 35.6066 51.1541 34.514 51.1734 33.4635C52.4345 33.897 53.0079 36.9341 54.9842 34.5168Z" fill="#E55F5F"/>
<path d="M54.9317 39.5877C55.2105 39.5713 55.4894 39.5548 55.7686 39.5384C56.7273 40.2129 56.9705 41.0406 56.08 41.8971C55.4126 42.5391 54.5618 42.6355 53.9762 41.7861C53.1821 40.6342 54.4193 40.2418 54.9317 39.5877Z" fill="#FCF2F2"/>
<path d="M55.3563 38.3862C55.2195 38.3927 55.0824 38.4109 54.9467 38.4041C54.1416 38.3623 53.24 38.5205 52.769 37.6257C52.5091 37.1319 52.764 36.6816 53.1679 36.3696C53.9559 35.7601 54.7785 35.6708 55.6041 36.3192C55.9468 37.0591 55.8783 37.75 55.3563 38.3862Z" fill="#FBEFEF"/>
<path d="M53.2679 44.5943C53.4068 44.3165 53.546 44.0391 53.6849 43.7613C53.9366 43.8731 54.1784 44.0313 54.4422 44.0895C55.9811 44.429 56.3386 45.3327 55.3656 46.6149C55.1531 46.8948 54.9146 47.3458 54.3733 47.1733C53.7574 46.977 53.9695 46.5538 54.0827 46.1686C54.3148 45.3763 54.4894 44.6283 53.2679 44.5943Z" fill="#E65D5D"/>
<path d="M43.4621 49.5096C43.0854 49.9644 42.709 50.4197 42.0731 51.1881C42.0721 49.9991 42.5791 49.6035 43.4621 49.5096Z" fill="#E56364"/>
<path d="M46.9023 25.8543C47.073 25.7693 47.2422 25.6165 47.4114 25.6165C47.6464 25.6169 47.7667 25.8547 47.6235 26.03C47.5211 26.1557 47.2711 26.1785 47.0815 26.2014C47.0422 26.2064 46.9787 26.0075 46.9023 25.8543Z" fill="#E45B5B"/>
</g>
<defs>
<filter id="filter0_n_2341_3569" x="0" y="1.52588e-05" width="81" height="86.7999" filterUnits="userSpaceOnUse" color-interpolation-filters="sRGB">
<feFlood flood-opacity="0" result="BackgroundImageFix"/>
<feBlend mode="normal" in="SourceGraphic" in2="BackgroundImageFix" result="shape"/>
<feTurbulence type="fractalNoise" baseFrequency="1 1" stitchTiles="stitch" numOctaves="3" result="noise" seed="9452" />
<feColorMatrix in="noise" type="luminanceToAlpha" result="alphaNoise" />
<feComponentTransfer in="alphaNoise" result="coloredNoise1">
<feFuncA type="discrete" tableValues="0 0 0 0 0 0 0 0 0 0 0 0 1 1 1 1 1 1 1 1 1 1 1 1 1 1 1 1 1 1 1 1 1 1 1 1 1 1 0 0 0 0 0 0 0 0 0 0 0 0 0 0 0 0 0 0 0 0 0 0 0 0 0 0 0 0 0 0 0 0 0 0 0 0 0 0 0 0 0 0 0 0 0 0 0 0 0 0 0 0 0 0 0 0 0 0 0 0 0 0 "/>
</feComponentTransfer>
<feComposite operator="in" in2="shape" in="coloredNoise1" result="noise1Clipped" />
<feFlood flood-color="rgba(0, 0, 0, 0.25)" result="color1Flood" />
<feComposite operator="in" in2="noise1Clipped" in="color1Flood" result="color1" />
<feMerge result="effect1_noise_2341_3569">
<feMergeNode in="shape" />
<feMergeNode in="color1" />
</feMerge>
</filter>
</defs>
</svg>
