<svg width="18" height="18" viewBox="0 0 18 18" fill="none" xmlns="http://www.w3.org/2000/svg">
<g clip-path="url(#clip0_2341_3394)">
<path d="M8.78788 0C3.93446 0 0 3.93446 0 8.78788C0 13.6413 3.93446 17.5758 8.78788 17.5758C13.6413 17.5758 17.5758 13.6413 17.5758 8.78788C17.5758 3.93446 13.6413 0 8.78788 0Z" fill="white"/>
<path d="M13.0151 9.99958L9.26281 12.984C9.20696 13.0462 9.13809 13.096 9.06082 13.1301C8.98356 13.1642 8.89968 13.1818 8.81483 13.1818C8.72997 13.1818 8.64609 13.1642 8.56883 13.1301C8.49156 13.096 8.42269 13.0462 8.36684 12.984L4.57953 9.99958C4.45991 9.86751 4.39392 9.69756 4.39392 9.52157C4.39392 9.34558 4.45991 9.17563 4.57953 9.04356C4.70349 8.91221 4.86593 8.78751 5.02836 8.78751C5.1908 8.78751 5.3045 8.85734 5.48147 8.99202L8.18047 11.0878V5.06982C8.18047 4.69572 8.46431 4.39395 8.81483 4.39395C9.16535 4.39395 9.44918 4.69572 9.44918 5.06982V11.1269L12.0499 8.95793C12.3858 8.68526 12.727 8.72183 12.9749 8.98536C13.2228 9.24973 13.2621 9.73605 13.0151 9.99958Z" fill="#404040"/>
</g>
<defs>
<clipPath id="clip0_2341_3394">
<rect width="17.5758" height="17.5758" fill="white"/>
</clipPath>
</defs>
</svg>
