<svg width="18" height="15" viewBox="0 0 18 15" fill="none" xmlns="http://www.w3.org/2000/svg">
<path d="M9.09395 7.43029V12.9595C9.09395 13.569 9.58709 14.0769 10.2108 14.0769C10.8199 13.8592 12.0238 13.4384 13.1841 12.9159C13.4887 12.7708 13.7788 12.6112 14.3589 12.2919C14.7215 12.1178 15.0406 11.871 15.3017 11.5663C15.4322 11.3921 15.5338 11.2035 15.6063 11.0003V1.13196C15.6063 0.522442 15.1132 0.0145123 14.504 0.0145123C14.1704 0.0725614 13.8513 0.145123 13.5322 0.232197C14.1414 1.7705 13.9818 3.51197 13.1116 4.93418C12.2268 6.34187 10.7474 7.27065 9.10845 7.43029H9.09395ZM2.5816 0.0145123C1.97243 0.0145123 1.46478 0.50793 1.46478 1.11745V10.9858C1.5373 11.189 1.63883 11.3776 1.76937 11.5518C2.03044 11.8565 2.34953 12.1032 2.72664 12.2774C3.10375 12.5096 3.49536 12.7128 3.90147 12.9014C5.0618 13.4093 6.26564 13.8447 6.87482 14.0624C7.48399 14.0624 7.99163 13.569 7.99163 12.945V7.40126C5.09081 7.06748 2.98771 4.45527 3.32131 1.5383C3.36482 1.08842 3.48085 0.653053 3.6404 0.232197C3.2923 0.145123 2.9442 0.0580491 2.5816 0V0.0145123Z" fill="white"/>
<path d="M15.911 11.9717C15.6644 12.2765 15.3308 12.5232 14.9682 12.6973C14.4026 13.0166 14.098 13.1762 13.8079 13.3069C14.1125 13.3069 15.0408 13.3069 15.94 13.2633C16.2301 13.2633 16.5202 13.1617 16.7523 12.9876C16.9553 12.8134 17.1149 12.5812 17.1874 12.32V2.45167C17.1874 1.88569 16.7523 1.40679 16.1866 1.34874C16.2011 1.4213 16.2156 1.47935 16.2156 1.55191V11.4203C16.1431 11.6234 16.0416 11.7976 15.911 11.9717ZM1.00078 1.33423C0.435123 1.39228 0 1.87118 0 2.45167V12.32C0.0725206 12.5812 0.217562 12.828 0.435123 13.0021C0.667189 13.1762 0.957272 13.2778 1.24735 13.2778C2.14661 13.3359 3.07487 13.3359 3.37946 13.3214C3.08938 13.1908 2.79929 13.0311 2.21913 12.7119C1.85653 12.5377 1.53744 12.291 1.27636 11.9862C1.14583 11.8121 1.0443 11.6234 0.971776 11.4203V1.5374C0.971776 1.5374 0.971776 1.40679 1.00078 1.33423ZM13.5178 0.231293C11.8063 0.5941 10.3269 1.63898 9.41317 3.13375C9.28263 3.38046 9.1666 3.64168 9.07958 3.91741V7.41487C11.9949 7.13914 14.127 4.55595 13.8514 1.6535C13.8079 1.16008 13.6919 0.681173 13.5178 0.231293Z" fill="white"/>
<path d="M8.0066 7.41588V3.93293C7.91957 3.6572 7.80354 3.39597 7.673 3.14927C6.77375 1.68353 5.32333 0.638641 3.65536 0.261322C2.61106 2.98963 3.95995 6.03721 6.67222 7.09661C7.09284 7.25624 7.54246 7.37234 8.0066 7.41588Z" fill="white"/>
</svg>
