<svg width="22" height="22" viewBox="0 0 22 22" fill="none" xmlns="http://www.w3.org/2000/svg">
<g clip-path="url(#clip0_2341_3376)">
<path fill-rule="evenodd" clip-rule="evenodd" d="M7.97592 5.27083C8.50484 4.35417 9.82759 4.35417 10.3574 5.27083L13.5658 10.8277L14.3926 9.39583C14.9215 8.47917 16.2443 8.47917 16.7741 9.39583L20.7433 16.2708C20.8639 16.4799 20.9275 16.717 20.9275 16.9583C20.9275 17.1997 20.8639 17.4368 20.7433 17.6458C20.6226 17.8548 20.449 18.0284 20.24 18.1491C20.031 18.2698 19.7939 18.3333 19.5525 18.3333H15.5833V18.3315C15.5614 18.3326 15.5393 18.3332 15.5173 18.3333H2.81601C2.57457 18.3335 2.33735 18.2701 2.1282 18.1494C1.91905 18.0288 1.74535 17.8553 1.62456 17.6462C1.50377 17.4372 1.44016 17.2 1.44012 16.9586C1.44009 16.7171 1.50362 16.4799 1.62434 16.2708L7.97592 5.27083ZM7.14176 10.3822L7.79167 10.8148L8.65792 10.2373C8.80856 10.1368 8.98559 10.0832 9.16667 10.0832C9.34776 10.0832 9.52479 10.1368 9.67542 10.2373L10.5417 10.8148L11.1916 10.3822L9.16667 6.875L7.14176 10.3822Z" fill="#404040"/>
</g>
<defs>
<clipPath id="clip0_2341_3376">
<rect width="22" height="22" fill="white"/>
</clipPath>
</defs>
</svg>
