<svg width="274" height="96" viewBox="0 0 274 96" fill="none" xmlns="http://www.w3.org/2000/svg">
<path d="M0 27.0672C0 19.8504 5.8504 14 13.0672 14H48.7051C55.9219 14 61.7723 19.8504 61.7723 27.0672V62.7051C61.7723 69.9219 55.9219 75.7723 48.7051 75.7723H13.0672C5.85039 75.7723 0 69.9219 0 62.7051V27.0672Z" fill="url(#paint0_linear_2341_3359)"/>
<path d="M43.0505 50.4456L45.9015 47.3095L51.8887 51.8236C51.556 52.2038 50.9383 52.6314 49.988 52.8215V65.0334C49.8929 65.366 46.7093 66.4589 44.6185 66.4589H43.5256V50.4456H43.0505ZM35.4477 64.8433C35.4477 65.4136 32.6442 66.8391 29.9357 66.8391H29.0329V47.8797L35.6853 50.4456H46.8043V51.7761H35.4477V64.8433ZM40.1044 26.497C39.3441 31.7714 37.8236 40.467 36.6832 45.3613H30.5059C31.5988 40.3245 33.0243 31.5813 33.6896 26.497H40.1044ZM41.8625 34.3373L44.666 31.4388L50.1305 35.5252C49.8929 35.9054 49.3227 36.238 48.4199 36.4281V45.2187H42.3377V34.3373H41.8625ZM44.9511 34.3373V35.6678H27.7974L27.3698 34.3373H44.9511ZM46.7568 62.4675V63.798H32.5492V62.4675H46.7568ZM50.4156 41.4174C50.4156 41.4174 53.0766 43.8883 54.5496 45.5038C54.4546 46.0265 53.9794 46.2641 53.3142 46.2641H25.6592L25.279 44.9336H48.0398L50.4156 41.4174ZM47.1845 22.2204C47.1845 22.2204 50.6057 25.0239 52.6014 26.9246C52.4589 27.4473 51.9362 27.6849 51.2709 27.6849H27.3698L26.9897 26.3544H44.1909L47.1845 22.2204ZM23.9485 28.0175C23.9485 28.0175 26.9896 30.4409 28.8428 32.1515C28.7003 32.6742 28.2251 32.9118 27.5599 32.9118H8.83808L8.45795 31.5813H21.2401L23.9485 28.0175ZM22.2379 41.0848C22.2379 41.0848 24.9464 43.223 26.562 44.7436C26.4194 45.2663 25.9443 45.5038 25.279 45.5038H10.5962L10.2161 44.1734H19.8621L22.2379 41.0848ZM22.2379 34.5749C22.2379 34.5749 24.9464 36.7132 26.562 38.2337C26.4194 38.7564 25.9443 38.994 25.279 38.994H10.5962L10.2161 37.6635H19.8621L22.2379 34.5749Z" fill="white"/>
<path d="M26.562 26.9009C24.9464 25.3803 22.2379 23.2421 22.2379 23.2421L19.8621 26.3307H10.2161L10.5962 27.6611H25.279C25.9443 27.6611 26.4194 27.4236 26.562 26.9009Z" fill="white"/>
<path fill-rule="evenodd" clip-rule="evenodd" d="M17.8192 53.2015C15.1949 53.2015 13.0675 55.329 13.0675 57.9533C13.0675 60.5776 15.1949 62.705 17.8192 62.705C20.4435 62.705 22.571 60.5776 22.571 57.9533C22.571 55.329 20.4435 53.2015 17.8192 53.2015ZM17.8192 67.4567C23.0678 67.4567 27.3227 63.2019 27.3227 57.9533C27.3227 52.7047 23.0678 48.4498 17.8192 48.4498C12.5706 48.4498 8.3158 52.7047 8.3158 57.9533C8.3158 63.2019 12.5706 67.4567 17.8192 67.4567Z" fill="white"/>
<path d="M102.544 61.92V25.392L111.616 26.16C111.568 26.784 111.376 27.168 109.792 27.408V61.968C109.792 66.384 108.688 69.84 100.144 70.656C100.144 65.808 98.272 64.224 92.512 63.456V62.88H101.584C102.304 62.88 102.544 62.544 102.544 61.92ZM83.344 60.768L83.008 60.336C87.328 54 89.92 44.4 90.832 37.872L100.192 41.472C100.048 42 99.616 42.384 98.416 42.384C95.536 48.624 90.832 56.112 83.344 60.768ZM114.256 39.216L114.688 38.928C125.392 43.392 128.896 49.488 128.896 53.856C128.896 57.12 126.976 59.424 124.624 59.424C123.472 59.424 122.272 58.944 121.12 57.792C120.88 51.6 118.288 43.92 114.256 39.216ZM171.904 45.984L173.728 42.624L177.712 46.8C177.376 47.328 176.704 47.472 175.456 47.472H149.392L149.2 46.704H155.056C155.488 44.256 156.016 40.992 156.448 37.776H152.176L151.936 37.008H156.544C156.88 34.464 157.216 31.92 157.408 29.904H151.072L150.88 29.136H166.912L170.032 25.008L175.792 29.232C175.456 29.76 174.736 29.904 173.488 29.904H163.744C163.552 31.968 163.216 34.464 162.88 37.008H165.28L167.488 34.128L173.632 38.208C173.344 38.544 172.768 38.928 171.904 39.12V45.984ZM165.76 46.704V37.776H162.784C162.352 41.04 161.872 44.304 161.392 46.704H165.76ZM133.456 47.328H141.856L144.448 43.776L149.296 47.424C148.96 47.952 148.24 48.096 147.088 48.096H133.696L133.456 47.328ZM159.088 52.848H166.144L168.592 49.632L175.168 54.24C174.88 54.576 174.304 55.008 173.344 55.2V68.016C173.344 68.112 171.616 69.84 166.624 69.84V66.432H158.8V68.208C158.8 68.352 157.888 70.56 152.368 70.56V50.208L159.088 52.848ZM158.8 53.616V65.664H166.624V53.616H158.8ZM139.6 54H142.384L144.544 51.12L150.592 55.296C150.304 55.632 149.776 56.016 148.864 56.16V67.056C148.864 67.152 147.376 68.736 142.816 68.736V65.136H139.408V68.352C139.408 68.496 138.544 70.56 133.408 70.56V51.504L139.6 54ZM139.408 54.768V64.368H142.816V54.768H139.408ZM144.352 25.008L149.296 28.752C148.96 29.28 148.288 29.424 147.088 29.424H133.936L133.696 28.656H141.664L144.352 25.008ZM144.064 34.752L146.704 31.152L151.648 34.848C151.312 35.376 150.64 35.52 149.44 35.52H131.344L131.152 34.752H144.064ZM141.856 41.04L144.448 37.488L149.296 41.136C148.96 41.664 148.24 41.808 147.088 41.808H133.696L133.456 41.04H141.856ZM217.6 30.672L224.464 36.048C224.08 36.576 223.456 36.72 222.016 36.72H216.784C214.768 44.736 211.504 51.552 206.368 57.024C211.744 60.336 217.984 62.496 224.464 63.936L224.32 64.56C220.864 65.04 218.368 67.2 217.072 70.656C211.12 68.352 205.936 65.424 201.76 61.2C196.144 65.472 188.848 68.592 179.392 70.512L179.2 70.032C187.648 67.104 194.032 62.928 198.688 57.6C194.848 52.416 192.112 45.696 190.624 36.72H179.776L179.536 35.952H198.352V24.768L207.376 25.632C207.28 26.256 206.896 26.64 205.552 26.832V35.952H213.76L217.6 30.672ZM208.24 36.72H191.392C193.312 44.064 196.96 49.488 201.712 53.616C204.928 48.72 207.04 43.056 208.24 36.72ZM251.92 49.872H264.304L266.608 46.848L272.752 51.216C272.464 51.6 271.792 52.032 270.784 52.224V64.608C270.784 67.728 270.256 69.984 264.256 70.656C264.256 67.344 263.824 66.048 261.184 65.616V65.232C260.368 65.472 260.128 65.472 259.12 65.472V63.264H256.96V65.184C256.96 65.232 256.528 66.48 253.264 66.48V53.088L257.2 54.768H258.784L260.176 52.944L264.304 55.776C264.112 56.016 263.632 56.304 263.008 56.448V64.128C262.96 64.368 262.432 64.752 261.664 65.04H264.4C264.688 65.04 264.784 64.896 264.784 64.464V50.64H251.632V68.448C251.632 68.592 250.816 70.512 246.016 70.512V55.392C245.536 55.632 245.008 55.776 244.48 55.776C243.52 55.776 242.512 55.344 241.744 54.288C241.888 52.032 241.312 49.248 240.4 47.28V68.928C240.4 69.312 238.384 70.704 235.312 70.704H234.16V55.296C232.24 57.984 229.936 60.432 227.344 62.592L226.816 61.968C230.224 56.4 232.48 48.48 233.632 41.28H227.296L227.104 40.512H234.16V33.264C231.808 33.552 229.456 33.84 227.2 34.032L227.104 33.552C231.856 31.248 238 27.36 240.976 24.816L248.512 31.2L248.368 31.296H255.28V24.912L263.44 25.68C263.344 26.352 262.912 26.688 261.52 26.88V31.296H264.256L267.28 27.024L272.848 31.392C272.512 31.92 271.792 32.064 270.544 32.064H243.904L243.76 31.584C242.752 31.824 241.6 32.064 240.4 32.256V40.512H240.688L243.424 36.24L248.464 40.608C248.08 41.136 247.408 41.28 246.16 41.28H240.448L240.4 41.472V46.32C243.04 47.088 244.864 48.096 246.016 49.056V47.52L251.92 49.872ZM256.96 55.536V62.496H259.12V55.536H256.96ZM268.048 38.64V45.312C267.952 45.648 264.832 46.608 262.864 46.608H261.808V44.688H255.04V45.168C255.04 45.264 254.176 47.232 249.232 47.232V33.936L255.28 36.288H261.328L263.632 33.264L269.968 37.632C269.68 38.016 269.008 38.448 268.048 38.64ZM255.04 37.056V43.92H261.808V37.056H255.04Z" fill="#434343"/>
<defs>
<linearGradient id="paint0_linear_2341_3359" x1="61.7723" y1="14" x2="0" y2="75.7723" gradientUnits="userSpaceOnUse">
<stop stop-color="#EE0012"/>
<stop offset="1" stop-color="#910913"/>
</linearGradient>
</defs>
</svg>
