<svg width="258" height="96" viewBox="0 0 258 96" fill="none" xmlns="http://www.w3.org/2000/svg">
<path d="M0 27.0672C0 19.8504 5.8504 14 13.0672 14H48.7051C55.9219 14 61.7723 19.8504 61.7723 27.0672V62.7051C61.7723 69.9219 55.9219 75.7723 48.7051 75.7723H13.0672C5.85039 75.7723 0 69.9219 0 62.7051V27.0672Z" fill="url(#paint0_linear_2341_3359)"/>
<path d="M43.0505 50.4456L45.9015 47.3095L51.8887 51.8236C51.556 52.2038 50.9383 52.6314 49.988 52.8215V65.0334C49.8929 65.366 46.7093 66.4589 44.6185 66.4589H43.5256V50.4456H43.0505ZM35.4477 64.8433C35.4477 65.4136 32.6442 66.8391 29.9357 66.8391H29.0329V47.8797L35.6853 50.4456H46.8043V51.7761H35.4477V64.8433ZM40.1044 26.497C39.3441 31.7714 37.8236 40.467 36.6832 45.3613H30.5059C31.5988 40.3245 33.0243 31.5813 33.6896 26.497H40.1044ZM41.8625 34.3373L44.666 31.4388L50.1305 35.5252C49.8929 35.9054 49.3227 36.238 48.4199 36.4281V45.2187H42.3377V34.3373H41.8625ZM44.9511 34.3373V35.6678H27.7974L27.3698 34.3373H44.9511ZM46.7568 62.4675V63.798H32.5492V62.4675H46.7568ZM50.4156 41.4174C50.4156 41.4174 53.0766 43.8883 54.5496 45.5038C54.4546 46.0265 53.9794 46.2641 53.3142 46.2641H25.6592L25.279 44.9336H48.0398L50.4156 41.4174ZM47.1845 22.2204C47.1845 22.2204 50.6057 25.0239 52.6014 26.9246C52.4589 27.4473 51.9362 27.6849 51.2709 27.6849H27.3698L26.9897 26.3544H44.1909L47.1845 22.2204ZM23.9485 28.0175C23.9485 28.0175 26.9896 30.4409 28.8428 32.1515C28.7003 32.6742 28.2251 32.9118 27.5599 32.9118H8.83808L8.45795 31.5813H21.2401L23.9485 28.0175ZM22.2379 41.0848C22.2379 41.0848 24.9464 43.223 26.562 44.7436C26.4194 45.2663 25.9443 45.5038 25.279 45.5038H10.5962L10.2161 44.1734H19.8621L22.2379 41.0848ZM22.2379 34.5749C22.2379 34.5749 24.9464 36.7132 26.562 38.2337C26.4194 38.7564 25.9443 38.994 25.279 38.994H10.5962L10.2161 37.6635H19.8621L22.2379 34.5749Z" fill="white"/>
<path d="M26.562 26.9009C24.9464 25.3803 22.2379 23.2421 22.2379 23.2421L19.8621 26.3307H10.2161L10.5962 27.6611H25.279C25.9443 27.6611 26.4194 27.4236 26.562 26.9009Z" fill="white"/>
<path fill-rule="evenodd" clip-rule="evenodd" d="M17.8192 53.2015C15.1949 53.2015 13.0675 55.329 13.0675 57.9533C13.0675 60.5776 15.1949 62.705 17.8192 62.705C20.4435 62.705 22.571 60.5776 22.571 57.9533C22.571 55.329 20.4435 53.2015 17.8192 53.2015ZM17.8192 67.4567C23.0678 67.4567 27.3227 63.2019 27.3227 57.9533C27.3227 52.7047 23.0678 48.4498 17.8192 48.4498C12.5706 48.4498 8.3158 52.7047 8.3158 57.9533C8.3158 63.2019 12.5706 67.4567 17.8192 67.4567Z" fill="white"/>
<path d="M104.848 55.968L114.688 29.904H126.256V32.256C122.752 32.256 122.464 32.784 122.464 36.432V59.568C122.464 63.168 122.8 63.696 126.304 63.696V66H111.136V63.696C114.64 63.696 114.928 63.12 114.928 59.568V37.68H114.784L103.84 66.288H101.392L90.352 37.536H90.208V59.568C90.208 63.12 90.592 63.696 93.76 63.696V66H83.344V63.696C86.704 63.696 87.04 63.12 87.04 59.568V36.24C87.04 32.784 86.704 32.256 83.296 32.256V29.904H94.72L104.704 55.968H104.848ZM146.662 66.624C136.87 66.624 134.23 60.624 134.23 53.616C134.23 45.456 138.646 40.944 146.662 40.944C155.302 40.944 159.142 45.84 159.142 53.616C159.142 60.528 156.55 66.624 146.662 66.624ZM146.614 43.152H146.566C142.774 43.152 141.67 47.568 141.67 53.808C141.67 58.176 142.294 60.96 143.302 62.592C144.07 63.792 145.222 64.416 146.614 64.416C148.054 64.416 149.158 63.792 149.926 62.592C150.982 60.96 151.606 58.176 151.606 53.808C151.606 49.584 151.03 46.752 149.974 45.024C149.206 43.776 148.054 43.152 146.614 43.152ZM187.792 59.568L189.904 60.576C187.504 64.944 183.952 66.624 179.728 66.624C171.904 66.624 167.296 62.304 167.296 53.28C167.296 47.088 170.656 40.944 179.056 40.944C189.568 40.944 190.048 51.216 190.048 53.76H174.784C174.784 56.928 175.264 59.472 176.416 61.392C177.568 63.12 179.296 64.032 181.072 64.032C184.816 64.032 186.976 61.392 187.792 59.568ZM174.784 51.552H182.848C182.848 48.48 182.464 43.152 179.008 43.152C175.744 43.152 174.832 47.808 174.784 51.552ZM207.712 28.8V52.224H207.808L214.096 45.84C214.768 45.216 215.2 44.688 215.2 44.304C215.2 43.824 214.624 43.584 213.184 43.584V41.568H222.88V43.584C221.488 43.584 220.24 43.872 218.992 45.072L214.528 49.584L221.536 61.584C222.688 63.696 223.744 64.032 225.328 64.032V66H216.112L209.44 53.904L207.712 55.872V60.048C207.76 63.456 207.952 63.984 210.208 63.984V66H197.728V63.984C200.464 63.984 200.608 63.36 200.608 60.048V36.576C200.608 33.264 200.32 32.64 197.728 32.64V30.768C200.272 30.528 203.68 29.712 206.848 28.416L207.712 28.8ZM246.517 50.304V48.096C246.517 44.16 244.933 43.152 242.965 43.152C240.181 43.152 239.221 45.504 238.789 46.848C238.309 48.048 237.541 48.768 235.717 48.768C233.893 48.768 233.125 47.664 233.125 46.416C233.125 44.688 234.805 40.944 243.493 40.944C247.909 40.944 253.573 41.52 253.573 49.536V60.48C253.573 63.072 254.101 63.936 255.109 63.936C255.589 63.936 256.069 63.792 256.453 63.552L256.837 65.472C255.541 66 254.101 66.288 251.797 66.288C248.917 66.288 247.621 65.472 246.853 63.648H246.661C245.125 65.184 243.157 66.624 239.173 66.624C235.813 66.624 231.973 64.608 231.973 60.144C231.973 57.552 233.029 55.584 235.477 54.096C237.301 52.896 239.893 51.888 243.253 51.12L246.517 50.304ZM246.517 61.296V52.368C242.389 53.664 239.365 55.488 239.365 59.04C239.365 61.92 240.709 63.264 242.677 63.264C244.453 63.264 245.653 62.16 246.517 61.296Z" fill="#434343"/>
<path d="M104.848 55.968V56.468H105.194L105.316 56.1446L104.848 55.968ZM114.688 29.904V29.404H114.342L114.22 29.7274L114.688 29.904ZM126.256 29.904H126.756V29.404H126.256V29.904ZM126.256 32.256V32.756H126.756V32.256H126.256ZM126.304 63.696H126.804V63.196H126.304V63.696ZM126.304 66V66.5H126.804V66H126.304ZM111.136 66H110.636V66.5H111.136V66ZM111.136 63.696V63.196H110.636V63.696H111.136ZM114.928 37.68H115.428V37.18H114.928V37.68ZM114.784 37.68V37.18H114.44L114.317 37.5014L114.784 37.68ZM103.84 66.288V66.788H104.184L104.307 66.4667L103.84 66.288ZM101.392 66.288L100.925 66.4672L101.048 66.788H101.392V66.288ZM90.352 37.536L90.8188 37.3568L90.6956 37.036H90.352V37.536ZM90.208 37.536V37.036H89.708V37.536H90.208ZM93.76 63.696H94.26V63.196H93.76V63.696ZM93.76 66V66.5H94.26V66H93.76ZM83.344 66H82.844V66.5H83.344V66ZM83.344 63.696V63.196H82.844V63.696H83.344ZM83.296 32.256H82.796V32.756H83.296V32.256ZM83.296 29.904V29.404H82.796V29.904H83.296ZM94.72 29.904L95.1869 29.7251L95.0639 29.404H94.72V29.904ZM104.704 55.968L104.237 56.1469L104.36 56.468H104.704V55.968ZM104.848 55.968L105.316 56.1446L115.156 30.0806L114.688 29.904L114.22 29.7274L104.38 55.7914L104.848 55.968ZM114.688 29.904V30.404H126.256V29.904V29.404H114.688V29.904ZM126.256 29.904H125.756V32.256H126.256H126.756V29.904H126.256ZM126.256 32.256V31.756C125.377 31.756 124.658 31.7882 124.085 31.9057C123.503 32.0249 123.021 32.2418 122.668 32.6484C122.322 33.0471 122.157 33.5655 122.069 34.1686C121.981 34.7713 121.964 35.5218 121.964 36.432H122.464H122.964C122.964 35.5182 122.983 34.8347 123.059 34.3124C123.134 33.7905 123.26 33.4929 123.424 33.3036C123.581 33.1222 123.828 32.9791 124.286 32.8853C124.752 32.7898 125.383 32.756 126.256 32.756V32.256ZM122.464 36.432H121.964V59.568H122.464H122.964V36.432H122.464ZM122.464 59.568H121.964C121.964 60.4675 121.984 61.2104 122.077 61.8084C122.17 62.4079 122.344 62.9216 122.698 63.3158C123.057 63.7158 123.543 63.9295 124.127 64.0474C124.704 64.1637 125.424 64.196 126.304 64.196V63.696V63.196C125.432 63.196 124.796 63.1623 124.325 63.0671C123.86 62.9735 123.605 62.8302 123.442 62.6482C123.274 62.4604 123.145 62.1671 123.065 61.6551C122.986 61.1416 122.964 60.4685 122.964 59.568H122.464ZM126.304 63.696H125.804V66H126.304H126.804V63.696H126.304ZM126.304 66V65.5H111.136V66V66.5H126.304V66ZM111.136 66H111.636V63.696H111.136H110.636V66H111.136ZM111.136 63.696V64.196C112.017 64.196 112.736 64.1607 113.31 64.0398C113.892 63.9171 114.372 63.6966 114.724 63.2916C115.069 62.8939 115.235 62.3798 115.323 61.7846C115.411 61.1903 115.428 60.4544 115.428 59.568H114.928H114.428C114.428 60.4576 114.409 61.1257 114.334 61.6384C114.258 62.1502 114.133 62.4461 113.968 62.6364C113.81 62.8194 113.561 62.9649 113.104 63.0612C112.638 63.1593 112.007 63.196 111.136 63.196V63.696ZM114.928 59.568H115.428V37.68H114.928H114.428V59.568H114.928ZM114.928 37.68V37.18H114.784V37.68V38.18H114.928V37.68ZM114.784 37.68L114.317 37.5014L103.373 66.1094L103.84 66.288L104.307 66.4667L115.251 37.8587L114.784 37.68ZM103.84 66.288V65.788H101.392V66.288V66.788H103.84V66.288ZM101.392 66.288L101.859 66.1088L90.8188 37.3568L90.352 37.536L89.8852 37.7152L100.925 66.4672L101.392 66.288ZM90.352 37.536V37.036H90.208V37.536V38.036H90.352V37.536ZM90.208 37.536H89.708V59.568H90.208H90.708V37.536H90.208ZM90.208 59.568H89.708C89.708 60.4578 89.7315 61.1932 89.8234 61.7878C89.9152 62.3825 90.0829 62.8909 90.4125 63.2849C90.7502 63.6884 91.2075 63.9129 91.7576 64.038C92.2968 64.1607 92.9619 64.196 93.76 64.196V63.696V63.196C92.9741 63.196 92.4032 63.1593 91.9794 63.063C91.5665 62.9691 91.3338 62.8276 91.1795 62.6431C91.0171 62.4491 90.8908 62.1475 90.8116 61.6352C90.7325 61.1228 90.708 60.4542 90.708 59.568H90.208ZM93.76 63.696H93.26V66H93.76H94.26V63.696H93.76ZM93.76 66V65.5H83.344V66V66.5H93.76V66ZM83.344 66H83.844V63.696H83.344H82.844V66H83.344ZM83.344 63.696V64.196C84.1893 64.196 84.8856 64.1607 85.4452 64.0391C86.0141 63.9155 86.4853 63.6935 86.8316 63.2894C87.171 62.8934 87.339 62.3818 87.4293 61.7865C87.5196 61.1919 87.54 60.4561 87.54 59.568H87.04H86.54C86.54 60.4559 86.5184 61.1241 86.4407 61.6365C86.363 62.1482 86.237 62.4466 86.0724 62.6386C85.9147 62.8225 85.6719 62.9665 85.2328 63.0619C84.7844 63.1593 84.1787 63.196 83.344 63.196V63.696ZM87.04 59.568H87.54V36.24H87.04H86.54V59.568H87.04ZM87.04 36.24H87.54C87.54 35.3762 87.5196 34.6598 87.4281 34.0813C87.3363 33.501 87.1646 33.0012 86.8169 32.6166C86.4645 32.227 85.9885 32.0181 85.4181 31.9025C84.8549 31.7883 84.1521 31.756 83.296 31.756V32.256V32.756C84.1439 32.756 84.7611 32.7897 85.2194 32.8825C85.6705 32.9739 85.9175 33.113 86.0751 33.2874C86.2374 33.4668 86.3627 33.747 86.4404 34.2377C86.5184 34.7302 86.54 35.3758 86.54 36.24H87.04ZM83.296 32.256H83.796V29.904H83.296H82.796V32.256H83.296ZM83.296 29.904V30.404H94.72V29.904V29.404H83.296V29.904ZM94.72 29.904L94.2531 30.0829L104.237 56.1469L104.704 55.968L105.171 55.7891L95.1869 29.7251L94.72 29.904ZM104.704 55.968V56.468H104.848V55.968V55.468H104.704V55.968ZM143.302 62.592L142.877 62.8548L142.881 62.8615L143.302 62.592ZM149.926 62.592L149.506 62.3204L149.505 62.3225L149.926 62.592ZM149.974 45.024L150.401 44.7633L150.4 44.762L149.974 45.024ZM146.662 66.624V66.124C141.873 66.124 138.93 64.6621 137.166 62.4373C135.384 60.1897 134.73 57.0719 134.73 53.616H134.23H133.73C133.73 57.1681 134.396 60.5543 136.382 63.0587C138.386 65.5859 141.659 67.124 146.662 67.124V66.624ZM134.23 53.616H134.73C134.73 49.623 135.809 46.5973 137.797 44.57C139.783 42.5443 142.746 41.444 146.662 41.444V40.944V40.444C142.562 40.444 139.309 41.5997 137.083 43.87C134.859 46.1387 133.73 49.449 133.73 53.616H134.23ZM146.662 40.944V41.444C150.888 41.444 153.857 42.639 155.776 44.7043C157.7 46.7763 158.642 49.8033 158.642 53.616H159.142H159.642C159.642 49.6527 158.664 46.3437 156.508 44.0237C154.347 41.697 151.076 40.444 146.662 40.444V40.944ZM159.142 53.616H158.642C158.642 57.0242 158 60.1425 156.217 62.4023C154.453 64.6388 151.498 66.124 146.662 66.124V66.624V67.124C151.714 67.124 154.999 65.5612 157.003 63.0217C158.988 60.5055 159.642 57.1198 159.642 53.616H159.142ZM146.614 43.152V42.652H146.566V43.152V43.652H146.614V43.152ZM146.566 43.152V42.652C145.513 42.652 144.62 42.9615 143.888 43.5497C143.164 44.1314 142.627 44.9608 142.231 45.9551C141.445 47.9315 141.17 50.6754 141.17 53.808H141.67H142.17C142.17 50.7006 142.447 48.1165 143.161 46.3249C143.515 45.4352 143.965 44.7706 144.514 44.3293C145.056 43.8945 145.723 43.652 146.566 43.652V43.152ZM141.67 53.808H141.17C141.17 58.202 141.794 61.1016 142.877 62.8547L143.302 62.592L143.727 62.3293C142.794 60.8184 142.17 58.15 142.17 53.808H141.67ZM143.302 62.592L142.881 62.8615C143.74 64.2046 145.051 64.916 146.614 64.916V64.416V63.916C145.393 63.916 144.4 63.3794 143.723 62.3225L143.302 62.592ZM146.614 64.416V64.916C148.229 64.916 149.489 64.2016 150.347 62.8615L149.926 62.592L149.505 62.3225C148.827 63.3824 147.879 63.916 146.614 63.916V64.416ZM149.926 62.592L150.346 62.8636C151.483 61.106 152.106 58.1999 152.106 53.808H151.606H151.106C151.106 58.1521 150.481 60.814 149.506 62.3204L149.926 62.592ZM151.606 53.808H152.106C152.106 49.561 151.531 46.613 150.401 44.7633L149.974 45.024L149.547 45.2847C150.529 46.891 151.106 49.607 151.106 53.808H151.606ZM149.974 45.024L150.4 44.762C149.539 43.3633 148.224 42.652 146.614 42.652V43.152V43.652C147.884 43.652 148.873 44.1887 149.548 45.286L149.974 45.024ZM187.792 59.568L188.007 59.1168L187.544 58.896L187.335 59.3638L187.792 59.568ZM189.904 60.576L190.342 60.8168L190.597 60.3528L190.119 60.1248L189.904 60.576ZM190.048 53.76V54.26H190.548V53.76H190.048ZM174.784 53.76V53.26H174.284V53.76H174.784ZM176.416 61.392L175.987 61.6492L175.993 61.6595L176 61.6693L176.416 61.392ZM174.784 51.552L174.284 51.5456L174.277 52.052H174.784V51.552ZM182.848 51.552V52.052H183.348V51.552H182.848ZM187.792 59.568L187.576 60.0192L189.688 61.0272L189.904 60.576L190.119 60.1248L188.007 59.1168L187.792 59.568ZM189.904 60.576L189.465 60.3352C188.304 62.449 186.878 63.888 185.254 64.8023C183.628 65.7177 181.773 66.124 179.728 66.124V66.624V67.124C181.906 67.124 183.939 66.6903 185.745 65.6737C187.553 64.656 189.103 63.071 190.342 60.8168L189.904 60.576ZM179.728 66.624V66.124C175.905 66.124 172.945 65.0704 170.937 62.9889C168.927 60.9045 167.796 57.7121 167.796 53.28H167.296H166.796C166.796 57.8719 167.968 61.3515 170.218 63.6831C172.47 66.0176 175.726 67.124 179.728 67.124V66.624ZM167.296 53.28H167.796C167.796 50.2666 168.614 47.3048 170.413 45.1066C172.198 42.9239 174.991 41.444 179.056 41.444V40.944V40.444C174.721 40.444 171.633 42.0361 169.639 44.4734C167.657 46.8952 166.796 50.1014 166.796 53.28H167.296ZM179.056 40.944V41.444C181.599 41.444 183.501 42.0639 184.933 43.0064C186.367 43.9505 187.359 45.2386 188.046 46.6205C189.427 49.3994 189.548 52.5071 189.548 53.76H190.048H190.548C190.548 52.4689 190.429 49.1686 188.941 46.1755C188.194 44.6714 187.095 43.2325 185.483 42.1711C183.868 41.1081 181.769 40.444 179.056 40.444V40.944ZM190.048 53.76V53.26H174.784V53.76V54.26H190.048V53.76ZM174.784 53.76H174.284C174.284 56.9679 174.768 59.6173 175.987 61.6492L176.416 61.392L176.844 61.1348C175.76 59.3267 175.284 56.8881 175.284 53.76H174.784ZM176.416 61.392L176 61.6693C177.237 63.526 179.116 64.532 181.072 64.532V64.032V63.532C179.475 63.532 177.898 62.714 176.832 61.1147L176.416 61.392ZM181.072 64.032V64.532C185.086 64.532 187.386 61.6984 188.248 59.7722L187.792 59.568L187.335 59.3638C186.565 61.0856 184.546 63.532 181.072 63.532V64.032ZM174.784 51.552V52.052H182.848V51.552V51.052H174.784V51.552ZM182.848 51.552H183.348C183.348 50.0081 183.253 47.8447 182.702 46.053C182.426 45.156 182.024 44.3127 181.428 43.6875C180.818 43.0483 180.018 42.652 179.008 42.652V43.152V43.652C179.725 43.652 180.269 43.9217 180.704 44.3775C181.152 44.8473 181.494 45.528 181.746 46.347C182.25 47.9873 182.348 50.0239 182.348 51.552H182.848ZM179.008 43.152V42.652C177.07 42.652 175.896 44.0565 175.224 45.765C174.55 47.4787 174.308 49.6483 174.284 51.5456L174.784 51.552L175.284 51.5584C175.307 49.7117 175.545 47.6813 176.155 46.131C176.767 44.5755 177.682 43.652 179.008 43.652V43.152ZM207.712 28.8H208.212V28.4751L207.915 28.3431L207.712 28.8ZM207.712 52.224H207.212V52.724H207.712V52.224ZM207.808 52.224V52.724H208.018L208.165 52.5749L207.808 52.224ZM214.096 45.84L213.756 45.4736L213.748 45.4812L213.74 45.4891L214.096 45.84ZM213.184 43.584H212.684V44.084H213.184V43.584ZM213.184 41.568V41.068H212.684V41.568H213.184ZM222.88 41.568H223.38V41.068H222.88V41.568ZM222.88 43.584V44.084H223.38V43.584H222.88ZM218.992 45.072L218.646 44.7115L218.637 44.7203L218.992 45.072ZM214.528 49.584L214.173 49.2323L213.903 49.505L214.097 49.8362L214.528 49.584ZM221.536 61.584L221.975 61.3446L221.972 61.3382L221.968 61.3318L221.536 61.584ZM225.328 64.032H225.828V63.532H225.328V64.032ZM225.328 66V66.5H225.828V66H225.328ZM216.112 66L215.675 66.2415L215.817 66.5H216.112V66ZM209.44 53.904L209.878 53.6625L209.534 53.0392L209.065 53.5741L209.44 53.904ZM207.712 55.872L207.337 55.5421L207.212 55.6836V55.872H207.712ZM207.712 60.048H207.212L207.212 60.055L207.712 60.048ZM210.208 63.984H210.708V63.484H210.208V63.984ZM210.208 66V66.5H210.708V66H210.208ZM197.728 66H197.228V66.5H197.728V66ZM197.728 63.984V63.484H197.228V63.984H197.728ZM197.728 32.64H197.228V33.14H197.728V32.64ZM197.728 30.768L197.681 30.2702L197.228 30.313V30.768H197.728ZM206.848 28.416L207.051 27.9591L206.857 27.8725L206.659 27.9532L206.848 28.416ZM207.712 28.8H207.212V52.224H207.712H208.212V28.8H207.712ZM207.712 52.224V52.724H207.808V52.224V51.724H207.712V52.224ZM207.808 52.224L208.165 52.5749L214.453 46.1909L214.096 45.84L213.74 45.4891L207.452 51.8731L207.808 52.224ZM214.096 45.84L214.437 46.2064C214.781 45.8864 215.083 45.5744 215.301 45.2805C215.508 45.0033 215.7 44.6646 215.7 44.304H215.2H214.7C214.7 44.3274 214.677 44.4446 214.499 44.6835C214.334 44.9056 214.084 45.1696 213.756 45.4736L214.096 45.84ZM215.2 44.304H215.7C215.7 44.0743 215.628 43.8522 215.469 43.6652C215.319 43.4883 215.117 43.3733 214.906 43.2951C214.494 43.1427 213.915 43.084 213.184 43.084V43.584V44.084C213.893 44.084 214.322 44.1453 214.559 44.2329C214.672 44.2747 214.704 44.3096 214.707 44.3128C214.707 44.3131 214.704 44.3089 214.701 44.3019C214.699 44.2954 214.7 44.2946 214.7 44.304H215.2ZM213.184 43.584H213.684V41.568H213.184H212.684V43.584H213.184ZM213.184 41.568V42.068H222.88V41.568V41.068H213.184V41.568ZM222.88 41.568H222.38V43.584H222.88H223.38V41.568H222.88ZM222.88 43.584V43.084C221.397 43.084 220.011 43.3987 218.646 44.7116L218.992 45.072L219.339 45.4324C220.47 44.3453 221.579 44.084 222.88 44.084V43.584ZM218.992 45.072L218.637 44.7203L214.173 49.2323L214.528 49.584L214.884 49.9357L219.348 45.4237L218.992 45.072ZM214.528 49.584L214.097 49.8362L221.105 61.8362L221.536 61.584L221.968 61.3318L214.96 49.3318L214.528 49.584ZM221.536 61.584L221.097 61.8234C221.696 62.9212 222.304 63.6216 223.021 64.0336C223.741 64.4467 224.506 64.532 225.328 64.532V64.032V63.532C224.567 63.532 224.012 63.4493 223.519 63.1664C223.025 62.8824 222.529 62.3588 221.975 61.3446L221.536 61.584ZM225.328 64.032H224.828V66H225.328H225.828V64.032H225.328ZM225.328 66V65.5H216.112V66V66.5H225.328V66ZM216.112 66L216.55 65.7585L209.878 53.6625L209.44 53.904L209.003 54.1455L215.675 66.2415L216.112 66ZM209.44 53.904L209.065 53.5741L207.337 55.5421L207.712 55.872L208.088 56.2019L209.816 54.2339L209.44 53.904ZM207.712 55.872H207.212V60.048H207.712H208.212V55.872H207.712ZM207.712 60.048L207.212 60.055C207.224 60.9058 207.245 61.6007 207.309 62.1571C207.371 62.7075 207.48 63.1796 207.704 63.5519C208.199 64.3744 209.102 64.484 210.208 64.484V63.984V63.484C209.058 63.484 208.737 63.3296 208.561 63.0361C208.449 62.8504 208.36 62.5515 208.302 62.0444C208.245 61.5433 208.224 60.8941 208.212 60.041L207.712 60.048ZM210.208 63.984H209.708V66H210.208H210.708V63.984H210.208ZM210.208 66V65.5H197.728V66V66.5H210.208V66ZM197.728 66H198.228V63.984H197.728H197.228V66H197.728ZM197.728 63.984V64.484C198.421 64.484 198.999 64.4458 199.466 64.3166C199.952 64.1821 200.341 63.9418 200.611 63.5343C200.867 63.1489 200.981 62.6643 201.04 62.1136C201.1 61.5587 201.108 60.8726 201.108 60.048H200.608H200.108C200.108 60.8794 200.099 61.5133 200.046 62.0069C199.993 62.5047 199.9 62.7971 199.778 62.9817C199.67 63.1442 199.51 63.2669 199.199 63.3529C198.869 63.4442 198.404 63.484 197.728 63.484V63.984ZM200.608 60.048H201.108V36.576H200.608H200.108V60.048H200.608ZM200.608 36.576H201.108C201.108 35.7469 201.091 35.0588 201.019 34.4999C200.947 33.9441 200.816 33.4623 200.551 33.0807C199.991 32.2743 199.003 32.14 197.728 32.14V32.64V33.14C199.046 33.14 199.498 33.3177 199.73 33.6513C199.861 33.8397 199.964 34.1349 200.027 34.6276C200.09 35.1172 200.108 35.7491 200.108 36.576H200.608ZM197.728 32.64H198.228V30.768H197.728H197.228V32.64H197.728ZM197.728 30.768L197.775 31.2658C200.373 31.0208 203.828 30.1917 207.038 28.8788L206.848 28.416L206.659 27.9532C203.532 29.2323 200.172 30.0352 197.681 30.2702L197.728 30.768ZM206.848 28.416L206.645 28.8729L207.509 29.2569L207.712 28.8L207.915 28.3431L207.051 27.9591L206.848 28.416ZM246.517 50.304L246.638 50.7891L247.017 50.6944V50.304H246.517ZM238.789 46.848L239.253 47.0337L239.259 47.0176L239.265 47.001L238.789 46.848ZM256.453 63.552L256.943 63.4539L256.801 62.7446L256.188 63.128L256.453 63.552ZM256.837 65.472L257.025 65.935L257.408 65.7791L257.327 65.3739L256.837 65.472ZM246.853 63.648L247.313 63.454L247.185 63.148H246.853V63.648ZM246.661 63.648V63.148H246.454L246.307 63.2944L246.661 63.648ZM235.477 54.096L235.736 54.5233L235.744 54.5186L235.751 54.5137L235.477 54.096ZM243.253 51.12L243.364 51.6075L243.374 51.6051L243.253 51.12ZM246.517 61.296L246.87 61.6496L247.017 61.5031V61.296H246.517ZM246.517 52.368H247.017V51.687L246.367 51.891L246.517 52.368ZM246.517 50.304H247.017V48.096H246.517H246.017V50.304H246.517ZM246.517 48.096H247.017C247.017 46.0763 246.613 44.6971 245.857 43.8214C245.086 42.9278 244.032 42.652 242.965 42.652V43.152V43.652C243.865 43.652 244.587 43.8802 245.1 44.4746C245.628 45.0869 246.017 46.1797 246.017 48.096H246.517ZM242.965 43.152V42.652C241.407 42.652 240.338 43.3194 239.614 44.1723C238.905 45.0065 238.533 46.009 238.313 46.695L238.789 46.848L239.265 47.001C239.476 46.343 239.8 45.4975 240.376 44.8196C240.935 44.1606 241.738 43.652 242.965 43.652V43.152ZM238.789 46.848L238.324 46.6623C238.105 47.2105 237.843 47.5921 237.473 47.846C237.103 48.1005 236.565 48.268 235.717 48.268V48.768V49.268C236.692 49.268 237.45 49.0755 238.04 48.67C238.631 48.2639 238.992 47.6855 239.253 47.0337L238.789 46.848ZM235.717 48.768V48.268C234.908 48.268 234.401 48.0262 234.095 47.7115C233.785 47.3924 233.625 46.9399 233.625 46.416H233.125H232.625C232.625 47.14 232.848 47.8636 233.378 48.4085C233.912 48.9578 234.701 49.268 235.717 49.268V48.768ZM233.125 46.416H233.625C233.625 45.7075 233.972 44.4864 235.354 43.4291C236.743 42.3669 239.213 41.444 243.493 41.444V40.944V40.444C239.084 40.444 236.37 41.3931 234.747 42.6349C233.117 43.8816 232.625 45.3965 232.625 46.416H233.125ZM243.493 40.944V41.444C245.703 41.444 248.097 41.5948 249.937 42.6661C251.718 43.7034 253.073 45.6644 253.073 49.536H253.573H254.073C254.073 45.3916 252.595 43.0566 250.44 41.8019C248.344 40.5812 245.698 40.444 243.493 40.444V40.944ZM253.573 49.536H253.073V60.48H253.573H254.073V49.536H253.573ZM253.573 60.48H253.073C253.073 61.7887 253.202 62.7487 253.511 63.3955C253.671 63.7301 253.888 64 254.175 64.1825C254.463 64.3655 254.783 64.436 255.109 64.436V63.936V63.436C254.93 63.436 254.806 63.3985 254.711 63.3385C254.616 63.278 254.512 63.1699 254.414 62.9645C254.207 62.5313 254.073 61.7633 254.073 60.48H253.573ZM255.109 63.936V64.436C255.684 64.436 256.256 64.2648 256.718 63.976L256.453 63.552L256.188 63.128C255.882 63.3192 255.493 63.436 255.109 63.436V63.936ZM256.453 63.552L255.962 63.6501L256.346 65.5701L256.837 65.472L257.327 65.3739L256.943 63.4539L256.453 63.552ZM256.837 65.472L256.648 65.009C255.426 65.5066 254.054 65.788 251.797 65.788V66.288V66.788C254.147 66.788 255.655 66.4934 257.025 65.935L256.837 65.472ZM251.797 66.288V65.788C250.395 65.788 249.449 65.5878 248.775 65.2146C248.117 64.8505 247.666 64.2919 247.313 63.454L246.853 63.648L246.392 63.842C246.807 64.8281 247.388 65.5895 248.29 66.0894C249.177 66.5802 250.318 66.788 251.797 66.788V66.288ZM246.853 63.648V63.148H246.661V63.648V64.148H246.853V63.648ZM246.661 63.648L246.307 63.2944C245.56 64.0413 244.732 64.7413 243.623 65.259C242.516 65.776 241.102 66.124 239.173 66.124V66.624V67.124C241.228 67.124 242.789 66.752 244.046 66.165C245.302 65.5787 246.225 64.7907 247.014 64.0016L246.661 63.648ZM239.173 66.624V66.124C237.583 66.124 235.896 65.6455 234.618 64.6618C233.354 63.6897 232.473 62.2133 232.473 60.144H231.973H231.473C231.473 62.5387 232.511 64.3023 234.008 65.4542C235.489 66.5945 237.402 67.124 239.173 67.124V66.624ZM231.973 60.144H232.473C232.473 58.918 232.722 57.8666 233.241 56.9532C233.761 56.0392 234.57 55.2324 235.736 54.5233L235.477 54.096L235.217 53.6687C233.936 54.4476 232.992 55.3688 232.372 56.4588C231.752 57.5494 231.473 58.778 231.473 60.144H231.973ZM235.477 54.096L235.751 54.5137C237.507 53.3587 240.036 52.3682 243.364 51.6074L243.253 51.12L243.141 50.6326C239.75 51.4078 237.094 52.4333 235.202 53.6783L235.477 54.096ZM243.253 51.12L243.374 51.6051L246.638 50.7891L246.517 50.304L246.395 49.8189L243.131 50.6349L243.253 51.12ZM246.517 61.296H247.017V52.368H246.517H246.017V61.296H246.517ZM246.517 52.368L246.367 51.891C244.284 52.545 242.42 53.3487 241.072 54.4742C239.703 55.617 238.865 57.095 238.865 59.04H239.365H239.865C239.865 57.433 240.538 56.223 241.713 55.2418C242.909 54.2433 244.622 53.487 246.666 52.845L246.517 52.368ZM239.365 59.04H238.865C238.865 60.5502 239.216 61.7363 239.899 62.5527C240.592 63.3817 241.572 63.764 242.677 63.764V63.264V62.764C241.813 62.764 241.137 62.4743 240.666 61.9113C240.185 61.3357 239.865 60.4098 239.865 59.04H239.365ZM242.677 63.264V63.764C244.676 63.764 246.006 62.514 246.87 61.6496L246.517 61.296L246.163 60.9424C245.3 61.806 244.23 62.764 242.677 62.764V63.264Z" fill="#434343"/>
<defs>
<linearGradient id="paint0_linear_2341_3359" x1="61.7723" y1="14" x2="0" y2="75.7723" gradientUnits="userSpaceOnUse">
<stop stop-color="#EE0012"/>
<stop offset="1" stop-color="#910913"/>
</linearGradient>
</defs>
</svg>
